<svg width="28" height="28" viewBox="0 0 28 28" fill="none" xmlns="http://www.w3.org/2000/svg">
<path d="M20.9998 2.33337H9.33317C8.09549 2.33337 6.90851 2.82504 6.03334 3.70021C5.15817 4.57538 4.6665 5.76236 4.6665 7.00004V21C4.6665 22.2377 5.15817 23.4247 6.03334 24.2999C6.90851 25.175 8.09549 25.6667 9.33317 25.6667H20.9998C21.6187 25.6667 22.2122 25.4209 22.6498 24.9833C23.0873 24.5457 23.3332 23.9522 23.3332 23.3334V4.66671C23.3332 4.04787 23.0873 3.45438 22.6498 3.01679C22.2122 2.57921 21.6187 2.33337 20.9998 2.33337ZM6.99984 7.00004C6.99984 6.3812 7.24567 5.78771 7.68325 5.35012C8.12084 4.91254 8.71433 4.66671 9.33317 4.66671H20.9998V16.3334H9.33317C8.51072 16.3368 7.7045 16.5626 6.99984 16.9867V7.00004ZM9.33317 23.3334C8.71433 23.3334 8.12084 23.0875 7.68325 22.65C7.24567 22.2124 6.99984 21.6189 6.99984 21C6.99984 20.3812 7.24567 19.7877 7.68325 19.3501C8.12084 18.9125 8.71433 18.6667 9.33317 18.6667H20.9998V23.3334H9.33317ZM11.6665 9.33337H16.3332C16.6426 9.33337 16.9393 9.21046 17.1581 8.99166C17.3769 8.77287 17.4998 8.47613 17.4998 8.16671C17.4998 7.85729 17.3769 7.56054 17.1581 7.34175C16.9393 7.12296 16.6426 7.00004 16.3332 7.00004H11.6665C11.3571 7.00004 11.0603 7.12296 10.8415 7.34175C10.6228 7.56054 10.4998 7.85729 10.4998 8.16671C10.4998 8.47613 10.6228 8.77287 10.8415 8.99166C11.0603 9.21046 11.3571 9.33337 11.6665 9.33337Z" fill="black"/>
</svg>
