<svg width="28" height="28" viewBox="0 0 28 28" fill="none" xmlns="http://www.w3.org/2000/svg">
<path d="M20.9994 2.33325H9.33268C8.09501 2.33325 6.90802 2.82492 6.03285 3.70009C5.15768 4.57526 4.66602 5.76224 4.66602 6.99992V20.9999C4.66602 22.2376 5.15768 23.4246 6.03285 24.2997C6.90802 25.1749 8.09501 25.6666 9.33268 25.6666H20.9994C21.6182 25.6666 22.2117 25.4208 22.6493 24.9832C23.0869 24.5456 23.3327 23.9521 23.3327 23.3333V4.66659C23.3327 4.04775 23.0869 3.45425 22.6493 3.01667C22.2117 2.57908 21.6182 2.33325 20.9994 2.33325ZM6.99935 6.99992C6.99935 6.38108 7.24518 5.78759 7.68277 5.35C8.12035 4.91242 8.71384 4.66659 9.33268 4.66659H20.9994V16.3333H9.33268C8.51023 16.3367 7.70401 16.5624 6.99935 16.9866V6.99992ZM9.33268 23.3333C8.71384 23.3333 8.12035 23.0874 7.68277 22.6498C7.24518 22.2122 6.99935 21.6188 6.99935 20.9999C6.99935 20.3811 7.24518 19.7876 7.68277 19.35C8.12035 18.9124 8.71384 18.6666 9.33268 18.6666H20.9994V23.3333H9.33268ZM11.666 9.33325H16.3327C16.6421 9.33325 16.9388 9.21034 17.1576 8.99154C17.3764 8.77275 17.4993 8.476 17.4993 8.16659C17.4993 7.85717 17.3764 7.56042 17.1576 7.34163C16.9388 7.12283 16.6421 6.99992 16.3327 6.99992H11.666C11.3566 6.99992 11.0599 7.12283 10.8411 7.34163C10.6223 7.56042 10.4993 7.85717 10.4993 8.16659C10.4993 8.476 10.6223 8.77275 10.8411 8.99154C11.0599 9.21034 11.3566 9.33325 11.666 9.33325V9.33325Z" fill="white"/>
</svg>
