<svg width="29" height="28" viewBox="0 0 29 28" fill="none" xmlns="http://www.w3.org/2000/svg">
<path d="M18.8286 14.8283C19.9724 13.9284 20.8072 12.6944 21.217 11.2979C21.6268 9.90144 21.5911 8.41196 21.115 7.0367C20.6388 5.66143 19.7459 4.46877 18.5603 3.62465C17.3748 2.78052 15.9556 2.3269 14.5002 2.3269C13.0449 2.3269 11.6257 2.78052 10.4402 3.62465C9.25461 4.46877 8.36164 5.66143 7.88549 7.0367C7.40933 8.41196 7.37367 9.90144 7.78346 11.2979C8.19325 12.6944 9.02812 13.9284 10.1719 14.8283C8.212 15.6135 6.50191 16.9159 5.22395 18.5965C3.94599 20.2772 3.14806 22.2732 2.91524 24.3716C2.89839 24.5249 2.91188 24.6799 2.95494 24.8279C2.998 24.9759 3.06979 25.1139 3.1662 25.2342C3.36093 25.4771 3.64415 25.6326 3.95357 25.6666C4.26299 25.7007 4.57326 25.6104 4.81612 25.4157C5.05898 25.221 5.21454 24.9377 5.24857 24.6283C5.50476 22.3477 6.59221 20.2414 8.30316 18.7119C10.0141 17.1824 12.2286 16.3368 14.5236 16.3368C16.8185 16.3368 19.033 17.1824 20.744 18.7119C22.4549 20.2414 23.5424 22.3477 23.7986 24.6283C23.8303 24.915 23.9671 25.1797 24.1825 25.3715C24.398 25.5632 24.6768 25.6684 24.9652 25.6666H25.0936C25.3994 25.6315 25.6789 25.4768 25.8712 25.2364C26.0635 24.9961 26.153 24.6894 26.1202 24.3833C25.8863 22.2789 25.0841 20.2778 23.7996 18.5946C22.515 16.9113 20.7966 15.6094 18.8286 14.8283ZM14.5002 14C13.5773 14 12.675 13.7263 11.9076 13.2135C11.1402 12.7007 10.542 11.9719 10.1888 11.1192C9.83559 10.2665 9.74318 9.32814 9.92324 8.42289C10.1033 7.51765 10.5478 6.68613 11.2004 6.03348C11.8531 5.38084 12.6846 4.93638 13.5898 4.75632C14.4951 4.57625 15.4334 4.66867 16.2861 5.02188C17.1388 5.37509 17.8677 5.97323 18.3804 6.74065C18.8932 7.50808 19.1669 8.41034 19.1669 9.33332C19.1669 10.571 18.6752 11.758 17.8001 12.6331C16.9249 13.5083 15.7379 14 14.5002 14Z" fill="white"/>
</svg>
