<svg width="28" height="28" viewBox="0 0 28 28" fill="none" xmlns="http://www.w3.org/2000/svg">
<path d="M24.0507 14.4383C23.8637 14.2253 23.7605 13.9516 23.7605 13.6683C23.7605 13.3849 23.8637 13.1112 24.0507 12.8983L25.544 11.2183C25.7086 11.0347 25.8108 10.8037 25.8359 10.5585C25.8611 10.3133 25.8079 10.0664 25.684 9.85325L23.3507 5.81659C23.2281 5.60369 23.0414 5.43494 22.8172 5.33439C22.5931 5.23383 22.3429 5.2066 22.1024 5.25659L19.909 5.69992C19.6299 5.75759 19.3394 5.71111 19.0922 5.56925C18.8451 5.4274 18.6584 5.19998 18.5674 4.92992L17.8557 2.79492C17.7774 2.5632 17.6283 2.36193 17.4294 2.21957C17.2305 2.07721 16.9919 2.00096 16.7474 2.00159H12.0807C11.8263 1.98831 11.5745 2.05867 11.3639 2.20192C11.1532 2.34517 10.9952 2.55344 10.914 2.79492L10.2607 4.92992C10.1697 5.19998 9.98299 5.4274 9.73583 5.56925C9.48866 5.71111 9.19811 5.75759 8.91903 5.69992L6.66736 5.25659C6.43934 5.22436 6.20688 5.26035 5.99926 5.36C5.79165 5.45965 5.61818 5.61852 5.50069 5.81659L3.16736 9.85325C3.04038 10.064 2.98329 10.3095 3.00424 10.5547C3.02519 10.7998 3.12312 11.0321 3.28403 11.2183L4.76569 12.8983C4.95273 13.1112 5.05588 13.3849 5.05588 13.6683C5.05588 13.9516 4.95273 14.2253 4.76569 14.4383L3.28403 16.1183C3.12312 16.3044 3.02519 16.5367 3.00424 16.7818C2.98329 17.027 3.04038 17.2725 3.16736 17.4833L5.50069 21.5199C5.62331 21.7328 5.81 21.9016 6.03415 22.0021C6.25831 22.1027 6.50849 22.1299 6.74903 22.0799L8.94236 21.6366C9.22145 21.5789 9.51199 21.6254 9.75916 21.7673C10.0063 21.9091 10.193 22.1365 10.284 22.4066L10.9957 24.5416C11.0769 24.7831 11.2349 24.9913 11.4455 25.1346C11.6562 25.2778 11.9079 25.3482 12.1624 25.3349H16.829C17.0736 25.3356 17.3122 25.2593 17.5111 25.1169C17.71 24.9746 17.8591 24.7733 17.9374 24.5416L18.649 22.4066C18.74 22.1365 18.9267 21.9091 19.1739 21.7673C19.4211 21.6254 19.7116 21.5789 19.9907 21.6366L22.184 22.0799C22.4246 22.1299 22.6747 22.1027 22.8989 22.0021C23.1231 21.9016 23.3097 21.7328 23.4324 21.5199L25.7657 17.4833C25.8896 17.2701 25.9427 17.0232 25.9176 16.778C25.8924 16.5328 25.7902 16.3018 25.6257 16.1183L24.0507 14.4383ZM22.3124 16.0016L23.2457 17.0516L21.7524 19.6416L20.3757 19.3616C19.5354 19.1898 18.6614 19.3326 17.9194 19.7627C17.1774 20.1928 16.6192 20.8804 16.3507 21.6949L15.9074 23.0016H12.9207L12.5007 21.6716C12.2322 20.8571 11.674 20.1695 10.932 19.7394C10.19 19.3092 9.31595 19.1665 8.47569 19.3383L7.09903 19.6183L5.58236 17.0399L6.51569 15.9899C7.08964 15.3482 7.40695 14.5175 7.40695 13.6566C7.40695 12.7957 7.08964 11.9649 6.51569 11.3233L5.58236 10.2733L7.07569 7.70659L8.45236 7.98659C9.29262 8.15835 10.1667 8.01561 10.9087 7.58548C11.6506 7.15536 12.2089 6.46777 12.4774 5.65325L12.9207 4.33492H15.9074L16.3507 5.66492C16.6192 6.47944 17.1774 7.16702 17.9194 7.59715C18.6614 8.02728 19.5354 8.17001 20.3757 7.99825L21.7524 7.71825L23.2457 10.3083L22.3124 11.3583C21.7449 11.9985 21.4315 12.8244 21.4315 13.6799C21.4315 14.5355 21.7449 15.3614 22.3124 16.0016ZM14.414 9.00159C13.491 9.00159 12.5888 9.27528 11.8214 9.78806C11.0539 10.3008 10.4558 11.0297 10.1026 11.8824C9.74938 12.7351 9.65696 13.6734 9.83703 14.5787C10.0171 15.4839 10.4615 16.3154 11.1142 16.9681C11.7668 17.6207 12.5984 18.0652 13.5036 18.2453C14.4089 18.4253 15.3472 18.3329 16.1999 17.9797C17.0526 17.6265 17.7814 17.0283 18.2942 16.2609C18.807 15.4935 19.0807 14.5912 19.0807 13.6683C19.0807 12.4306 18.589 11.2436 17.7139 10.3684C16.8387 9.49325 15.6517 9.00159 14.414 9.00159ZM14.414 16.0016C13.9525 16.0016 13.5014 15.8647 13.1177 15.6083C12.734 15.352 12.4349 14.9875 12.2583 14.5612C12.0817 14.1348 12.0355 13.6657 12.1255 13.213C12.2156 12.7604 12.4378 12.3447 12.7641 12.0183C13.0904 11.692 13.5062 11.4698 13.9588 11.3798C14.4114 11.2897 14.8806 11.3359 15.307 11.5125C15.7333 11.6891 16.0977 11.9882 16.3541 12.3719C16.6105 12.7556 16.7474 13.2068 16.7474 13.6683C16.7474 14.2871 16.5015 14.8806 16.0639 15.3182C15.6264 15.7558 15.0329 16.0016 14.414 16.0016Z" fill="black"/>
</svg>
