<svg width="392" height="632" viewBox="0 0 392 632" fill="none" xmlns="http://www.w3.org/2000/svg">
<mask id="mask0_372_6155" style="mask-type:alpha" maskUnits="userSpaceOnUse" x="0" y="0" width="392" height="632">
<rect width="392" height="632" fill="#D9D9D9"/>
</mask>
<g mask="url(#mask0_372_6155)">
<path d="M-112.765 491.068C-60.52 404.733 -0.337536 176.013 -177.565 -48.1838C-108.723 37.2951 71.4211 197.069 241.267 152.334C411.114 107.599 430.929 -110.714 419.606 -214.279C439.345 -101.587 510.928 154.181 639.348 275.713C750.597 380.995 829.32 372.616 865.602 348.891C870.416 344.587 875.009 340.675 879.332 337.169C875.791 341.201 871.202 345.229 865.602 348.891C792.179 414.532 667.421 571.151 664.128 761.154C660.618 963.613 758.97 1094.55 808.585 1134.72C624.523 1038.75 186.771 892.744 -91.7401 1076.5C-92.2453 1076.83 -92.749 1077.17 -93.2514 1077.5C-98.1923 1081.76 -102.932 1085.79 -107.444 1089.59C-218.055 1161.66 -369.7 1259.9 -93.2514 1077.5C8.20661 990.059 194.344 809.737 227.516 698.956C262.304 582.779 15.1572 511.957 -112.765 491.068Z" fill="white"/>
<path d="M89.1598 -15.9831C83.2919 40.3196 107.441 170.773 250.982 242.165C195.61 215.249 65.9929 177.246 -9.49876 240.559C-84.9904 303.871 -42.845 419.392 -12.3359 469.238C-49.2981 416.773 -146.779 304.1 -241.005 273.135C-322.632 246.311 -360.576 269.386 -373.315 290.101C-374.728 293.435 -376.123 296.519 -377.479 299.332C-376.646 296.439 -375.281 293.298 -373.315 290.101C-351.752 239.235 -325.892 129.928 -369.652 32.7241C-416.281 -70.8529 -497.499 -113.781 -532.279 -122.298C-415.93 -117.609 -158.883 -148.191 -61.491 -308.033C-61.3144 -308.323 -61.1383 -308.612 -60.9626 -308.9C-59.4735 -312.242 -58.0336 -315.425 -56.6525 -318.431C-17.7559 -381.451 35.7069 -467.561 -60.9626 -308.9C-91.5399 -240.27 -142.878 -104.259 -133.223 -40.1112C-123.097 27.1604 19.2515 4.00402 89.1598 -15.9831Z" fill="black"/>
<path d="M415.188 271.941C487.829 318.818 682.205 376.016 878.585 229.795C803.68 286.632 662.398 436.946 696.504 583.502C730.609 730.059 917.073 752.431 1006.04 745.297C909.048 759.412 688.248 814.382 580.995 921.348C488.083 1014.01 493.31 1081.63 512.729 1113.29C516.295 1117.52 519.532 1121.55 522.427 1125.34C519.062 1122.21 515.727 1118.18 512.729 1113.29C458.334 1048.79 327.3 938.077 164.671 930.554C-8.62027 922.538 -123.186 1003.52 -158.807 1045.02C-72.0668 889.768 63.7965 518.51 -86.6718 275.456C-86.9448 275.015 -87.2169 274.576 -87.4884 274.137C-91.0126 269.801 -94.3531 265.642 -97.4946 261.684C-156.475 165.178 -236.848 32.8838 -87.4884 274.137C-15.1207 363.186 134.693 527.049 228.74 558.198C327.368 590.864 394.134 380.971 415.188 271.941Z" fill="black"/>
<path d="M153.251 316.479L153.441 325.523H156.272C156.474 325.523 156.576 325.624 156.576 325.827V334.662C156.576 334.877 156.474 334.985 156.272 334.985H152.529C152.313 334.985 152.206 334.877 152.206 334.662L152.054 329H134.536L134.384 334.662C134.384 334.877 134.276 334.985 134.061 334.985H130.28C130.077 334.985 129.976 334.877 129.976 334.662V325.827C129.976 325.624 130.077 325.523 130.28 325.523H131.952C132.712 324.56 133.32 323.395 133.776 322.027C134.244 320.659 134.58 318.987 134.783 317.011C134.859 316.213 134.928 315.276 134.992 314.199C135.068 313.11 135.137 311.938 135.201 310.684C135.264 309.43 135.321 308.125 135.372 306.77C135.422 305.415 135.46 304.059 135.486 302.704C135.486 302.501 135.593 302.4 135.809 302.4H152.871C153.086 302.4 153.194 302.501 153.194 302.704L153.251 316.479ZM138.944 316.84C138.766 318.74 138.488 320.425 138.108 321.894C137.74 323.363 137.246 324.573 136.626 325.523H148.767L148.786 316.479L148.634 305.877H139.59C139.539 307.283 139.476 308.67 139.4 310.038C139.324 311.406 139.248 312.673 139.172 313.838C139.096 315.003 139.02 316.004 138.944 316.84ZM169.737 329.513C167.103 329.513 164.81 328.937 162.859 327.784C160.909 326.631 159.389 325.023 158.299 322.958C157.223 320.893 156.684 318.487 156.684 315.738C156.684 312.913 157.223 310.462 158.299 308.385C159.376 306.308 160.89 304.705 162.84 303.578C164.804 302.451 167.109 301.887 169.756 301.887C172.378 301.887 174.671 302.451 176.634 303.578C178.598 304.693 180.118 306.289 181.194 308.366C182.284 310.431 182.828 312.894 182.828 315.757C182.828 318.506 182.284 320.912 181.194 322.977C180.118 325.042 178.598 326.65 176.634 327.803C174.671 328.943 172.372 329.513 169.737 329.513ZM169.775 325.922C171.511 325.922 172.993 325.517 174.221 324.706C175.463 323.883 176.406 322.717 177.052 321.21C177.698 319.69 178.021 317.872 178.021 315.757C178.021 313.642 177.698 311.818 177.052 310.285C176.406 308.74 175.463 307.555 174.221 306.732C172.993 305.896 171.498 305.478 169.737 305.478C167.977 305.478 166.482 305.89 165.253 306.713C164.025 307.524 163.087 308.702 162.441 310.247C161.808 311.78 161.491 313.616 161.491 315.757C161.491 317.86 161.814 319.671 162.46 321.191C163.119 322.711 164.069 323.883 165.31 324.706C166.552 325.517 168.04 325.922 169.775 325.922ZM190.242 312.527H195.847C198.317 312.54 200.305 312.869 201.813 313.515C203.32 314.161 204.409 315.098 205.081 316.327C205.765 317.543 206.107 319.006 206.107 320.716C206.107 322.489 205.695 323.997 204.872 325.238C204.061 326.467 202.877 327.404 201.319 328.05C199.773 328.683 197.911 329 195.733 329H185.91C185.707 329 185.606 328.899 185.606 328.696L185.739 315.776L185.606 302.704C185.606 302.501 185.707 302.4 185.91 302.4H203.048C203.263 302.4 203.371 302.501 203.371 302.704V305.573C203.371 305.776 203.263 305.877 203.048 305.877H190.299L190.242 312.527ZM190.299 325.523H195.866C197.626 325.523 199.001 325.149 199.989 324.402C200.977 323.642 201.471 322.439 201.471 320.792C201.471 319.677 201.255 318.772 200.825 318.075C200.394 317.366 199.767 316.846 198.944 316.517C198.12 316.175 197.113 316.004 195.923 316.004H190.223L190.299 325.523ZM209.212 329C209.01 329 208.908 328.899 208.908 328.696L209.041 315.51L208.908 302.704C208.908 302.501 209.01 302.4 209.212 302.4H218.579C221.645 302.4 224.039 303.097 225.761 304.49C227.497 305.871 228.364 307.942 228.364 310.703C228.364 312.552 227.965 314.117 227.167 315.396C226.369 316.663 225.242 317.625 223.785 318.284C222.329 318.93 220.6 319.253 218.598 319.253H213.563L213.639 328.696C213.639 328.899 213.538 329 213.335 329H209.212ZM213.525 315.833H218.902C220.334 315.833 221.518 315.447 222.455 314.674C223.393 313.889 223.861 312.59 223.861 310.779C223.861 309.094 223.412 307.847 222.512 307.036C221.626 306.225 220.372 305.82 218.75 305.82H213.62L213.525 315.833ZM243.505 329.513C240.87 329.513 238.578 328.937 236.627 327.784C234.676 326.631 233.156 325.023 232.067 322.958C230.99 320.893 230.452 318.487 230.452 315.738C230.452 312.913 230.99 310.462 232.067 308.385C233.144 306.308 234.657 304.705 236.608 303.578C238.571 302.451 240.877 301.887 243.524 301.887C246.146 301.887 248.439 302.451 250.402 303.578C252.365 304.693 253.885 306.289 254.962 308.366C256.051 310.431 256.596 312.894 256.596 315.757C256.596 318.506 256.051 320.912 254.962 322.977C253.885 325.042 252.365 326.65 250.402 327.803C248.439 328.943 246.14 329.513 243.505 329.513ZM243.543 325.922C245.278 325.922 246.76 325.517 247.989 324.706C249.23 323.883 250.174 322.717 250.82 321.21C251.466 319.69 251.789 317.872 251.789 315.757C251.789 313.642 251.466 311.818 250.82 310.285C250.174 308.74 249.23 307.555 247.989 306.732C246.76 305.896 245.266 305.478 243.505 305.478C241.744 305.478 240.25 305.89 239.021 306.713C237.792 307.524 236.855 308.702 236.209 310.247C235.576 311.78 235.259 313.616 235.259 315.757C235.259 317.86 235.582 319.671 236.228 321.191C236.887 322.711 237.837 323.883 239.078 324.706C240.319 325.517 241.808 325.922 243.543 325.922ZM84.7345 348.4C84.9371 348.4 85.0385 348.501 85.0385 348.704L84.9055 361.605L85.0385 374.696C85.0385 374.899 84.9371 375 84.7345 375H80.6305C80.4151 375 80.3075 374.899 80.3075 374.696L80.4405 361.605L80.3835 351.877H67.9765L67.9195 361.605L68.0525 374.696C68.0525 374.899 67.9448 375 67.7295 375H63.6255C63.4228 375 63.3215 374.899 63.3215 374.696L63.4545 361.605L63.3215 348.704C63.3215 348.501 63.4228 348.4 63.6255 348.4H84.7345ZM100.887 375.513C98.252 375.513 95.9593 374.937 94.0087 373.784C92.058 372.631 90.538 371.023 89.4487 368.958C88.372 366.893 87.8337 364.487 87.8337 361.738C87.8337 358.913 88.372 356.462 89.4487 354.385C90.5253 352.308 92.039 350.705 93.9897 349.578C95.953 348.451 98.2583 347.887 100.906 347.887C103.528 347.887 105.82 348.451 107.784 349.578C109.747 350.693 111.267 352.289 112.344 354.366C113.433 356.431 113.978 358.894 113.978 361.757C113.978 364.506 113.433 366.912 112.344 368.977C111.267 371.042 109.747 372.65 107.784 373.803C105.82 374.943 103.521 375.513 100.887 375.513ZM100.925 371.922C102.66 371.922 104.142 371.517 105.371 370.706C106.612 369.883 107.556 368.717 108.202 367.21C108.848 365.69 109.171 363.872 109.171 361.757C109.171 359.642 108.848 357.818 108.202 356.285C107.556 354.74 106.612 353.555 105.371 352.732C104.142 351.896 102.647 351.478 100.887 351.478C99.126 351.478 97.6313 351.89 96.4027 352.713C95.174 353.524 94.2367 354.702 93.5907 356.247C92.9573 357.78 92.6407 359.616 92.6407 361.757C92.6407 363.86 92.9637 365.671 93.6097 367.191C94.2683 368.711 95.2183 369.883 96.4597 370.706C97.701 371.517 99.1893 371.922 100.925 371.922ZM146.69 348.4C146.817 348.4 146.899 348.438 146.937 348.514C146.975 348.577 146.962 348.666 146.899 348.78L139.603 360.256L148.552 374.62C148.615 374.734 148.628 374.829 148.59 374.905C148.552 374.968 148.47 375 148.343 375H143.441C143.276 375 143.156 374.93 143.08 374.791L135.803 362.517H132.763L132.877 374.696C132.877 374.899 132.776 375 132.573 375H128.469C128.266 375 128.165 374.899 128.165 374.696L128.317 362.517H125.296L118.019 374.791C117.956 374.93 117.835 375 117.658 375H112.756C112.629 375 112.547 374.968 112.509 374.905C112.471 374.829 112.484 374.734 112.547 374.62L121.496 360.256L114.2 348.78C114.137 348.666 114.124 348.577 114.162 348.514C114.2 348.438 114.282 348.4 114.409 348.4H118.722C118.899 348.4 119.02 348.47 119.083 348.609L125.22 359.021H128.298L128.184 348.704C128.184 348.501 128.285 348.4 128.488 348.4H132.573C132.776 348.4 132.877 348.501 132.877 348.704L132.763 359.021H135.879L142.016 348.609C142.092 348.47 142.212 348.4 142.377 348.4H146.69ZM174.778 374.639C174.854 374.88 174.765 375 174.512 375H170.351C170.174 375 170.06 374.918 170.009 374.753L167.615 367.59H157.203L154.866 374.753C154.828 374.918 154.714 375 154.524 375H150.439C150.186 375 150.097 374.88 150.173 374.639L159.369 348.647C159.432 348.482 159.546 348.4 159.711 348.4H165.373C165.55 348.4 165.671 348.482 165.734 348.647L174.778 374.639ZM162.333 351.573L158.343 363.885H166.418L162.333 351.573ZM178.378 375.266C177.972 375.266 177.611 375.241 177.295 375.19C176.991 375.152 176.718 375.108 176.478 375.057C176.313 375.032 176.231 374.918 176.231 374.715V371.884C176.231 371.656 176.345 371.561 176.573 371.599C176.699 371.624 176.832 371.643 176.972 371.656C177.111 371.669 177.257 371.675 177.409 371.675C178.194 371.675 178.808 371.491 179.252 371.124C179.708 370.757 180.056 370.155 180.297 369.319C180.537 368.483 180.721 367.362 180.848 365.956C180.936 364.955 181.019 363.809 181.095 362.517C181.171 361.225 181.24 359.832 181.304 358.337C181.367 356.83 181.424 355.265 181.475 353.644C181.538 352.023 181.589 350.376 181.627 348.704C181.639 348.501 181.747 348.4 181.95 348.4H199.031C199.233 348.4 199.335 348.501 199.335 348.704L199.259 362.194L199.43 374.696C199.43 374.899 199.322 375 199.107 375H195.022C194.819 375 194.718 374.899 194.718 374.696L194.794 362.194L194.699 351.877H185.75C185.712 353.182 185.661 354.499 185.598 355.829C185.534 357.159 185.465 358.451 185.389 359.705C185.325 360.959 185.256 362.124 185.18 363.201C185.116 364.278 185.053 365.215 184.99 366.013C184.812 368.052 184.527 369.762 184.135 371.143C183.742 372.511 183.096 373.543 182.197 374.24C181.31 374.924 180.037 375.266 178.378 375.266ZM215.25 375.513C212.615 375.513 210.323 374.937 208.372 373.784C206.421 372.631 204.901 371.023 203.812 368.958C202.735 366.893 202.197 364.487 202.197 361.738C202.197 358.913 202.735 356.462 203.812 354.385C204.889 352.308 206.402 350.705 208.353 349.578C210.316 348.451 212.622 347.887 215.269 347.887C217.891 347.887 220.184 348.451 222.147 349.578C224.11 350.693 225.63 352.289 226.707 354.366C227.796 356.431 228.341 358.894 228.341 361.757C228.341 364.506 227.796 366.912 226.707 368.977C225.63 371.042 224.11 372.65 222.147 373.803C220.184 374.943 217.885 375.513 215.25 375.513ZM215.288 371.922C217.023 371.922 218.505 371.517 219.734 370.706C220.975 369.883 221.919 368.717 222.565 367.21C223.211 365.69 223.534 363.872 223.534 361.757C223.534 359.642 223.211 357.818 222.565 356.285C221.919 354.74 220.975 353.555 219.734 352.732C218.505 351.896 217.011 351.478 215.25 351.478C213.489 351.478 211.995 351.89 210.766 352.713C209.537 353.524 208.6 354.702 207.954 356.247C207.321 357.78 207.004 359.616 207.004 361.757C207.004 363.86 207.327 365.671 207.973 367.191C208.632 368.711 209.582 369.883 210.823 370.706C212.064 371.517 213.553 371.922 215.288 371.922ZM242.309 375H231.422C231.22 375 231.118 374.899 231.118 374.696L231.251 361.472L231.118 348.704C231.118 348.501 231.22 348.4 231.422 348.4H242.195C243.994 348.4 245.59 348.634 246.983 349.103C248.377 349.572 249.472 350.287 250.27 351.25C251.068 352.2 251.467 353.41 251.467 354.879C251.467 356.5 251.062 357.786 250.251 358.736C249.441 359.686 248.263 360.376 246.717 360.807C248.592 361.238 249.973 362.004 250.859 363.106C251.759 364.208 252.215 365.519 252.227 367.039C252.227 368.47 251.955 369.693 251.41 370.706C250.878 371.707 250.15 372.524 249.225 373.157C248.301 373.79 247.243 374.259 246.052 374.563C244.862 374.854 243.614 375 242.309 375ZM235.83 351.687L235.716 359.382H242.214C243.646 359.382 244.767 359.078 245.577 358.47C246.401 357.862 246.812 356.899 246.812 355.582C246.812 354.252 246.375 353.27 245.501 352.637C244.627 352.004 243.532 351.687 242.214 351.687H235.83ZM235.716 362.669L235.83 371.694H242.214C243.76 371.694 245.026 371.358 246.014 370.687C247.015 370.016 247.515 368.806 247.515 367.058C247.515 365.981 247.268 365.126 246.774 364.493C246.293 363.847 245.647 363.385 244.836 363.106C244.038 362.815 243.164 362.669 242.214 362.669H235.716ZM277.34 374.639C277.416 374.88 277.328 375 277.074 375H272.913C272.736 375 272.622 374.918 272.571 374.753L270.177 367.59H259.765L257.428 374.753C257.39 374.918 257.276 375 257.086 375H253.001C252.748 375 252.659 374.88 252.735 374.639L261.931 348.647C261.995 348.482 262.109 348.4 262.273 348.4H267.935C268.113 348.4 268.233 348.482 268.296 348.647L277.34 374.639ZM264.895 351.573L260.905 363.885H268.98L264.895 351.573ZM286.565 374.696C286.565 374.899 286.464 375 286.261 375H282.024C281.809 375 281.701 374.899 281.701 374.696L281.91 361.776L281.758 351.877H274.367C274.164 351.877 274.063 351.776 274.063 351.573V348.704C274.063 348.501 274.164 348.4 274.367 348.4H293.899C294.114 348.4 294.222 348.501 294.222 348.704V351.573C294.222 351.776 294.114 351.877 293.899 351.877H286.508L286.375 361.776L286.565 374.696ZM296.915 374.981C296.712 374.981 296.611 374.873 296.611 374.658L296.744 361.757L296.611 348.685C296.611 348.482 296.712 348.381 296.915 348.381H301.019C301.234 348.381 301.342 348.482 301.342 348.685L301.247 358.356L306.13 358.337C308.524 358.337 310.474 358.679 311.982 359.363C313.502 360.034 314.623 361.003 315.345 362.27C316.067 363.524 316.428 365.012 316.428 366.735C316.428 368.559 316.016 370.085 315.193 371.314C314.369 372.53 313.179 373.448 311.621 374.069C310.075 374.677 308.213 374.981 306.035 374.981H296.915ZM301.304 371.504H306.13C307.903 371.504 309.284 371.118 310.272 370.345C311.272 369.572 311.773 368.356 311.773 366.697C311.773 365.544 311.538 364.613 311.07 363.904C310.614 363.182 309.968 362.656 309.132 362.327C308.296 361.985 307.327 361.814 306.225 361.814L301.19 361.833L301.304 371.504ZM323.694 367.172C323.694 367.375 323.593 367.476 323.39 367.476H319.457C319.254 367.476 319.153 367.375 319.153 367.172V348.704C319.153 348.501 319.254 348.4 319.457 348.4H323.39C323.593 348.4 323.694 348.501 323.694 348.704V367.172ZM323.751 374.696C323.751 374.899 323.65 375 323.447 375H319.4C319.185 375 319.077 374.899 319.077 374.696V370.668C319.077 370.453 319.185 370.345 319.4 370.345H323.447C323.65 370.345 323.751 370.453 323.751 370.668V374.696Z" fill="black"/>
<circle cx="66" cy="209" r="4" fill="#FF5029"/>
<circle cx="357" cy="455" r="4" fill="#FF5029"/>
</g>
</svg>
