<svg width="390" height="693" viewBox="0 0 390 693" fill="none" xmlns="http://www.w3.org/2000/svg">
<g clip-path="url(#clip0_119_8404)">
<rect width="390" height="693" fill="#F2F2F5"/>
<path d="M-153.765 502.068C-101.52 415.732 -41.3375 187.013 -218.565 -37.1843C-149.723 48.2946 30.4211 208.069 200.267 163.334C370.114 118.599 389.929 -99.7145 378.606 -203.279C398.345 -90.5871 469.928 165.18 598.348 286.712C709.597 391.994 788.32 383.616 824.602 359.89C829.416 355.587 834.009 351.674 838.332 348.169C834.791 352.201 830.202 356.228 824.602 359.89C751.179 425.531 626.421 582.15 623.128 772.153C619.618 974.613 717.97 1105.55 767.585 1145.71C583.523 1049.74 145.771 903.744 -132.74 1087.5C-133.245 1087.83 -133.749 1088.17 -134.251 1088.5C-139.192 1092.76 -143.932 1096.79 -148.444 1100.59C-259.055 1172.66 -410.7 1270.9 -134.251 1088.5C-32.7934 1001.06 153.344 820.737 186.516 709.955C221.304 593.779 -25.8428 522.957 -153.765 502.068Z" fill="white"/>
<rect width="392" height="632" fill="black"/>
<path d="M35.1594 -16.983C29.2914 39.3198 53.4408 169.773 196.982 241.165C141.61 214.25 11.9924 176.247 -63.4992 239.559C-138.991 302.871 -96.8455 418.392 -66.3364 468.238C-103.299 415.773 -200.78 303.1 -295.005 272.135C-376.633 245.311 -414.577 268.386 -427.315 289.101C-428.729 292.436 -430.124 295.519 -431.48 298.332C-430.647 295.439 -429.281 292.298 -427.315 289.101C-405.752 238.235 -379.893 128.928 -423.653 31.7242C-470.282 -71.8527 -551.499 -114.781 -586.279 -123.298C-469.93 -118.609 -212.884 -149.191 -115.492 -309.033C-115.315 -309.323 -115.139 -309.612 -114.963 -309.9C-113.474 -313.242 -112.034 -316.425 -110.653 -319.431C-71.7564 -382.451 -18.2936 -468.561 -114.963 -309.9C-145.54 -241.27 -196.879 -105.259 -187.223 -41.1111C-177.097 26.1605 -34.749 3.00414 35.1594 -16.983Z" fill="#F2F2F5"/>
<path d="M401.189 282.941C473.83 329.818 668.206 387.016 864.586 240.795C789.681 297.632 648.399 447.946 682.505 594.502C716.61 741.059 903.074 763.431 992.043 756.297C895.049 770.412 674.249 825.383 566.996 932.348C474.084 1025.01 479.311 1092.63 498.73 1124.29C502.296 1128.52 505.533 1132.55 508.428 1136.34C505.063 1133.21 501.728 1129.18 498.73 1124.29C444.335 1059.79 313.301 949.077 150.672 941.554C-22.6193 933.538 -137.185 1014.52 -172.806 1056.02C-86.0658 900.768 49.7975 529.51 -100.671 286.456C-100.944 286.015 -101.216 285.576 -101.487 285.137C-105.012 280.801 -108.352 276.642 -111.494 272.684C-170.474 176.178 -250.847 43.8839 -101.487 285.137C-29.1197 374.186 120.694 538.049 214.741 569.198C313.369 601.864 380.135 391.971 401.189 282.941Z" fill="#F2F2F5"/>
<circle cx="49" cy="206" r="4" fill="#FF5029"/>
<circle cx="343" cy="466" r="4" fill="#FF5029"/>
<path d="M144.691 339.655C144.514 339.655 144.425 339.566 144.425 339.389V332.777C144.425 332.587 144.514 332.492 144.691 332.492H145.945C146.464 331.935 146.863 331.225 147.142 330.364C147.433 329.503 147.649 328.445 147.788 327.191C147.902 326.292 148.003 325.215 148.092 323.961C148.181 322.707 148.257 321.371 148.32 319.952C148.396 318.521 148.453 317.108 148.491 315.715C148.491 315.525 148.586 315.43 148.776 315.43H161.753C161.93 315.43 162.019 315.525 162.019 315.715L162.076 324.702L162.247 332.492L164.432 332.473C164.622 332.473 164.717 332.568 164.717 332.758V339.389C164.717 339.566 164.622 339.655 164.432 339.655H161.905C161.728 339.655 161.639 339.566 161.639 339.389L161.544 335H147.636L147.541 339.389C147.541 339.566 147.446 339.655 147.256 339.655H144.691ZM149.308 332.492H158.789L158.751 324.683L158.637 317.976H151.417C151.341 319.673 151.246 321.364 151.132 323.049C151.031 324.721 150.917 326.127 150.79 327.267C150.638 328.572 150.435 329.617 150.182 330.402C149.941 331.175 149.65 331.871 149.308 332.492ZM174.804 335.437C172.828 335.437 171.143 335.019 169.75 334.183C168.369 333.334 167.318 332.15 166.596 330.63C165.874 329.097 165.513 327.305 165.513 325.253C165.513 323.201 165.874 321.409 166.596 319.876C167.318 318.331 168.369 317.134 169.75 316.285C171.143 315.424 172.828 314.993 174.804 314.993C176.792 314.993 178.477 315.417 179.858 316.266C181.238 317.102 182.283 318.286 182.993 319.819C183.715 321.352 184.076 323.144 184.076 325.196C184.076 327.248 183.715 329.047 182.993 330.592C182.283 332.125 181.238 333.315 179.858 334.164C178.477 335.013 176.792 335.437 174.804 335.437ZM174.804 333.024C176.716 333.024 178.141 332.353 179.079 331.01C180.029 329.655 180.504 327.736 180.504 325.253C180.504 322.783 180.029 320.858 179.079 319.477C178.129 318.096 176.697 317.406 174.785 317.406C172.872 317.406 171.434 318.096 170.472 319.477C169.522 320.858 169.047 322.789 169.047 325.272C169.047 327.742 169.528 329.655 170.491 331.01C171.466 332.353 172.904 333.024 174.804 333.024ZM196.716 316.266C198.489 316.266 199.965 316.684 201.143 317.52C202.321 318.343 203.201 319.464 203.784 320.883C204.379 322.302 204.677 323.898 204.677 325.671C204.677 327.634 204.316 329.344 203.594 330.801C202.872 332.258 201.833 333.391 200.478 334.202C199.135 335.013 197.533 335.418 195.671 335.418C193.695 335.418 192.048 334.943 190.731 333.993C189.414 333.043 188.426 331.688 187.767 329.927C187.108 328.166 186.779 326.064 186.779 323.619C186.779 319.591 187.412 316.412 188.679 314.081C189.946 311.75 192.017 310.281 194.892 309.673C195.665 309.496 196.558 309.35 197.571 309.236C198.584 309.122 199.604 309.002 200.63 308.875C201.669 308.748 202.6 308.603 203.423 308.438C203.613 308.4 203.708 308.482 203.708 308.685V310.851C203.708 311.028 203.632 311.136 203.48 311.174C202.682 311.339 201.776 311.484 200.763 311.611C199.762 311.738 198.781 311.858 197.818 311.972C196.855 312.086 196.038 312.219 195.367 312.371C194.062 312.662 193.017 313.194 192.232 313.967C191.447 314.727 190.858 315.696 190.465 316.874C190.085 318.039 189.832 319.376 189.705 320.883C190.098 319.996 190.604 319.205 191.225 318.508C191.858 317.811 192.631 317.267 193.543 316.874C194.455 316.469 195.513 316.266 196.716 316.266ZM195.69 332.986C197.425 332.986 198.768 332.359 199.718 331.105C200.668 329.838 201.143 328.097 201.143 325.88C201.143 323.663 200.687 321.915 199.775 320.636C198.876 319.344 197.571 318.698 195.861 318.698C194.202 318.698 192.865 319.319 191.852 320.56C190.851 321.801 190.351 323.575 190.351 325.88C190.351 327.286 190.554 328.521 190.959 329.585C191.364 330.649 191.96 331.485 192.745 332.093C193.543 332.688 194.525 332.986 195.69 332.986ZM217.09 315.031C218.85 315.031 220.332 315.481 221.536 316.38C222.752 317.279 223.664 318.495 224.272 320.028C224.892 321.548 225.203 323.258 225.203 325.158C225.203 327.045 224.88 328.762 224.234 330.307C223.588 331.852 222.657 333.087 221.441 334.012C220.225 334.924 218.755 335.38 217.033 335.38C214.246 335.38 212.213 334.221 210.934 331.903L210.991 341.175C210.991 341.365 210.902 341.46 210.725 341.46H207.723C207.533 341.46 207.438 341.365 207.438 341.175L207.533 326.412L207.438 315.715C207.438 315.525 207.533 315.43 207.723 315.43H210.668C210.858 315.43 210.946 315.525 210.934 315.715L210.858 318.755C211.491 317.602 212.333 316.697 213.385 316.038C214.449 315.367 215.684 315.031 217.09 315.031ZM216.14 332.948C217.394 332.948 218.426 332.631 219.237 331.998C220.06 331.352 220.668 330.465 221.061 329.338C221.466 328.198 221.669 326.887 221.669 325.405C221.669 323.847 221.472 322.473 221.08 321.282C220.687 320.079 220.085 319.148 219.275 318.489C218.477 317.818 217.457 317.482 216.216 317.482C214.544 317.482 213.22 318.115 212.245 319.382C211.282 320.649 210.788 322.53 210.763 325.025C210.75 327.533 211.212 329.484 212.15 330.877C213.087 332.258 214.417 332.948 216.14 332.948ZM236.808 335.437C234.832 335.437 233.147 335.019 231.754 334.183C230.373 333.334 229.322 332.15 228.6 330.63C227.878 329.097 227.517 327.305 227.517 325.253C227.517 323.201 227.878 321.409 228.6 319.876C229.322 318.331 230.373 317.134 231.754 316.285C233.147 315.424 234.832 314.993 236.808 314.993C238.796 314.993 240.481 315.417 241.862 316.266C243.242 317.102 244.287 318.286 244.997 319.819C245.719 321.352 246.08 323.144 246.08 325.196C246.08 327.248 245.719 329.047 244.997 330.592C244.287 332.125 243.242 333.315 241.862 334.164C240.481 335.013 238.796 335.437 236.808 335.437ZM236.808 333.024C238.72 333.024 240.145 332.353 241.083 331.01C242.033 329.655 242.508 327.736 242.508 325.253C242.508 322.783 242.033 320.858 241.083 319.477C240.133 318.096 238.701 317.406 236.789 317.406C234.876 317.406 233.438 318.096 232.476 319.477C231.526 320.858 231.051 322.789 231.051 325.272C231.051 327.742 231.532 329.655 232.495 331.01C233.47 332.353 234.908 333.024 236.808 333.024ZM108.498 356.43C108.675 356.43 108.764 356.525 108.764 356.715L108.688 365.892L108.764 375.715C108.764 375.905 108.675 376 108.498 376H105.496C105.319 376 105.23 375.905 105.23 375.715L105.306 365.892L105.249 358.976H96.1671L96.1291 365.892L96.1861 375.715C96.1861 375.905 96.0974 376 95.9201 376H92.9181C92.7407 376 92.6521 375.905 92.6521 375.715L92.7281 365.892L92.6521 356.715C92.6521 356.525 92.7407 356.43 92.9181 356.43H108.498ZM120.853 376.437C118.877 376.437 117.192 376.019 115.799 375.183C114.418 374.334 113.367 373.15 112.645 371.63C111.923 370.097 111.562 368.305 111.562 366.253C111.562 364.201 111.923 362.409 112.645 360.876C113.367 359.331 114.418 358.134 115.799 357.285C117.192 356.424 118.877 355.993 120.853 355.993C122.841 355.993 124.526 356.417 125.907 357.266C127.287 358.102 128.332 359.286 129.042 360.819C129.764 362.352 130.125 364.144 130.125 366.196C130.125 368.248 129.764 370.047 129.042 371.592C128.332 373.125 127.287 374.315 125.907 375.164C124.526 376.013 122.841 376.437 120.853 376.437ZM120.853 374.024C122.765 374.024 124.19 373.353 125.128 372.01C126.078 370.655 126.553 368.736 126.553 366.253C126.553 363.783 126.078 361.858 125.128 360.477C124.178 359.096 122.746 358.406 120.834 358.406C118.921 358.406 117.483 359.096 116.521 360.477C115.571 361.858 115.096 363.789 115.096 366.272C115.096 368.742 115.577 370.655 116.54 372.01C117.515 373.353 118.953 374.024 120.853 374.024ZM155.773 356.43C155.887 356.43 155.956 356.462 155.982 356.525C156.02 356.588 156.007 356.671 155.944 356.772L149.921 364.999L156.78 375.658C156.843 375.759 156.856 375.842 156.818 375.905C156.78 375.968 156.71 376 156.609 376H153.208C153.056 376 152.942 375.937 152.866 375.81L151.175 372.922L147.166 366.69H145.038L145.095 375.715C145.095 375.905 145.006 376 144.829 376H141.827C141.637 376 141.542 375.905 141.542 375.715L141.618 366.69H139.49L135.481 372.922L133.771 375.81C133.707 375.937 133.6 376 133.448 376H130.047C129.945 376 129.876 375.968 129.838 375.905C129.8 375.842 129.806 375.759 129.857 375.658L136.735 364.999L130.693 356.772C130.629 356.671 130.617 356.588 130.655 356.525C130.693 356.462 130.762 356.43 130.864 356.43H133.809C133.961 356.43 134.075 356.493 134.151 356.62L139.49 364.201H141.618L141.542 356.715C141.542 356.525 141.637 356.43 141.827 356.43H144.829C145.006 356.43 145.095 356.525 145.095 356.715L145.038 364.201H147.166L152.505 356.62C152.581 356.493 152.695 356.43 152.847 356.43H155.773ZM170.784 356.715C170.784 356.525 170.873 356.43 171.05 356.43H173.995C174.185 356.43 174.28 356.525 174.28 356.715L174.185 366.006L174.28 375.715C174.28 375.905 174.185 376 173.995 376H171.069C170.879 376 170.791 375.905 170.803 375.715L170.86 372.675C170.24 373.815 169.404 374.714 168.352 375.373C167.301 376.032 166.053 376.361 164.609 376.361C162.849 376.361 161.367 375.918 160.163 375.031C158.96 374.132 158.048 372.922 157.427 371.402C156.819 369.869 156.515 368.153 156.515 366.253C156.515 364.378 156.832 362.668 157.465 361.123C158.111 359.578 159.042 358.349 160.258 357.437C161.474 356.512 162.944 356.05 164.666 356.05C167.504 356.05 169.568 357.241 170.86 359.622L170.784 356.715ZM165.502 373.948C167.174 373.948 168.498 373.315 169.473 372.048C170.449 370.781 170.943 368.894 170.955 366.386C170.981 363.865 170.518 361.915 169.568 360.534C168.631 359.153 167.301 358.463 165.578 358.463C164.324 358.45 163.286 358.767 162.462 359.413C161.652 360.046 161.044 360.933 160.638 362.073C160.246 363.213 160.049 364.524 160.049 366.006C160.049 367.564 160.246 368.945 160.638 370.148C161.031 371.351 161.633 372.289 162.443 372.96C163.254 373.631 164.274 373.961 165.502 373.948ZM178.365 376.285C178.074 376.285 177.814 376.266 177.586 376.228C177.358 376.19 177.149 376.146 176.959 376.095C176.82 376.057 176.75 375.956 176.75 375.791V373.929C176.75 373.726 176.851 373.644 177.054 373.682C177.168 373.707 177.282 373.726 177.396 373.739C177.51 373.752 177.624 373.758 177.738 373.758C178.511 373.758 179.062 373.479 179.391 372.922C179.733 372.365 179.967 371.313 180.094 369.768C180.157 369.084 180.221 368.229 180.284 367.203C180.347 366.164 180.404 365.043 180.455 363.84C180.506 362.624 180.556 361.402 180.607 360.173C180.658 358.932 180.702 357.773 180.74 356.696C180.74 356.506 180.829 356.411 181.006 356.411H194.173C194.35 356.411 194.439 356.506 194.439 356.696L194.42 366.044L194.553 375.715C194.553 375.892 194.464 375.981 194.287 375.981L191.285 376.019C191.108 376.019 191.019 375.924 191.019 375.734V366.044L190.924 358.938H183.666C183.628 359.698 183.584 360.572 183.533 361.56C183.495 362.535 183.444 363.549 183.381 364.6C183.33 365.639 183.28 366.627 183.229 367.564C183.178 368.501 183.121 369.318 183.058 370.015C182.957 371.358 182.76 372.498 182.469 373.435C182.178 374.36 181.709 375.069 181.063 375.563C180.417 376.044 179.518 376.285 178.365 376.285ZM206.568 376.437C204.592 376.437 202.907 376.019 201.514 375.183C200.133 374.334 199.082 373.15 198.36 371.63C197.638 370.097 197.277 368.305 197.277 366.253C197.277 364.201 197.638 362.409 198.36 360.876C199.082 359.331 200.133 358.134 201.514 357.285C202.907 356.424 204.592 355.993 206.568 355.993C208.556 355.993 210.241 356.417 211.622 357.266C213.002 358.102 214.047 359.286 214.757 360.819C215.479 362.352 215.84 364.144 215.84 366.196C215.84 368.248 215.479 370.047 214.757 371.592C214.047 373.125 213.002 374.315 211.622 375.164C210.241 376.013 208.556 376.437 206.568 376.437ZM206.568 374.024C208.48 374.024 209.905 373.353 210.843 372.01C211.793 370.655 212.268 368.736 212.268 366.253C212.268 363.783 211.793 361.858 210.843 360.477C209.893 359.096 208.461 358.406 206.549 358.406C204.636 358.406 203.198 359.096 202.236 360.477C201.286 361.858 200.811 363.789 200.811 366.272C200.811 368.742 201.292 370.655 202.255 372.01C203.23 373.353 204.668 374.024 206.568 374.024ZM230.198 365.493V365.531C231.857 365.898 233.041 366.494 233.751 367.317C234.473 368.14 234.834 369.198 234.834 370.49C234.834 371.617 234.587 372.542 234.093 373.264C233.599 373.986 232.946 374.55 232.136 374.955C231.338 375.348 230.47 375.62 229.533 375.772C228.608 375.924 227.702 376 226.816 376H218.893C218.715 376 218.627 375.905 218.627 375.715L218.703 365.892L218.646 356.715C218.646 356.525 218.734 356.43 218.912 356.43H226.778C229.146 356.43 230.983 356.829 232.288 357.627C233.592 358.412 234.245 359.622 234.245 361.256C234.245 362.434 233.877 363.365 233.143 364.049C232.421 364.733 231.439 365.214 230.198 365.493ZM226.721 358.824H222.085L222.066 364.524H226.74C227.994 364.524 228.975 364.302 229.685 363.859C230.407 363.416 230.768 362.681 230.768 361.655C230.768 360.705 230.4 359.996 229.666 359.527C228.931 359.058 227.949 358.824 226.721 358.824ZM222.085 373.606H226.74C228.12 373.606 229.229 373.34 230.065 372.808C230.901 372.263 231.319 371.396 231.319 370.205C231.319 369.42 231.11 368.78 230.692 368.286C230.274 367.792 229.716 367.431 229.02 367.203C228.336 366.962 227.582 366.842 226.759 366.842H222.066L222.085 373.606ZM251.155 356.715C251.155 356.525 251.244 356.43 251.421 356.43H254.366C254.556 356.43 254.651 356.525 254.651 356.715L254.556 366.006L254.651 375.715C254.651 375.905 254.556 376 254.366 376H251.44C251.25 376 251.162 375.905 251.174 375.715L251.231 372.675C250.611 373.815 249.775 374.714 248.723 375.373C247.672 376.032 246.424 376.361 244.98 376.361C243.22 376.361 241.738 375.918 240.534 375.031C239.331 374.132 238.419 372.922 237.798 371.402C237.19 369.869 236.886 368.153 236.886 366.253C236.886 364.378 237.203 362.668 237.836 361.123C238.482 359.578 239.413 358.349 240.629 357.437C241.845 356.512 243.315 356.05 245.037 356.05C247.875 356.05 249.939 357.241 251.231 359.622L251.155 356.715ZM245.873 373.948C247.545 373.948 248.869 373.315 249.844 372.048C250.82 370.781 251.314 368.894 251.326 366.386C251.352 363.865 250.889 361.915 249.939 360.534C249.002 359.153 247.672 358.463 245.949 358.463C244.695 358.45 243.657 358.767 242.833 359.413C242.023 360.046 241.415 360.933 241.009 362.073C240.617 363.213 240.42 364.524 240.42 366.006C240.42 367.564 240.617 368.945 241.009 370.148C241.402 371.351 242.004 372.289 242.814 372.96C243.625 373.631 244.645 373.961 245.873 373.948ZM273.803 356.43C273.98 356.43 274.069 356.525 274.069 356.715V358.691C274.069 358.881 273.98 358.976 273.803 358.976H267.324L267.286 365.892L267.362 375.715C267.362 375.905 267.267 376 267.077 376H264.075C263.898 376 263.809 375.905 263.809 375.715L263.885 365.892L263.828 358.976H257.387C257.197 358.976 257.102 358.881 257.102 358.691V356.715C257.102 356.525 257.197 356.43 257.387 356.43H273.803ZM280.045 363.802H283.427C286.099 363.802 288.151 364.29 289.583 365.265C291.014 366.228 291.73 367.754 291.73 369.844C291.73 371.985 291.001 373.549 289.545 374.537C288.101 375.512 286.061 376 283.427 376H276.815C276.637 376 276.549 375.905 276.549 375.715L276.625 366.424L276.568 356.696C276.568 356.506 276.656 356.411 276.834 356.411H279.836C280.013 356.411 280.102 356.506 280.102 356.696L280.045 363.802ZM280.064 373.606H283.427C284.909 373.606 286.074 373.327 286.923 372.77C287.771 372.213 288.196 371.269 288.196 369.939C288.196 368.685 287.803 367.748 287.018 367.127C286.245 366.494 285.048 366.177 283.427 366.177H280.026L280.064 373.606ZM298.102 368.381C298.102 368.571 298.007 368.666 297.817 368.666H294.91C294.72 368.666 294.625 368.571 294.625 368.381V349.685C294.625 349.495 294.72 349.4 294.91 349.4H297.817C298.007 349.4 298.102 349.495 298.102 349.685V368.381ZM298.216 375.715C298.216 375.905 298.121 376 297.931 376H294.777C294.587 376 294.492 375.905 294.492 375.715V372.428C294.492 372.238 294.587 372.143 294.777 372.143H297.931C298.121 372.143 298.216 372.238 298.216 372.428V375.715Z" fill="white"/>
</g>
<defs>
<clipPath id="clip0_119_8404">
<rect width="390" height="693" fill="white"/>
</clipPath>
</defs>
</svg>
