<svg width="390" height="472" viewBox="0 0 390 472" fill="none" xmlns="http://www.w3.org/2000/svg">
<g clip-path="url(#clip0_381_5733)">
<rect width="390" height="472" rx="32" fill="white"/>
<path d="M-20.2351 322.811C-56.4989 235.024 -196.236 61.7391 -465.073 70.8964C-361.865 66.4421 -140.222 19.1116 -79.3113 -134.576C-18.4009 -288.264 -172.785 -425.148 -257.591 -474.379C-161.17 -426.431 72.6189 -337.904 236.407 -367.384C378.296 -392.922 415.891 -457.258 418.165 -497.998C417.59 -504.048 417.189 -509.713 416.946 -514.946C418.025 -510.012 418.515 -504.286 418.165 -497.998C426.924 -405.713 475.972 -223.738 618.125 -115.178C769.597 0.499293 923.731 -0.941872 981.863 -16.1221C806.386 69.7939 451.378 320.037 435.164 633.68C435.134 634.249 435.105 634.816 435.076 635.382C435.545 641.504 435.959 647.35 436.319 652.89C429.191 776.946 418.987 946.707 435.076 635.382C425.448 509.683 392.699 267.962 327.262 180.982C258.639 89.7659 67.0042 237.528 -20.2351 322.811Z" fill="black"/>
<line x1="427.332" y1="151.943" x2="265.332" y2="208.943" stroke="white" stroke-width="2" stroke-dasharray="4 4"/>
<path d="M31.4136 296.092C30.9271 294.858 30.4508 293.615 29.9849 292.362L30.9222 292.013C30.6904 291.39 30.4612 290.765 30.2346 290.137C30.0081 289.509 29.785 288.881 29.5654 288.254L28.6215 288.584C28.1801 287.323 27.7527 286.062 27.3391 284.801L28.2892 284.49C27.8731 283.222 27.4711 281.955 27.0831 280.689L26.127 280.982C25.7351 279.703 25.3573 278.425 24.9938 277.149L25.9555 276.875C25.5906 275.594 25.24 274.315 24.9038 273.038L23.9367 273.292C23.5953 271.996 23.2685 270.701 22.9563 269.409L23.9283 269.174C23.6157 267.881 23.3178 266.59 23.0344 265.302L22.0577 265.517C21.7698 264.208 21.4968 262.902 21.2387 261.6L22.2196 261.405C21.9603 260.097 21.716 258.792 21.4867 257.491L20.5019 257.664C20.2697 256.346 20.0527 255.032 19.851 253.723L20.8393 253.571C20.6363 252.253 20.4487 250.94 20.2766 249.631L19.2851 249.762C19.11 248.431 18.9507 247.106 18.8071 245.786L19.8013 245.678C19.6572 244.354 19.5291 243.035 19.4168 241.723L18.4205 241.809C18.3062 240.473 18.2081 239.144 18.1262 237.822L19.1243 237.76C19.0417 236.427 18.9757 235.101 18.9261 233.782L17.9268 233.82C17.8763 232.48 17.8427 231.147 17.8258 229.822L18.8258 229.81C18.8088 228.479 18.8089 227.157 18.8258 225.844L17.8259 225.831C17.8433 224.486 17.8782 223.151 17.9306 221.826L18.9298 221.865C18.9825 220.531 19.0531 219.207 19.1413 217.894L18.1436 217.827C18.2335 216.488 18.3418 215.159 18.4682 213.843L19.4637 213.938C19.5909 212.613 19.7366 211.3 19.9006 210L18.9085 209.875C19.0769 208.54 19.2646 207.218 19.4714 205.91L20.4591 206.066C20.6676 204.747 20.8956 203.442 21.143 202.153L20.1609 201.965C20.4144 200.644 20.6881 199.338 20.9818 198.049L21.9568 198.271C22.2528 196.972 22.5693 195.69 22.906 194.426L21.9397 194.168C22.2857 192.87 22.6529 191.59 23.0412 190.329L23.9969 190.623C24.389 189.35 24.8027 188.097 25.2378 186.866L24.2949 186.533C24.7441 185.262 25.2159 184.012 25.7101 182.786L26.6376 183.16C27.1358 181.924 27.6568 180.712 28.2006 179.525L27.2914 179.109C27.8526 177.884 28.4377 176.685 29.0468 175.513L29.9341 175.975C30.5471 174.795 31.1844 173.644 31.8455 172.522L30.984 172.014C31.6674 170.854 32.3764 169.725 33.1105 168.627L33.9418 169.183C34.6788 168.081 35.4412 167.012 36.2287 165.977L35.433 165.372C36.2473 164.302 37.0885 163.267 37.9562 162.27L38.7107 162.926C39.5773 161.93 40.4704 160.971 41.3897 160.052L40.6826 159.345C41.631 158.397 42.6073 157.489 43.6111 156.623L44.2643 157.38C45.2589 156.522 46.2807 155.707 47.3292 154.935L46.7365 154.13C47.8125 153.338 48.9166 152.591 50.0485 151.891L50.5746 152.742C51.6848 152.055 52.8219 151.414 53.9858 150.82L53.5315 149.93C54.7156 149.326 55.9269 148.77 57.1651 148.264L57.5436 149.189C58.1477 148.942 58.7585 148.707 59.3758 148.485C59.993 148.262 60.6131 148.053 61.2358 147.857L60.9359 146.903C62.2121 146.502 63.4992 146.156 64.7959 145.864L65.0152 146.84C66.2898 146.554 67.5742 146.321 68.8671 146.14L68.7289 145.15C70.047 144.966 71.3736 144.835 72.7073 144.758L72.7655 145.756C74.0651 145.68 75.3721 145.655 76.6854 145.68L76.7045 144.68C78.0299 144.706 79.3609 144.781 80.6964 144.905L80.6039 145.901C81.8982 146.021 83.1975 146.188 84.5007 146.401L84.6622 145.415C85.967 145.628 87.2749 145.887 88.5848 146.19L88.3592 147.164C89.626 147.458 90.8954 147.794 92.1662 148.171L92.4508 147.212C93.7168 147.588 94.9836 148.004 96.2502 148.461L95.9114 149.401C97.1366 149.843 98.3623 150.322 99.5874 150.838L99.9757 149.916C101.193 150.429 102.409 150.978 103.623 151.562L103.189 152.463C104.365 153.029 105.54 153.629 106.713 154.262L107.188 153.382C108.351 154.01 109.512 154.67 110.669 155.362L110.156 156.22C111.278 156.89 112.396 157.59 113.511 158.319L114.058 157.482C115.162 158.205 116.262 158.955 117.358 159.734L116.779 160.549C117.845 161.307 118.907 162.091 119.965 162.902L120.573 162.108C121.622 162.913 122.667 163.743 123.705 164.597L123.07 165.369C124.084 166.204 125.092 167.062 126.095 167.944L126.756 167.193C127.75 168.068 128.738 168.965 129.721 169.885L129.037 170.615C129.994 171.51 130.944 172.428 131.888 173.366L132.593 172.657C133.531 173.589 134.463 174.543 135.388 175.516L134.663 176.205C135.569 177.159 136.469 178.132 137.361 179.125L138.105 178.457C138.992 179.443 139.871 180.449 140.743 181.472L139.982 182.121C140.833 183.12 141.678 184.138 142.514 185.172L143.292 184.544C144.125 185.574 144.95 186.621 145.767 187.685L144.974 188.294C145.778 189.34 146.574 190.403 147.362 191.482L148.17 190.892C148.951 191.962 149.724 193.047 150.489 194.147L149.668 194.718C150.419 195.799 151.162 196.896 151.897 198.007L152.731 197.455C153.464 198.562 154.187 199.684 154.902 200.82L154.056 201.353C154.759 202.469 155.453 203.6 156.139 204.744L156.997 204.23C157.678 205.366 158.35 206.516 159.012 207.678L158.144 208.173C158.798 209.321 159.444 210.481 160.08 211.654L160.959 211.177C161.592 212.344 162.216 213.524 162.83 214.715L161.941 215.173C162.545 216.345 163.141 217.529 163.726 218.724L164.624 218.284C165.209 219.478 165.784 220.682 166.349 221.898L165.443 222.32C165.999 223.517 166.546 224.726 167.084 225.944L167.999 225.541C168.534 226.755 169.059 227.98 169.574 229.214L168.651 229.599C169.161 230.821 169.661 232.053 170.15 233.294L171.081 232.928C171.567 234.162 172.044 235.405 172.509 236.657L171.572 237.006C171.804 237.629 172.033 238.255 172.26 238.883C172.486 239.51 172.709 240.138 172.929 240.766L173.873 240.435C174.314 241.697 174.742 242.958 175.155 244.218L174.205 244.53C174.621 245.798 175.023 247.065 175.411 248.331L176.367 248.038C176.759 249.317 177.137 250.594 177.501 251.871L176.539 252.145C176.904 253.425 177.254 254.704 177.591 255.982L178.558 255.727C178.899 257.024 179.226 258.318 179.538 259.61L178.566 259.845C178.879 261.139 179.177 262.43 179.46 263.718L180.437 263.503C180.724 264.811 180.997 266.117 181.256 267.42L180.275 267.614C180.534 268.923 180.778 270.228 181.008 271.529L181.992 271.355C182.225 272.673 182.442 273.987 182.643 275.296L181.655 275.449C181.858 276.766 182.046 278.08 182.218 279.388L183.209 279.258C183.384 280.588 183.544 281.914 183.687 283.234L182.693 283.342C182.837 284.666 182.965 285.984 183.077 287.296L184.074 287.211C184.188 288.546 184.286 289.875 184.368 291.197L183.37 291.259C183.453 292.592 183.519 293.918 183.568 295.237L184.568 295.199C184.618 296.54 184.652 297.873 184.668 299.197L183.669 299.21C183.685 300.54 183.685 301.863 183.668 303.176L184.668 303.188C184.651 304.533 184.616 305.868 184.564 307.194L183.565 307.154C183.512 308.488 183.441 309.812 183.353 311.125L184.351 311.192C184.261 312.532 184.152 313.86 184.026 315.177L183.031 315.081C182.903 316.406 182.758 317.719 182.594 319.019L183.586 319.144C183.417 320.48 183.23 321.801 183.023 323.109L182.035 322.953C181.827 324.272 181.599 325.577 181.351 326.866L182.333 327.055C182.08 328.376 181.806 329.681 181.513 330.97L180.538 330.748C180.241 332.047 179.925 333.329 179.588 334.594L180.555 334.851C180.209 336.15 179.841 337.43 179.453 338.69L178.497 338.396C178.105 339.669 177.692 340.922 177.256 342.154L178.199 342.487C177.75 343.758 177.278 345.007 176.784 346.233L175.857 345.86C175.359 347.095 174.837 348.307 174.294 349.494L175.203 349.911C174.642 351.135 174.057 352.334 173.448 353.506L172.56 353.045C171.947 354.224 171.31 355.376 170.649 356.498L171.51 357.005C170.827 358.165 170.118 359.295 169.384 360.392L168.553 359.836C167.816 360.938 167.053 362.007 166.266 363.042L167.061 363.648C166.247 364.717 165.406 365.752 164.538 366.75L163.784 366.093C162.917 367.09 162.024 368.048 161.105 368.967L161.812 369.674C160.863 370.623 159.887 371.531 158.883 372.396L158.23 371.639C157.235 372.497 156.214 373.312 155.165 374.084L155.758 374.889C154.682 375.681 153.578 376.428 152.446 377.128L151.92 376.278C150.81 376.965 149.672 377.605 148.509 378.199L148.963 379.09C147.779 379.694 146.567 380.249 145.329 380.756L144.951 379.83C144.347 380.077 143.736 380.312 143.119 380.535C142.501 380.758 141.881 380.967 141.259 381.162L141.558 382.116C140.282 382.518 138.995 382.863 137.698 383.155L137.479 382.179C136.204 382.466 134.92 382.699 133.627 382.879L133.765 383.87C132.447 384.054 131.121 384.184 129.787 384.262L129.729 383.264C128.429 383.339 127.122 383.364 125.809 383.339L125.79 384.339C124.464 384.314 123.133 384.239 121.798 384.115L121.89 383.119C120.596 382.999 119.297 382.831 117.994 382.618L117.832 383.605C116.527 383.391 115.219 383.132 113.909 382.829L114.135 381.855C112.868 381.562 111.599 381.226 110.328 380.849L110.043 381.807C108.778 381.431 107.511 381.015 106.244 380.559L106.583 379.618C105.358 379.177 104.132 378.698 102.907 378.181L102.519 379.103C101.302 378.59 100.086 378.041 98.8718 377.457L99.3054 376.556C98.1291 375.99 96.9543 375.39 95.7817 374.757L95.3067 375.637C94.1432 375.009 92.9824 374.349 91.825 373.658L92.3379 372.799C91.2166 372.129 90.0982 371.429 88.9835 370.7L88.436 371.537C87.3321 370.815 86.232 370.064 85.1364 369.286L85.7157 368.47C84.6493 367.713 83.587 366.928 82.5295 366.118L81.9211 366.911C80.8719 366.107 79.8277 365.277 78.7889 364.422L79.4243 363.65C78.4106 362.816 77.4021 361.957 76.3992 361.075L75.7388 361.826C74.7445 360.952 73.7559 360.054 72.7737 359.135L73.4572 358.405C72.5008 357.509 71.5502 356.592 70.6061 355.653L69.9011 356.362C68.963 355.43 68.0314 354.477 67.1067 353.503L67.8317 352.815C66.9254 351.861 66.0257 350.887 65.1331 349.894L64.3894 350.562C63.5027 349.576 62.6231 348.571 61.7511 347.547L62.5124 346.899C61.6608 345.899 60.8165 344.882 59.9798 343.847L59.2022 344.476C58.3693 343.446 57.5441 342.398 56.7269 341.335L57.5199 340.726C56.7161 339.679 55.92 338.616 55.1322 337.538L54.3247 338.128C53.5433 337.058 52.7701 335.972 52.0054 334.872L52.8266 334.301C52.0751 333.22 51.3319 332.124 50.5973 331.013L49.7632 331.565C49.0308 330.457 48.3069 329.335 47.5919 328.199L48.4382 327.667C47.7352 326.55 47.0408 325.42 46.3555 324.276L45.4977 324.79C44.8168 323.653 44.1447 322.504 43.4819 321.341L44.3505 320.846C43.696 319.698 43.0506 318.538 42.4145 317.365L41.5355 317.842C40.9025 316.675 40.2787 315.496 39.6645 314.305L40.5533 313.847C39.9488 312.674 39.3537 311.491 38.7683 310.296L37.8703 310.736C37.2854 309.542 36.7102 308.337 36.1449 307.121L37.0517 306.7C36.4949 305.502 35.9478 304.294 35.4107 303.075L34.4956 303.478C33.9605 302.264 33.4352 301.04 32.9201 299.805L33.843 299.42C33.3332 298.198 32.8334 296.966 32.3439 295.725L31.4136 296.092Z" stroke="white" stroke-width="2" stroke-dasharray="4 4"/>
<path d="M40.7621 241.181C41.0552 239.921 41.3631 238.659 41.6861 237.395L42.6549 237.643C42.8154 237.015 42.9796 236.387 43.1476 235.758C43.3155 235.129 43.4865 234.503 43.6605 233.878L42.6973 233.61C43.0475 232.353 43.4099 231.106 43.7841 229.868L44.7414 230.157C45.1178 228.912 45.5063 227.676 45.9064 226.45L44.9557 226.14C45.3614 224.896 45.7791 223.663 46.2083 222.441L47.1519 222.772C47.5819 221.547 48.0237 220.332 48.4769 219.129L47.541 218.776C48.0014 217.553 48.4734 216.341 48.9568 215.141L49.8844 215.514C50.3706 214.307 50.8682 213.111 51.3769 211.927L50.4581 211.533C50.9745 210.331 51.5022 209.142 52.041 207.965L52.9502 208.381C53.4907 207.201 54.0424 206.033 54.6047 204.879L53.7057 204.441C54.2789 203.264 54.8632 202.101 55.4582 200.952L56.3462 201.412C56.9448 200.255 57.5543 199.114 58.1742 197.986L57.2979 197.505C57.9288 196.357 58.5704 195.225 59.2224 194.109L60.0859 194.613C60.7411 193.491 61.4067 192.385 62.0823 191.295L61.2323 190.768C61.9216 189.656 62.6213 188.56 63.3309 187.482L64.1662 188.032C64.8826 186.943 65.609 185.872 66.3449 184.82L65.5253 184.247C66.277 183.172 67.0387 182.116 67.8098 181.079L68.6122 181.676C69.3887 180.631 70.1747 179.607 70.9697 178.603L70.1858 177.982C70.9996 176.955 71.8229 175.948 72.655 174.963L73.4189 175.608C74.2577 174.615 75.1055 173.645 75.9615 172.697L75.2195 172.027C76.0988 171.053 76.987 170.103 77.8835 169.178L78.6018 169.874C79.5081 168.938 80.4226 168.027 81.3448 167.143L80.6526 166.421C81.6014 165.511 82.5585 164.628 83.523 163.773L84.1865 164.521C85.1601 163.657 86.141 162.823 87.1286 162.017L86.4966 161.242C87.5157 160.411 88.5421 159.611 89.575 158.842L90.1721 159.644C91.2147 158.868 92.2636 158.125 93.3179 157.415L92.7594 156.585C93.8505 155.851 94.9478 155.151 96.0504 154.488L96.566 155.345C97.6779 154.675 98.7946 154.044 99.9151 153.45L99.4471 152.567C100.61 151.951 101.777 151.376 102.947 150.842L103.362 151.752C104.54 151.215 105.72 150.721 106.903 150.27L106.546 149.336C107.774 148.868 109.005 148.446 110.237 148.072L110.528 149.028C111.761 148.653 112.994 148.327 114.227 148.05L114.008 147.074C115.286 146.787 116.565 146.552 117.844 146.369L117.985 147.359C119.253 147.178 120.519 147.051 121.783 146.978L121.725 145.98C123.029 145.904 124.33 145.886 125.627 145.926L125.597 146.926C126.867 146.965 128.134 147.061 129.395 147.216L129.517 146.223C130.804 146.381 132.086 146.598 133.362 146.876L133.149 147.853C133.769 147.988 134.388 148.138 135.004 148.303C135.621 148.468 136.232 148.646 136.837 148.838L137.14 147.885C138.384 148.28 139.604 148.731 140.798 149.236L140.409 150.158C141.579 150.652 142.725 151.201 143.846 151.8L144.318 150.919C145.462 151.531 146.581 152.196 147.673 152.911L147.126 153.748C148.184 154.441 149.219 155.183 150.228 155.972L150.844 155.184C151.861 155.98 152.852 156.822 153.817 157.708L153.14 158.445C154.071 159.3 154.977 160.198 155.859 161.137L156.588 160.453C157.469 161.392 158.326 162.371 159.157 163.389L158.382 164.022C159.182 165.002 159.959 166.019 160.712 167.071L161.525 166.49C162.274 167.536 162.998 168.617 163.699 169.73L162.853 170.263C163.528 171.336 164.181 172.44 164.811 173.575L165.685 173.089C166.31 174.214 166.912 175.367 167.492 176.548L166.594 176.989C167.154 178.13 167.692 179.297 168.209 180.49L169.127 180.092C169.639 181.274 170.129 182.48 170.598 183.708L169.664 184.065C170.118 185.255 170.552 186.468 170.966 187.702L171.914 187.384C172.323 188.607 172.713 189.849 173.081 191.111L172.121 191.392C172.48 192.618 172.818 193.863 173.137 195.126L174.107 194.882C174.422 196.131 174.719 197.397 174.995 198.679L174.018 198.89C174.287 200.139 174.538 201.403 174.77 202.682L175.754 202.503C175.984 203.772 176.196 205.055 176.389 206.352L175.399 206.499C175.588 207.766 175.758 209.045 175.911 210.338L176.904 210.221C177.055 211.504 177.189 212.799 177.304 214.106L176.308 214.194C176.421 215.473 176.517 216.764 176.595 218.064L177.593 218.004C177.671 219.293 177.731 220.591 177.774 221.899L176.774 221.932C176.816 223.213 176.842 224.504 176.85 225.804L177.85 225.797C177.858 227.09 177.85 228.391 177.825 229.7L176.825 229.681C176.8 230.967 176.759 232.261 176.701 233.561L177.7 233.606C177.643 234.899 177.569 236.198 177.479 237.504L176.482 237.435C176.394 238.716 176.289 240.003 176.169 241.296L177.165 241.389C177.045 242.677 176.91 243.971 176.758 245.27L175.765 245.155C175.615 246.434 175.45 247.719 175.27 249.008L176.26 249.147C176.08 250.428 175.885 251.714 175.674 253.004L174.687 252.843C174.48 254.112 174.257 255.385 174.019 256.661L175.002 256.845C174.764 258.119 174.512 259.396 174.243 260.676L173.265 260.47C173 261.733 172.72 262.998 172.426 264.265L173.4 264.491C173.107 265.751 172.799 267.013 172.476 268.277L171.507 268.029C171.346 268.657 171.182 269.286 171.014 269.914C170.846 270.543 170.675 271.17 170.501 271.794L171.465 272.062C171.114 273.319 170.752 274.566 170.378 275.804L169.42 275.515C169.044 276.761 168.656 277.997 168.255 279.223L169.206 279.533C168.8 280.776 168.383 282.009 167.954 283.232L167.01 282.9C166.58 284.125 166.138 285.34 165.685 286.544L166.621 286.896C166.16 288.119 165.688 289.331 165.205 290.532L164.277 290.158C163.791 291.366 163.294 292.561 162.785 293.745L163.704 294.14C163.187 295.341 162.66 296.531 162.121 297.707L161.212 297.291C160.671 298.472 160.119 299.639 159.557 300.794L160.456 301.232C159.883 302.408 159.299 303.571 158.704 304.721L157.816 304.261C157.217 305.417 156.608 306.559 155.988 307.686L156.864 308.168C156.233 309.315 155.591 310.447 154.939 311.564L154.076 311.059C153.421 312.182 152.755 313.288 152.08 314.378L152.93 314.905C152.24 316.017 151.541 317.112 150.831 318.19L149.996 317.641C149.279 318.729 148.553 319.8 147.817 320.852L148.637 321.425C147.885 322.5 147.123 323.557 146.352 324.594L145.55 323.997C144.773 325.041 143.987 326.065 143.192 327.069L143.976 327.69C143.162 328.718 142.339 329.724 141.507 330.709L140.743 330.064C139.904 331.057 139.056 332.028 138.2 332.975L138.942 333.646C138.063 334.619 137.175 335.569 136.278 336.495L135.56 335.799C134.654 336.735 133.739 337.645 132.817 338.529L133.509 339.251C132.56 340.161 131.603 341.044 130.639 341.9L129.975 341.152C129.002 342.015 128.021 342.85 127.033 343.655L127.665 344.43C126.646 345.261 125.62 346.061 124.587 346.83L123.99 346.028C122.947 346.804 121.898 347.548 120.844 348.257L121.402 349.087C120.311 349.822 119.214 350.521 118.111 351.185L117.596 350.328C116.484 350.997 115.367 351.629 114.247 352.222L114.715 353.106C113.552 353.721 112.385 354.296 111.215 354.83L110.8 353.921C109.622 354.458 108.442 354.952 107.259 355.402L107.615 356.337C106.388 356.804 105.157 357.226 103.925 357.601L103.634 356.644C102.401 357.019 101.168 357.345 99.9348 357.622L100.154 358.598C98.8754 358.885 97.5964 359.121 96.3183 359.303L96.177 358.313C94.9089 358.494 93.6425 358.622 92.3791 358.694L92.4366 359.693C91.1331 359.768 89.8319 359.786 88.5344 359.746L88.5652 358.747C87.2944 358.708 86.0278 358.611 84.7665 358.457L84.6449 359.449C83.3576 359.292 82.0755 359.074 80.7999 358.796L81.0129 357.819C80.3928 357.684 79.7742 357.534 79.1574 357.369C78.5406 357.205 77.9298 357.026 77.3249 356.834L77.0222 357.787C75.778 357.392 74.5583 356.941 73.3638 356.436L73.7533 355.515C72.583 355.02 71.4371 354.472 70.3161 353.872L69.8443 354.754C68.6998 354.141 67.581 353.477 66.4886 352.761L67.0363 351.925C65.9774 351.232 64.9433 350.49 63.9343 349.7L63.3182 350.488C62.3013 349.693 61.3101 348.851 60.3451 347.964L61.0216 347.228C60.091 346.373 59.1846 345.475 58.3031 344.535L57.5738 345.219C56.6926 344.28 55.8363 343.301 55.0053 342.283L55.7799 341.651C54.9797 340.671 54.203 339.654 53.4501 338.601L52.6368 339.183C51.8882 338.136 51.1634 337.056 50.4628 335.942L51.3091 335.41C50.6337 334.337 49.9808 333.232 49.3507 332.098L48.4765 332.583C47.8517 331.458 47.2494 330.305 46.67 329.124L47.5677 328.684C47.0079 327.543 46.4694 326.375 45.9527 325.182L45.0351 325.58C44.5232 324.398 44.0326 323.193 43.5637 321.964L44.4979 321.608C44.0435 320.417 43.6095 319.205 43.1962 317.971L42.248 318.288C41.8385 317.066 41.4493 315.823 41.0807 314.561L42.0406 314.281C41.6823 313.054 41.3435 311.809 41.0246 310.546L40.055 310.791C39.7395 309.542 39.4432 308.275 39.1665 306.993L40.144 306.782C39.8746 305.534 39.6238 304.27 39.3919 302.991L38.4079 303.169C38.1779 301.9 37.9662 300.617 37.7733 299.32L38.7624 299.173C38.5739 297.907 38.4034 296.627 38.251 295.335L37.2579 295.452C37.1066 294.168 36.9731 292.873 36.8576 291.566L37.8537 291.478C37.7406 290.199 37.6449 288.909 37.5668 287.608L36.5686 287.668C36.4912 286.38 36.431 285.081 36.3881 283.773L37.3876 283.741C37.3455 282.459 37.3203 281.168 37.3119 279.869L36.3119 279.875C36.3037 278.582 36.312 277.281 36.3372 275.972L37.337 275.991C37.3618 274.705 37.4029 273.412 37.4606 272.111L36.4616 272.067C36.5189 270.774 36.5925 269.474 36.6824 268.168L37.6801 268.237C37.7683 266.956 37.8724 265.669 37.9926 264.376L36.9969 264.284C37.1167 262.995 37.2523 261.701 37.4039 260.402L38.3971 260.518C38.5465 259.238 38.7114 257.954 38.8922 256.664L37.9018 256.526C38.0815 255.244 38.2767 253.958 38.4875 252.668L39.4744 252.83C39.6819 251.56 39.9046 250.287 40.1428 249.011L39.1597 248.828C39.3974 247.554 39.6502 246.277 39.9185 244.997L40.8972 245.202C41.1618 243.94 41.4414 242.675 41.7361 241.407L40.7621 241.181Z" stroke="white" stroke-width="2" stroke-dasharray="4 4"/>
<circle cx="330" cy="186" r="4" fill="#FF5029"/>
<circle cx="37" cy="272" r="4" fill="#FF5029"/>
<circle cx="148" cy="192" r="4" fill="#FF5029"/>
</g>
<defs>
<clipPath id="clip0_381_5733">
<rect width="390" height="472" rx="32" fill="white"/>
</clipPath>
</defs>
</svg>
