<svg width="856" height="832" viewBox="0 0 856 832" fill="none" xmlns="http://www.w3.org/2000/svg">
<path d="M577.174 319.567C577.529 320.132 577.884 320.698 578.238 321.266L577.813 321.53C577.99 321.814 578.166 322.097 578.342 322.381C578.458 322.568 578.574 322.755 578.69 322.942C578.749 323.039 578.809 323.136 578.869 323.233L579.295 322.97C579.646 323.539 579.996 324.108 580.344 324.678L579.917 324.939C580.265 325.508 580.612 326.077 580.957 326.646L581.384 326.387C581.729 326.957 582.073 327.527 582.416 328.098L581.987 328.355C582.329 328.925 582.67 329.495 583.009 330.066L583.438 329.81C583.778 330.381 584.116 330.953 584.452 331.524L584.021 331.778C584.358 332.349 584.692 332.92 585.025 333.491L585.457 333.24C585.791 333.812 586.123 334.385 586.454 334.957L586.021 335.207C586.356 335.786 586.688 336.366 587.02 336.945L587.454 336.697C587.785 337.277 588.115 337.857 588.444 338.437L588.009 338.683C588.337 339.263 588.664 339.843 588.989 340.423L589.425 340.179C589.751 340.76 590.075 341.341 590.398 341.922L589.961 342.165C590.283 342.745 590.604 343.326 590.923 343.907L591.361 343.666C591.681 344.247 591.999 344.829 592.315 345.411L591.876 345.65C592.192 346.231 592.507 346.813 592.82 347.394L593.26 347.157C593.577 347.745 593.892 348.333 594.205 348.921L593.764 349.156C594.078 349.745 594.39 350.335 594.701 350.924L595.144 350.691C595.455 351.281 595.765 351.872 596.073 352.462L595.63 352.694C595.938 353.284 596.244 353.874 596.549 354.464L596.993 354.235C597.299 354.826 597.602 355.417 597.904 356.008L597.459 356.235C597.761 356.826 598.061 357.416 598.36 358.007L598.806 357.782C599.105 358.373 599.402 358.965 599.698 359.556L599.251 359.78C599.32 359.917 599.388 360.054 599.457 360.192C599.685 360.649 599.912 361.106 600.138 361.564L600.587 361.342C600.883 361.942 601.178 362.541 601.472 363.141L601.023 363.361C601.316 363.96 601.607 364.559 601.897 365.159L602.347 364.941C602.638 365.541 602.927 366.141 603.214 366.741L602.763 366.957C602.851 367.142 602.939 367.327 603.028 367.512C603.225 367.926 603.422 368.341 603.618 368.756L604.07 368.542C604.354 369.142 604.637 369.742 604.917 370.343L604.464 370.555C604.745 371.154 605.024 371.754 605.301 372.354L605.755 372.144C606.034 372.747 606.311 373.35 606.586 373.953L606.132 374.161C606.257 374.435 606.382 374.71 606.507 374.985C606.659 375.318 606.81 375.652 606.96 375.985L607.416 375.78C607.691 376.389 607.964 376.997 608.236 377.606L607.779 377.81C608.051 378.418 608.32 379.027 608.589 379.635L609.046 379.433C609.314 380.042 609.581 380.651 609.846 381.26L609.388 381.46C609.653 382.068 609.916 382.676 610.178 383.284L610.637 383.087C610.899 383.696 611.159 384.304 611.418 384.913L610.957 385.109C611.216 385.719 611.474 386.329 611.73 386.939L612.191 386.746C612.45 387.363 612.707 387.981 612.963 388.598L612.501 388.79C612.756 389.406 613.01 390.023 613.262 390.64L613.725 390.45C613.977 391.068 614.228 391.685 614.477 392.302L614.013 392.489C614.261 393.106 614.508 393.722 614.754 394.339L615.218 394.154C615.464 394.771 615.708 395.388 615.95 396.005L615.484 396.187C615.726 396.803 615.967 397.419 616.205 398.035L616.671 397.855C616.911 398.474 617.149 399.093 617.386 399.712L616.918 399.89C617.157 400.515 617.394 401.14 617.629 401.765L618.097 401.589C618.333 402.214 618.567 402.839 618.799 403.465L618.33 403.639C618.562 404.263 618.792 404.887 619.02 405.512L619.49 405.34C619.718 405.965 619.945 406.589 620.17 407.214L619.7 407.384C619.925 408.007 620.148 408.631 620.369 409.255L620.84 409.087C621.062 409.712 621.282 410.336 621.5 410.959L621.028 411.125C621.247 411.752 621.465 412.379 621.681 413.005L622.154 412.842C622.372 413.476 622.588 414.109 622.802 414.742L622.329 414.902C622.543 415.534 622.756 416.166 622.966 416.798L623.441 416.64C623.651 417.272 623.861 417.904 624.068 418.536L623.593 418.692C623.739 419.138 623.884 419.583 624.029 420.028C624.089 420.214 624.149 420.399 624.209 420.585L624.685 420.431C624.888 421.063 625.09 421.694 625.291 422.325L624.814 422.476C625.014 423.106 625.212 423.736 625.408 424.366L625.886 424.217C626.084 424.854 626.281 425.491 626.476 426.128L625.998 426.274C626.194 426.914 626.388 427.553 626.581 428.191L627.059 428.047C627.252 428.687 627.442 429.326 627.631 429.965L627.152 430.107C627.34 430.745 627.527 431.383 627.712 432.02L628.192 431.881C628.377 432.519 628.56 433.157 628.742 433.795L628.261 433.932C628.442 434.569 628.621 435.205 628.799 435.841L629.28 435.707C629.458 436.344 629.634 436.981 629.808 437.617L629.326 437.749C629.502 438.395 629.677 439.041 629.85 439.686L630.333 439.557C630.506 440.203 630.677 440.849 630.847 441.495L630.363 441.622C630.532 442.266 630.699 442.911 630.865 443.554L631.349 443.43C631.515 444.075 631.678 444.719 631.84 445.363L631.355 445.485C631.516 446.128 631.676 446.77 631.834 447.412L632.319 447.293C632.477 447.936 632.633 448.579 632.787 449.221L632.301 449.338C632.456 449.984 632.609 450.63 632.76 451.276L633.247 451.162C633.4 451.814 633.551 452.467 633.7 453.118L633.212 453.229C633.361 453.88 633.508 454.53 633.652 455.18L634.141 455.071C634.285 455.722 634.428 456.372 634.569 457.022L634.081 457.128C634.222 457.776 634.36 458.424 634.497 459.072L634.986 458.969C635.123 459.617 635.259 460.265 635.392 460.912L634.902 461.013C635.035 461.66 635.166 462.307 635.295 462.953L635.785 462.855C635.917 463.513 636.046 464.171 636.173 464.828L635.683 464.923C635.81 465.579 635.935 466.234 636.058 466.889L636.55 466.797C636.673 467.453 636.794 468.108 636.913 468.763L636.421 468.852C636.54 469.506 636.657 470.159 636.772 470.811L637.265 470.725C637.38 471.378 637.493 472.031 637.604 472.683L637.111 472.766C637.221 473.418 637.33 474.068 637.437 474.718L637.93 474.637C638.039 475.297 638.145 475.956 638.249 476.615L637.755 476.693C637.86 477.353 637.962 478.014 638.062 478.673L638.557 478.598C638.657 479.258 638.755 479.918 638.851 480.577L638.357 480.649C638.453 481.307 638.547 481.964 638.638 482.62L639.133 482.551C639.225 483.209 639.315 483.865 639.403 484.521L638.907 484.587C638.995 485.242 639.08 485.896 639.163 486.55L639.659 486.487C639.743 487.148 639.825 487.809 639.905 488.469L639.409 488.529C639.489 489.194 639.568 489.857 639.644 490.52L640.14 490.463C640.217 491.128 640.291 491.791 640.362 492.453L639.865 492.507C639.937 493.168 640.006 493.829 640.073 494.488L640.571 494.437C640.638 495.098 640.703 495.758 640.766 496.417L640.268 496.464C640.284 496.629 640.3 496.794 640.315 496.959C640.361 497.451 640.406 497.943 640.45 498.435L640.948 498.39C641.007 499.054 641.064 499.717 641.118 500.378L640.62 500.419C640.675 501.087 640.727 501.753 640.778 502.419L641.276 502.381C641.327 503.048 641.375 503.714 641.42 504.378L640.922 504.413C640.967 505.076 641.011 505.739 641.052 506.4L641.551 506.369C641.592 507.032 641.631 507.694 641.667 508.354L641.168 508.382C641.205 509.042 641.239 509.7 641.271 510.357L641.77 510.333C641.802 510.999 641.832 511.664 641.86 512.328L641.36 512.349C641.388 513.018 641.414 513.686 641.437 514.353L641.936 514.336C641.959 515.004 641.98 515.671 641.998 516.337L641.498 516.351C641.516 517.015 641.532 517.679 641.545 518.341L642.045 518.331C642.059 518.994 642.07 519.657 642.078 520.318L641.578 520.324C641.587 520.984 641.593 521.643 641.597 522.3L642.097 522.297C642.1 522.967 642.102 523.635 642.1 524.301L641.6 524.3C641.599 524.97 641.595 525.638 641.589 526.304L642.089 526.309C642.083 526.977 642.074 527.644 642.063 528.309L641.563 528.301C641.552 528.965 641.538 529.627 641.522 530.289L642.022 530.301C642.005 530.964 641.986 531.625 641.965 532.285L641.465 532.269C641.444 532.928 641.42 533.586 641.394 534.243L641.894 534.263C641.867 534.935 641.837 535.605 641.805 536.274L641.305 536.25C641.273 536.918 641.238 537.584 641.201 538.249L641.7 538.277C641.663 538.943 641.623 539.608 641.58 540.271L641.081 540.239C641.038 540.9 640.993 541.561 640.945 542.219L641.444 542.256C641.396 542.916 641.345 543.574 641.292 544.231L640.793 544.191C640.74 544.853 640.683 545.514 640.624 546.174L641.122 546.218C641.062 546.887 641 547.554 640.934 548.219L640.437 548.171C640.372 548.835 640.304 549.497 640.233 550.157L640.73 550.211C640.659 550.873 640.585 551.533 640.509 552.192L640.012 552.134C639.936 552.792 639.857 553.447 639.775 554.101L640.272 554.163C640.19 554.819 640.105 555.472 640.018 556.124L639.522 556.058C639.433 556.723 639.341 557.386 639.246 558.048L639.741 558.119C639.646 558.782 639.548 559.443 639.447 560.103L638.953 560.027C638.852 560.685 638.748 561.341 638.642 561.995L639.135 562.075C639.029 562.73 638.919 563.384 638.807 564.036L638.314 563.951C638.272 564.196 638.229 564.44 638.186 564.684C638.115 565.089 638.043 565.493 637.969 565.896L638.461 565.986C638.341 566.643 638.218 567.299 638.092 567.953L637.601 567.859C637.475 568.516 637.345 569.171 637.213 569.823L637.703 569.923C637.57 570.577 637.434 571.23 637.295 571.88L636.806 571.776C636.668 572.424 636.526 573.071 636.382 573.715L636.87 573.825C636.725 574.471 636.577 575.115 636.426 575.756L635.939 575.642C635.787 576.289 635.632 576.933 635.474 577.576L635.96 577.695C635.799 578.347 635.636 578.996 635.469 579.644L634.985 579.519C634.818 580.164 634.649 580.807 634.476 581.448L634.959 581.578C634.786 582.221 634.61 582.861 634.431 583.499L633.949 583.363C633.77 583.999 633.588 584.633 633.403 585.264L633.883 585.405C633.696 586.043 633.506 586.679 633.312 587.312L632.834 587.166C632.639 587.806 632.44 588.444 632.238 589.079L632.714 589.23C632.511 589.867 632.305 590.502 632.096 591.133L631.621 590.976C631.469 591.438 631.314 591.898 631.158 592.356C631.101 592.524 631.043 592.691 630.986 592.858L631.459 593.021C631.243 593.647 631.024 594.271 630.801 594.893L630.33 594.724C630.107 595.349 629.88 595.97 629.65 596.589L630.119 596.764C629.885 597.392 629.648 598.018 629.407 598.642L628.941 598.462C628.701 599.083 628.458 599.701 628.211 600.317L628.675 600.503C628.428 601.121 628.177 601.735 627.923 602.347L627.461 602.155C627.208 602.765 626.951 603.373 626.691 603.977L627.15 604.175C626.886 604.786 626.619 605.395 626.349 606.001L625.892 605.798C625.62 606.407 625.344 607.014 625.065 607.618L625.519 607.828C625.238 608.434 624.954 609.036 624.667 609.636L624.216 609.42C623.93 610.017 623.64 610.612 623.346 611.203L623.794 611.426C623.5 612.019 623.202 612.609 622.9 613.196L622.456 612.968C622.151 613.56 621.844 614.149 621.532 614.734L621.974 614.969C621.66 615.56 621.342 616.147 621.021 616.731L620.583 616.49C620.262 617.072 619.938 617.651 619.611 618.226L620.045 618.473C619.717 619.051 619.384 619.625 619.048 620.195L618.617 619.942C618.282 620.51 617.944 621.075 617.601 621.637L618.028 621.897C617.68 622.469 617.328 623.037 616.972 623.602L616.549 623.335C616.194 623.898 615.836 624.457 615.474 625.013L615.892 625.286C615.529 625.843 615.161 626.398 614.79 626.948L614.375 626.669C614.006 627.217 613.632 627.762 613.255 628.303L613.665 628.589C613.285 629.134 612.901 629.675 612.513 630.213L612.107 629.921C611.718 630.46 611.325 630.996 610.928 631.528L611.329 631.827C610.93 632.362 610.528 632.892 610.121 633.419L609.726 633.113C609.321 633.638 608.912 634.158 608.5 634.675L608.891 634.987C608.477 635.506 608.059 636.02 607.637 636.531L607.251 636.213C606.829 636.725 606.403 637.232 605.972 637.736L606.353 638.061C605.92 638.568 605.483 639.071 605.042 639.569L604.667 639.238C604.228 639.735 603.786 640.227 603.339 640.716L603.708 641.053C603.259 641.544 602.807 642.03 602.35 642.513L601.987 642.169C601.532 642.649 601.073 643.126 600.611 643.598L600.968 643.948C600.502 644.423 600.032 644.895 599.558 645.362L599.207 645.006C598.735 645.471 598.259 645.932 597.78 646.388L598.124 646.75C597.642 647.209 597.157 647.663 596.667 648.113L596.328 647.745C595.841 648.193 595.349 648.636 594.854 649.076L595.186 649.45C594.688 649.891 594.187 650.327 593.682 650.759L593.357 650.379C592.854 650.809 592.347 651.235 591.837 651.656L592.155 652.042C591.642 652.465 591.125 652.883 590.605 653.297L590.293 652.906C589.775 653.318 589.253 653.726 588.726 654.129L589.031 654.526C588.502 654.931 587.97 655.332 587.433 655.728L587.137 655.325C586.606 655.717 586.071 656.104 585.533 656.487L585.822 656.895C585.282 657.279 584.737 657.659 584.188 658.035L583.906 657.622C583.359 657.996 582.809 658.365 582.255 658.73L582.53 659.147C581.974 659.514 581.413 659.875 580.849 660.232L580.582 659.81C580.301 659.987 580.019 660.164 579.736 660.34C579.453 660.515 579.17 660.689 578.886 660.861L579.146 661.288C578.575 661.635 578.002 661.977 577.427 662.312L577.175 661.88C576.602 662.215 576.027 662.543 575.449 662.867L575.693 663.303C575.113 663.628 574.531 663.947 573.946 664.261L573.709 663.82C573.127 664.132 572.543 664.439 571.956 664.74L572.184 665.185C571.591 665.49 570.996 665.788 570.398 666.082L570.178 665.633C569.583 665.925 568.985 666.212 568.386 666.493L568.598 666.946C567.995 667.228 567.391 667.505 566.784 667.777L566.58 667.32C565.976 667.59 565.369 667.855 564.761 668.114L564.957 668.574C564.345 668.835 563.731 669.09 563.115 669.34L562.928 668.876C562.314 669.125 561.698 669.368 561.08 669.606L561.26 670.072C560.639 670.311 560.016 670.545 559.391 670.772L559.22 670.303C558.598 670.53 557.973 670.751 557.347 670.967L557.51 671.44C556.881 671.657 556.25 671.868 555.617 672.074L555.462 671.599C554.833 671.804 554.203 672.003 553.57 672.197L553.717 672.675C553.082 672.869 552.445 673.059 551.806 673.243L551.668 672.762C551.032 672.945 550.394 673.123 549.754 673.296L549.884 673.778C549.241 673.952 548.596 674.119 547.95 674.282L547.828 673.797C547.186 673.959 546.541 674.115 545.895 674.266L546.009 674.753C545.364 674.904 544.717 675.049 544.068 675.19L543.962 674.701C543.316 674.841 542.668 674.975 542.019 675.105L542.116 675.595C541.464 675.725 540.81 675.85 540.154 675.969L540.065 675.478C539.411 675.597 538.757 675.711 538.1 675.82L538.182 676.313C537.528 676.421 536.872 676.525 536.215 676.623L536.141 676.128C535.488 676.226 534.834 676.318 534.179 676.406L534.245 676.902C533.587 676.99 532.927 677.072 532.266 677.15L532.207 676.654C531.549 676.731 530.889 676.804 530.227 676.872L530.278 677.369C529.614 677.437 528.948 677.5 528.281 677.558L528.238 677.06C527.582 677.117 526.926 677.169 526.268 677.216L526.303 677.715C525.643 677.762 524.981 677.805 524.318 677.843L524.289 677.344C523.628 677.382 522.966 677.415 522.302 677.443L522.324 677.943C521.657 677.971 520.99 677.994 520.321 678.013L520.307 677.514C519.644 677.532 518.98 677.546 518.315 677.556L518.322 678.055C517.662 678.065 517 678.069 516.338 678.069L516.338 677.569C515.678 677.569 515.016 677.565 514.354 677.556L514.347 678.056C513.682 678.047 513.016 678.033 512.349 678.015L512.362 677.515C511.697 677.497 511.031 677.474 510.364 677.447L510.344 677.947C509.68 677.92 509.016 677.889 508.351 677.853L508.378 677.353C507.721 677.318 507.063 677.278 506.404 677.234L506.37 677.733C505.709 677.689 505.047 677.64 504.384 677.588L504.424 677.089C503.762 677.037 503.1 676.98 502.437 676.918L502.391 677.416C501.726 677.355 501.06 677.289 500.392 677.219L500.445 676.722C499.788 676.653 499.13 676.579 498.472 676.502L498.413 676.999C497.758 676.922 497.102 676.841 496.444 676.756L496.508 676.26C495.853 676.175 495.197 676.086 494.54 675.993L494.47 676.488C493.811 676.395 493.151 676.297 492.491 676.196L492.567 675.702C491.908 675.6 491.248 675.495 490.588 675.386L490.506 675.879C489.853 675.771 489.199 675.659 488.544 675.543L488.631 675.051C487.984 674.936 487.335 674.817 486.686 674.695L486.593 675.186C485.942 675.063 485.29 674.937 484.638 674.806L484.736 674.316C484.085 674.186 483.434 674.052 482.782 673.914L482.678 674.403C482.024 674.265 481.37 674.123 480.715 673.977L480.824 673.489C480.178 673.345 479.531 673.197 478.884 673.046L478.771 673.533C478.129 673.383 477.486 673.229 476.843 673.072L476.962 672.586C476.32 672.429 475.678 672.269 475.036 672.105L474.912 672.589C474.267 672.424 473.623 672.256 472.977 672.084L473.106 671.601C472.462 671.43 471.818 671.255 471.173 671.076L471.04 671.558C470.398 671.38 469.756 671.198 469.113 671.014L469.252 670.533C468.62 670.351 467.988 670.166 467.356 669.978L467.213 670.457C466.579 670.268 465.945 670.076 465.31 669.88L465.458 669.402C464.825 669.207 464.191 669.008 463.557 668.806L463.405 669.282C462.77 669.079 462.134 668.873 461.497 668.664L461.654 668.189C461.019 667.98 460.384 667.768 459.748 667.552L459.588 668.025C458.965 667.814 458.342 667.599 457.718 667.381L457.883 666.909C457.261 666.692 456.638 666.471 456.016 666.248L455.847 666.718C455.223 666.494 454.598 666.266 453.974 666.035L454.147 665.566C453.524 665.336 452.9 665.103 452.276 664.866L452.099 665.334C451.474 665.096 450.848 664.856 450.223 664.613L450.404 664.147C449.787 663.907 449.17 663.663 448.553 663.417L448.367 663.881C447.755 663.637 447.143 663.39 446.53 663.139L446.719 662.677C446.108 662.427 445.496 662.174 444.884 661.918L444.691 662.379C444.078 662.123 443.465 661.863 442.852 661.601L443.048 661.141C442.436 660.879 441.824 660.614 441.212 660.346L441.011 660.804C440.398 660.536 439.784 660.265 439.17 659.99L439.374 659.534C438.774 659.265 438.174 658.994 437.574 658.721L437.367 659.175C436.766 658.901 436.165 658.624 435.564 658.344L435.775 657.891C435.176 657.612 434.576 657.329 433.976 657.044L433.761 657.496C433.16 657.21 432.559 656.922 431.958 656.631L432.176 656.181C431.576 655.89 430.976 655.596 430.376 655.3L430.154 655.748C429.557 655.453 428.959 655.155 428.361 654.854L428.586 654.408C427.998 654.112 427.411 653.814 426.824 653.513L426.596 653.958C426.007 653.657 425.419 653.352 424.83 653.046L425.062 652.602C424.474 652.296 423.887 651.987 423.3 651.675L423.065 652.117C422.477 651.805 421.889 651.49 421.3 651.173L421.538 650.733C420.951 650.416 420.363 650.096 419.776 649.774L419.536 650.212C418.953 649.892 418.371 649.57 417.788 649.245L418.032 648.808C417.457 648.488 416.882 648.164 416.308 647.838L416.061 648.273C415.486 647.947 414.91 647.618 414.335 647.287L414.584 646.854C414.01 646.523 413.436 646.189 412.862 645.854L412.609 646.285C412.034 645.949 411.459 645.61 410.884 645.268L411.14 644.838C410.566 644.498 409.992 644.154 409.419 643.808L409.16 644.236C408.592 643.894 408.023 643.548 407.455 643.2L407.716 642.774C407.154 642.43 406.593 642.084 406.032 641.736L405.768 642.16C405.206 641.811 404.643 641.46 404.082 641.106L404.348 640.683C403.787 640.33 403.226 639.974 402.666 639.616L402.397 640.037C401.835 639.679 401.274 639.318 400.713 638.954L400.985 638.535C400.425 638.172 399.865 637.807 399.305 637.439L399.031 637.857C398.475 637.492 397.919 637.125 397.364 636.756L397.641 636.339C397.093 635.975 396.545 635.607 395.997 635.238L395.718 635.653C395.169 635.283 394.621 634.91 394.072 634.536L394.355 634.123C393.807 633.749 393.26 633.373 392.714 632.995L392.429 633.406C391.881 633.027 391.334 632.646 390.787 632.262L391.074 631.853C390.528 631.47 389.982 631.085 389.437 630.698L389.147 631.105C388.604 630.719 388.06 630.331 387.517 629.941L387.809 629.535C387.274 629.15 386.74 628.764 386.206 628.375L385.912 628.78C385.377 628.39 384.843 627.999 384.308 627.606L384.605 627.203C384.072 626.81 383.539 626.415 383.006 626.018L382.707 626.419C382.174 626.021 381.641 625.621 381.108 625.22L381.409 624.82C380.877 624.419 380.345 624.016 379.814 623.61L379.511 624.008C378.979 623.601 378.447 623.193 377.916 622.783L378.222 622.387C377.7 621.985 377.179 621.58 376.659 621.173L376.351 621.567C375.83 621.16 375.31 620.751 374.79 620.34L375.1 619.948C374.58 619.538 374.062 619.125 373.543 618.711L373.231 619.101C372.712 618.686 372.193 618.269 371.674 617.85L371.989 617.462C371.471 617.043 370.954 616.623 370.437 616.2L370.121 616.588C369.603 616.165 369.086 615.74 368.569 615.313L368.888 614.927C368.377 614.505 367.866 614.081 367.356 613.654L367.035 614.038C366.528 613.615 366.022 613.189 365.516 612.762L365.839 612.38C365.334 611.953 364.829 611.525 364.325 611.095L364 611.475C363.495 611.044 362.991 610.611 362.487 610.176L362.813 609.798C362.31 609.363 361.807 608.927 361.305 608.489L360.976 608.866C360.473 608.428 359.971 607.987 359.469 607.545L359.799 607.17C359.298 606.728 358.797 606.284 358.296 605.839L357.964 606.212C357.471 605.773 356.979 605.333 356.488 604.891L356.822 604.519C356.331 604.077 355.84 603.634 355.35 603.188L355.014 603.558C354.524 603.113 354.033 602.665 353.544 602.215L353.882 601.847C353.393 601.398 352.905 600.948 352.417 600.495L352.077 600.862C351.588 600.409 351.1 599.954 350.613 599.497L350.955 599.132C350.468 598.676 349.982 598.218 349.496 597.759L349.152 598.122C348.669 597.664 348.186 597.205 347.703 596.744L348.049 596.382C347.572 595.926 347.096 595.469 346.62 595.01L346.273 595.369C345.797 594.91 345.321 594.448 344.846 593.985L345.195 593.627C344.72 593.164 344.246 592.7 343.773 592.234L343.422 592.59C342.948 592.124 342.475 591.655 342.002 591.185L342.355 590.831C341.882 590.361 341.411 589.89 340.94 589.417L340.585 589.77C340.114 589.297 339.643 588.822 339.172 588.345L339.528 587.994C339.063 587.522 338.598 587.049 338.134 586.573L337.776 586.923C337.314 586.45 336.853 585.976 336.392 585.5L336.751 585.152C336.291 584.677 335.832 584.2 335.373 583.721L335.012 584.067C334.552 583.588 334.094 583.107 333.635 582.624L333.998 582.28C333.54 581.798 333.083 581.315 332.627 580.829L332.263 581.172C331.806 580.686 331.349 580.199 330.894 579.71L331.26 579.369C330.805 578.881 330.35 578.391 329.896 577.899L329.529 578.238C329.08 577.752 328.631 577.263 328.183 576.773L328.552 576.436C328.106 575.948 327.661 575.459 327.216 574.969L326.846 575.305C326.401 574.813 325.957 574.321 325.513 573.827L325.885 573.493C325.442 572.999 325 572.504 324.558 572.007L324.184 572.339C323.742 571.842 323.3 571.343 322.859 570.843L323.234 570.512C322.794 570.013 322.354 569.511 321.915 569.009L321.539 569.337C321.099 568.834 320.66 568.329 320.222 567.823L320.6 567.495C320.168 566.995 319.736 566.493 319.304 565.99L318.925 566.315C318.494 565.813 318.064 565.309 317.635 564.804L318.016 564.481C317.588 563.976 317.16 563.47 316.733 562.962L316.35 563.284C315.922 562.776 315.495 562.267 315.069 561.755L315.453 561.435C315.027 560.925 314.602 560.413 314.178 559.899L313.793 560.218C313.368 559.704 312.944 559.189 312.521 558.672L312.908 558.355C312.485 557.839 312.063 557.321 311.641 556.802L311.253 557.117C310.835 556.602 310.419 556.086 310.002 555.568L310.392 555.255C309.978 554.74 309.565 554.223 309.152 553.706L308.761 554.017C308.348 553.499 307.936 552.979 307.524 552.458L307.916 552.148C307.505 551.627 307.095 551.105 306.685 550.582L306.292 550.89C305.882 550.366 305.472 549.841 305.064 549.314L305.459 549.008C305.051 548.482 304.644 547.954 304.237 547.425L303.841 547.73C303.434 547.2 303.028 546.67 302.622 546.137L303.02 545.834C302.618 545.307 302.217 544.777 301.817 544.247L301.417 544.548C301.019 544.02 300.621 543.491 300.224 542.96L300.625 542.66C300.228 542.13 299.833 541.599 299.438 541.066L299.036 541.364C298.641 540.831 298.246 540.296 297.853 539.76L298.256 539.464C297.862 538.929 297.47 538.392 297.078 537.854L296.674 538.148C296.282 537.609 295.891 537.069 295.5 536.528L295.906 536.236C295.516 535.695 295.126 535.153 294.738 534.61L294.331 534.9C293.944 534.358 293.557 533.815 293.172 533.271L293.58 532.982C293.198 532.443 292.817 531.902 292.437 531.361L292.027 531.648C291.647 531.106 291.267 530.562 290.888 530.017L291.299 529.732C290.92 529.188 290.542 528.642 290.165 528.096L289.754 528.379C289.377 527.832 289 527.284 288.625 526.734L289.037 526.452C288.662 525.903 288.288 525.352 287.914 524.8L287.5 525.081C287.127 524.528 286.754 523.975 286.381 523.42L286.797 523.141C286.425 522.587 286.054 522.032 285.684 521.475L285.268 521.752C284.901 521.201 284.536 520.649 284.172 520.095L284.589 519.82C284.225 519.268 283.863 518.714 283.5 518.159L283.082 518.433C282.719 517.877 282.358 517.32 281.997 516.763L282.417 516.491C282.057 515.934 281.697 515.375 281.339 514.816L280.918 515.085C280.559 514.525 280.201 513.964 279.843 513.401L280.265 513.133C279.909 512.571 279.553 512.008 279.198 511.443L278.775 511.71C278.419 511.144 278.065 510.578 277.711 510.011L278.135 509.746C277.959 509.463 277.782 509.179 277.606 508.895C277.43 508.611 277.255 508.328 277.079 508.044L276.654 508.306C276.303 507.737 275.953 507.168 275.605 506.599L276.031 506.338C275.683 505.769 275.337 505.2 274.992 504.63L274.564 504.889C274.219 504.319 273.875 503.749 273.533 503.179L273.962 502.921C273.62 502.351 273.279 501.781 272.94 501.211L272.51 501.466C272.171 500.895 271.833 500.324 271.496 499.752L271.927 499.499C271.591 498.928 271.256 498.357 270.923 497.785L270.491 498.037C270.158 497.465 269.825 496.892 269.494 496.319L269.927 496.069C269.593 495.49 269.26 494.911 268.929 494.332L268.495 494.58C268.163 494 267.833 493.42 267.505 492.839L267.94 492.593C267.611 492.013 267.285 491.433 266.959 490.853L266.523 491.098C266.198 490.517 265.874 489.936 265.551 489.355L265.988 489.112C265.666 488.531 265.345 487.951 265.026 487.37L264.588 487.611C264.268 487.029 263.95 486.447 263.633 485.865L264.073 485.626C263.756 485.045 263.442 484.464 263.129 483.882L262.688 484.119C262.372 483.532 262.057 482.944 261.744 482.356L262.185 482.121C261.871 481.531 261.558 480.942 261.247 480.352L260.805 480.585C260.494 479.995 260.184 479.405 259.875 478.814L260.319 478.583C260.011 477.993 259.704 477.403 259.4 476.812L258.955 477.042C258.65 476.451 258.346 475.86 258.044 475.269L258.49 475.041C258.188 474.451 257.888 473.86 257.589 473.269L257.143 473.495C256.844 472.904 256.546 472.312 256.25 471.72L256.698 471.497C256.4 470.902 256.104 470.308 255.81 469.713L255.362 469.935C255.065 469.335 254.77 468.735 254.477 468.135L254.926 467.916C254.633 467.316 254.341 466.717 254.051 466.118L253.601 466.336C253.311 465.736 253.022 465.135 252.735 464.535L253.186 464.32C252.899 463.72 252.614 463.12 252.33 462.521L251.878 462.735C251.594 462.134 251.312 461.534 251.031 460.934L251.484 460.722C251.204 460.122 250.925 459.522 250.648 458.923L250.194 459.132C249.915 458.529 249.638 457.926 249.362 457.324L249.817 457.116C249.539 456.508 249.263 455.899 248.988 455.291L248.533 455.497C248.258 454.888 247.984 454.279 247.713 453.67L248.169 453.466C247.898 452.858 247.628 452.25 247.36 451.642L246.903 451.843C246.634 451.234 246.367 450.625 246.102 450.017L246.561 449.817C246.296 449.209 246.033 448.6 245.771 447.992L245.312 448.19C245.05 447.581 244.79 446.972 244.531 446.363L244.991 446.168C244.732 445.558 244.475 444.947 244.219 444.337L243.758 444.531C243.499 443.913 243.241 443.296 242.986 442.678L243.448 442.487C243.192 441.87 242.939 441.254 242.687 440.637L242.224 440.826C241.972 440.209 241.721 439.591 241.472 438.974L241.936 438.787C241.687 438.171 241.44 437.554 241.195 436.938L240.73 437.123C240.485 436.506 240.241 435.889 239.999 435.272L240.464 435.089C240.222 434.473 239.982 433.857 239.744 433.241L239.277 433.422C239.038 432.803 238.799 432.184 238.563 431.565L239.03 431.386C238.791 430.761 238.555 430.136 238.319 429.512L237.851 429.688C237.616 429.062 237.382 428.437 237.15 427.812L237.619 427.638C237.387 427.013 237.157 426.389 236.929 425.765L236.459 425.937C236.23 425.312 236.004 424.687 235.778 424.063L236.249 423.893C236.024 423.269 235.801 422.645 235.58 422.022L235.108 422.189C234.887 421.565 234.667 420.941 234.449 420.317L234.921 420.152C234.701 419.525 234.484 418.898 234.268 418.271L233.795 418.434C233.577 417.801 233.361 417.168 233.146 416.535L233.62 416.374C233.406 415.742 233.193 415.11 232.982 414.479L232.508 414.637C232.297 414.004 232.088 413.372 231.881 412.74L232.356 412.584C232.149 411.953 231.943 411.322 231.74 410.692L231.264 410.845C231.06 410.214 230.858 409.582 230.658 408.951L231.135 408.8C230.935 408.17 230.737 407.54 230.54 406.91L230.063 407.059C229.864 406.422 229.667 405.785 229.472 405.149L229.95 405.002C229.754 404.363 229.56 403.724 229.368 403.085L228.889 403.229C228.697 402.59 228.506 401.95 228.317 401.311L228.797 401.17C228.608 400.531 228.422 399.894 228.237 399.256L227.757 399.395C227.572 398.757 227.388 398.119 227.207 397.481L227.688 397.345C227.507 396.708 227.327 396.071 227.15 395.435L226.668 395.57C226.491 394.933 226.315 394.296 226.141 393.66L226.623 393.528C226.446 392.881 226.271 392.236 226.099 391.59L225.616 391.72C225.442 391.073 225.271 390.427 225.102 389.782L225.586 389.655C225.416 389.01 225.249 388.366 225.084 387.722L224.6 387.846C224.434 387.202 224.271 386.557 224.109 385.914L224.594 385.792C224.432 385.149 224.273 384.506 224.115 383.864L223.63 383.983C223.472 383.34 223.316 382.698 223.162 382.056L223.648 381.939C223.493 381.292 223.34 380.646 223.188 380.001L222.702 380.115C222.549 379.462 222.398 378.81 222.249 378.158L222.736 378.047C222.588 377.396 222.441 376.746 222.296 376.096L221.808 376.205C221.663 375.555 221.52 374.905 221.379 374.255L221.868 374.149C221.727 373.5 221.588 372.852 221.451 372.205L220.962 372.308C220.825 371.659 220.69 371.011 220.557 370.364L221.047 370.263C220.914 369.616 220.783 368.97 220.654 368.324L220.163 368.422C220.032 367.764 219.903 367.106 219.775 366.449L220.266 366.354C220.139 365.698 220.014 365.042 219.891 364.387L219.399 364.48C219.276 363.824 219.155 363.168 219.035 362.514L219.527 362.424C219.408 361.771 219.291 361.118 219.177 360.465L218.684 360.552C218.569 359.899 218.456 359.246 218.345 358.594L218.838 358.51C218.727 357.859 218.618 357.209 218.512 356.559L218.018 356.64C217.91 355.98 217.804 355.321 217.7 354.662L218.193 354.584C218.089 353.923 217.987 353.263 217.886 352.604L217.392 352.679C217.292 352.018 217.193 351.359 217.097 350.7L217.592 350.628C217.496 349.97 217.402 349.312 217.31 348.656L216.815 348.725C216.723 348.068 216.634 347.411 216.546 346.755L217.042 346.689C216.954 346.034 216.869 345.38 216.786 344.727L216.29 344.79C216.205 344.128 216.123 343.468 216.043 342.808L216.54 342.748C216.459 342.083 216.381 341.419 216.305 340.756L215.808 340.813C215.732 340.149 215.658 339.486 215.586 338.823L216.083 338.77C216.012 338.108 215.942 337.448 215.875 336.788L215.378 336.839C215.311 336.178 215.246 335.519 215.183 334.86L215.68 334.812C215.618 334.155 215.557 333.498 215.499 332.842L215.001 332.886C214.942 332.223 214.885 331.56 214.831 330.898L215.329 330.857C215.274 330.19 215.221 329.523 215.171 328.857L214.672 328.895C214.622 328.229 214.574 327.563 214.528 326.898L215.027 326.864C214.981 326.2 214.938 325.538 214.897 324.876L214.398 324.907C214.357 324.244 214.318 323.583 214.281 322.922L214.78 322.894C214.744 322.235 214.71 321.576 214.678 320.919L214.178 320.943C214.146 320.277 214.116 319.612 214.089 318.948L214.588 318.927C214.56 318.258 214.535 317.59 214.512 316.923L214.012 316.94C213.989 316.272 213.969 315.605 213.951 314.94L214.45 314.926C214.432 314.261 214.417 313.598 214.403 312.936L213.903 312.946C213.89 312.282 213.879 311.62 213.871 310.959L214.37 310.952C214.362 310.292 214.356 309.634 214.352 308.976L213.852 308.979C213.848 308.31 213.847 307.642 213.848 306.975L214.348 306.976C214.349 306.307 214.353 305.639 214.359 304.972L213.859 304.968C213.866 304.3 213.874 303.633 213.886 302.968L214.386 302.976C214.397 302.312 214.411 301.649 214.427 300.988L213.927 300.975C213.943 300.313 213.962 299.651 213.984 298.991L214.483 299.007C214.505 298.348 214.528 297.69 214.555 297.034L214.055 297.014C214.082 296.342 214.112 295.671 214.144 295.002L214.643 295.026C214.675 294.359 214.71 293.693 214.748 293.028L214.248 293C214.286 292.334 214.326 291.669 214.369 291.006L214.868 291.038C214.91 290.376 214.956 289.716 215.004 289.057L214.505 289.021C214.553 288.361 214.604 287.702 214.657 287.045L215.155 287.085C215.209 286.423 215.265 285.762 215.324 285.103L214.826 285.058C214.886 284.39 214.949 283.722 215.014 283.057L215.512 283.106C215.577 282.442 215.645 281.78 215.716 281.119L215.219 281.066C215.29 280.404 215.363 279.743 215.44 279.084L215.936 279.142C216.013 278.485 216.092 277.829 216.173 277.175L215.677 277.113C215.759 276.458 215.844 275.804 215.931 275.152L216.427 275.219C216.516 274.553 216.608 273.89 216.703 273.229L216.208 273.158C216.303 272.495 216.401 271.833 216.502 271.174L216.996 271.25C217.097 270.592 217.2 269.936 217.307 269.282L216.813 269.202C216.92 268.546 217.029 267.892 217.142 267.241L217.634 267.326C217.747 266.675 217.862 266.027 217.979 265.381L217.488 265.291C217.608 264.633 217.73 263.977 217.856 263.323L218.347 263.418C218.474 262.761 218.603 262.106 218.736 261.453L218.246 261.354C218.379 260.699 218.514 260.047 218.653 259.397L219.142 259.501C219.281 258.852 219.422 258.206 219.567 257.561L219.079 257.452C219.224 256.806 219.372 256.162 219.522 255.52L220.009 255.634C220.161 254.988 220.316 254.343 220.474 253.701L219.989 253.581C220.149 252.929 220.313 252.28 220.48 251.633L220.964 251.758C221.13 251.112 221.3 250.469 221.472 249.829L220.989 249.698C221.163 249.056 221.339 248.416 221.518 247.778L221.999 247.913C222.178 247.277 222.36 246.644 222.545 246.012L222.065 245.872C222.253 245.233 222.443 244.598 222.636 243.964L223.115 244.11C223.31 243.47 223.509 242.833 223.711 242.198L223.235 242.046C223.437 241.409 223.643 240.775 223.853 240.143L224.327 240.3C224.536 239.671 224.748 239.043 224.963 238.418L224.49 238.256C224.706 237.629 224.925 237.005 225.147 236.384L225.618 236.552C225.842 235.928 226.068 235.306 226.299 234.687L225.83 234.513C226.064 233.884 226.301 233.258 226.541 232.635L227.008 232.815C227.248 232.194 227.491 231.575 227.737 230.96L227.273 230.774C227.521 230.156 227.772 229.541 228.026 228.929L228.488 229.121C228.741 228.511 228.998 227.904 229.258 227.3L228.799 227.102C229.062 226.49 229.33 225.881 229.6 225.275L230.057 225.479C230.329 224.869 230.605 224.262 230.884 223.659L230.43 223.449C230.71 222.843 230.994 222.24 231.282 221.64L231.732 221.857C232.019 221.259 232.309 220.665 232.602 220.073L232.154 219.851C232.449 219.257 232.747 218.667 233.048 218.08L233.493 218.308C233.797 217.716 234.105 217.128 234.416 216.542L233.975 216.307C234.289 215.717 234.607 215.129 234.928 214.545L235.366 214.786C235.686 214.204 236.01 213.626 236.338 213.051L235.903 212.803C236.232 212.226 236.565 211.652 236.901 211.081L237.332 211.335C237.666 210.766 238.005 210.201 238.347 209.64L237.92 209.38C238.269 208.808 238.621 208.239 238.977 207.675L239.4 207.941C239.754 207.379 240.113 206.819 240.475 206.264L240.056 205.991C240.42 205.433 240.787 204.879 241.159 204.328L241.573 204.608C241.943 204.06 242.316 203.515 242.694 202.974L242.284 202.688C242.664 202.143 243.048 201.601 243.436 201.063L243.841 201.356C244.231 200.816 244.624 200.28 245.021 199.748L244.62 199.449C245.018 198.915 245.421 198.384 245.827 197.858L246.223 198.163C246.628 197.639 247.036 197.118 247.449 196.602L247.058 196.29C247.472 195.771 247.89 195.256 248.312 194.745L248.697 195.063C249.12 194.552 249.546 194.044 249.976 193.54L249.596 193.216C250.029 192.709 250.466 192.206 250.907 191.707L251.281 192.038C251.72 191.542 252.163 191.049 252.61 190.561L252.241 190.223C252.689 189.733 253.142 189.246 253.599 188.764L253.962 189.108C254.417 188.627 254.875 188.151 255.338 187.679L254.981 187.329C255.447 186.853 255.917 186.382 256.391 185.915L256.742 186.271C257.214 185.806 257.689 185.345 258.169 184.888L257.824 184.526C258.306 184.068 258.792 183.613 259.282 183.163L259.62 183.532C260.108 183.084 260.599 182.64 261.095 182.201L260.763 181.827C261.26 181.386 261.762 180.949 262.267 180.517L262.592 180.897C263.095 180.467 263.601 180.042 264.112 179.621L263.794 179.235C264.306 178.812 264.823 178.393 265.344 177.979L265.655 178.371C266.174 177.958 266.696 177.55 267.222 177.147L266.918 176.75C267.447 176.345 267.979 175.945 268.515 175.549L268.812 175.951C269.343 175.559 269.877 175.172 270.416 174.789L270.126 174.382C270.667 173.997 271.212 173.617 271.761 173.242L272.043 173.654C272.589 173.281 273.139 172.911 273.693 172.547L273.418 172.129C273.975 171.763 274.535 171.401 275.1 171.044L275.367 171.467C275.648 171.289 275.93 171.112 276.213 170.937C276.495 170.762 276.778 170.588 277.062 170.415L276.803 169.988C277.373 169.641 277.946 169.3 278.522 168.964L278.774 169.396C279.347 169.062 279.922 168.733 280.499 168.41L280.255 167.973C280.835 167.649 281.418 167.33 282.003 167.016L282.239 167.457C282.821 167.144 283.406 166.838 283.993 166.536L283.764 166.091C284.357 165.787 284.953 165.488 285.55 165.195L285.771 165.643C286.366 165.351 286.963 165.065 287.563 164.783L287.351 164.331C287.953 164.048 288.558 163.771 289.165 163.5L289.369 163.956C289.973 163.686 290.579 163.421 291.188 163.162L290.992 162.702C291.604 162.442 292.217 162.186 292.833 161.937L293.021 162.4C293.635 162.152 294.251 161.908 294.869 161.671L294.689 161.204C295.31 160.965 295.933 160.732 296.558 160.504L296.729 160.974C297.351 160.747 297.975 160.525 298.602 160.309L298.439 159.837C299.068 159.62 299.699 159.408 300.332 159.202L300.487 159.678C301.115 159.473 301.746 159.274 302.378 159.08L302.232 158.602C302.867 158.407 303.504 158.218 304.143 158.034L304.281 158.514C304.917 158.331 305.555 158.153 306.195 157.981L306.065 157.498C306.708 157.325 307.352 157.157 307.999 156.995L308.121 157.479C308.763 157.318 309.407 157.162 310.054 157.011L309.94 156.524C310.585 156.373 311.232 156.227 311.881 156.087L311.986 156.576C312.633 156.436 313.28 156.301 313.93 156.172L313.832 155.681C314.485 155.551 315.139 155.427 315.794 155.307L315.884 155.799C316.537 155.68 317.192 155.566 317.848 155.457L317.767 154.964C318.421 154.855 319.077 154.752 319.734 154.654L319.808 155.148C320.46 155.051 321.114 154.958 321.77 154.87L321.704 154.375C322.362 154.287 323.021 154.204 323.683 154.126L323.741 154.623C324.4 154.545 325.06 154.472 325.722 154.405L325.671 153.907C326.335 153.84 327.001 153.777 327.668 153.719L327.711 154.217C328.366 154.16 329.023 154.108 329.681 154.06L329.645 153.562C330.306 153.514 330.968 153.471 331.631 153.433L331.66 153.933C332.32 153.895 332.983 153.862 333.646 153.833L333.625 153.334C334.291 153.306 334.959 153.282 335.627 153.263L335.641 153.763C336.304 153.744 336.969 153.73 337.634 153.721L337.627 153.221C338.287 153.212 338.948 153.207 339.611 153.207L339.611 153.707C340.271 153.707 340.932 153.712 341.595 153.721L341.602 153.221C342.267 153.23 342.933 153.243 343.6 153.261L343.586 153.761C344.251 153.779 344.917 153.802 345.585 153.829L345.605 153.33C346.268 153.357 346.932 153.388 347.598 153.424L347.571 153.923C348.228 153.958 348.886 153.998 349.545 154.042L349.578 153.543C350.239 153.588 350.902 153.636 351.565 153.689L351.525 154.187C352.186 154.24 352.848 154.297 353.512 154.358L353.558 153.86C354.223 153.922 354.889 153.988 355.556 154.058L355.504 154.555C356.161 154.624 356.818 154.697 357.477 154.774L357.535 154.278C358.191 154.355 358.847 154.436 359.504 154.521L359.44 155.017C360.095 155.102 360.752 155.191 361.409 155.284L361.479 154.789C362.138 154.882 362.797 154.979 363.458 155.081L363.382 155.575C364.041 155.676 364.7 155.781 365.361 155.891L365.442 155.397C366.096 155.505 366.75 155.617 367.404 155.733L367.317 156.226C367.965 156.341 368.614 156.459 369.263 156.582L369.356 156.09C370.007 156.213 370.658 156.34 371.311 156.47L371.213 156.961C371.864 157.091 372.515 157.225 373.167 157.363L373.27 156.873C373.924 157.012 374.579 157.154 375.234 157.3L375.125 157.788C375.771 157.931 376.417 158.079 377.064 158.23L377.178 157.743C377.82 157.893 378.463 158.047 379.106 158.205L378.987 158.69C379.628 158.847 380.271 159.008 380.913 159.172L381.037 158.688C381.681 158.852 382.326 159.02 382.971 159.192L382.843 159.675C383.486 159.847 384.131 160.022 384.775 160.201L384.909 159.719C385.55 159.897 386.193 160.078 386.835 160.263L386.697 160.743C387.329 160.925 387.96 161.11 388.593 161.299L388.736 160.82C389.369 161.009 390.004 161.201 390.638 161.397L390.491 161.875C391.124 162.07 391.758 162.269 392.392 162.471L392.544 161.994C393.179 162.197 393.815 162.403 394.451 162.613L394.295 163.088C394.93 163.296 395.565 163.509 396.2 163.725L396.361 163.251C396.984 163.463 397.607 163.677 398.231 163.895L398.066 164.367C398.688 164.585 399.31 164.805 399.933 165.029L400.102 164.558C400.726 164.783 401.35 165.01 401.975 165.241L401.802 165.71C402.425 165.94 403.049 166.174 403.672 166.41L403.85 165.943C404.475 166.18 405.1 166.42 405.726 166.664L405.545 167.13C406.161 167.37 406.779 167.613 407.396 167.859L407.581 167.395C408.193 167.639 408.806 167.887 409.419 168.137L409.23 168.6C409.841 168.85 410.453 169.103 411.064 169.359L411.257 168.897C411.87 169.154 412.484 169.413 413.097 169.676L412.9 170.135C413.512 170.397 414.125 170.662 414.737 170.93L414.937 170.472C415.551 170.74 416.165 171.012 416.779 171.286L416.575 171.743C417.174 172.011 417.774 172.282 418.374 172.556L418.582 172.101C419.183 172.375 419.784 172.652 420.385 172.932L420.173 173.385C420.773 173.665 421.373 173.947 421.973 174.232L422.188 173.781C422.789 174.066 423.39 174.355 423.991 174.646L423.773 175.096C424.373 175.387 424.973 175.68 425.573 175.976L425.794 175.528C426.392 175.823 426.99 176.121 427.588 176.422L427.363 176.869C427.95 177.164 428.538 177.463 429.125 177.763L429.353 177.318C429.941 177.62 430.53 177.924 431.118 178.231L430.887 178.674C431.474 178.981 432.062 179.29 432.649 179.601L432.883 179.159C433.472 179.472 434.06 179.786 434.648 180.104L434.411 180.544C434.998 180.861 435.585 181.181 436.172 181.503L436.413 181.065C436.995 181.384 437.578 181.707 438.16 182.032L437.917 182.468C438.492 182.789 439.066 183.112 439.641 183.438L439.887 183.003C440.463 183.329 441.038 183.658 441.614 183.99L441.364 184.423C441.939 184.754 442.513 185.087 443.087 185.423L443.339 184.991C443.915 185.328 444.489 185.667 445.064 186.008L444.809 186.438C445.383 186.779 445.957 187.122 446.53 187.468L446.788 187.04C447.357 187.383 447.925 187.728 448.494 188.076L448.233 188.502C448.794 188.846 449.356 189.192 449.917 189.541L450.181 189.116C450.743 189.465 451.305 189.817 451.867 190.171L451.601 190.594C452.162 190.947 452.722 191.303 453.283 191.661L453.552 191.239C454.113 191.598 454.675 191.959 455.236 192.322L454.964 192.742C455.524 193.105 456.084 193.47 456.644 193.837L456.918 193.419C457.474 193.784 458.029 194.151 458.584 194.521L458.307 194.937C458.856 195.302 459.404 195.669 459.952 196.038L460.231 195.624C460.78 195.994 461.328 196.366 461.876 196.741L461.594 197.153C462.141 197.527 462.688 197.903 463.235 198.282L463.52 197.871C464.067 198.25 464.614 198.631 465.161 199.014L464.874 199.424C465.421 199.807 465.966 200.192 466.512 200.579L466.801 200.171C467.345 200.557 467.888 200.945 468.431 201.336L468.14 201.742C468.674 202.126 469.209 202.513 469.743 202.901L470.037 202.497C470.572 202.886 471.106 203.277 471.64 203.671L471.344 204.073C471.877 204.466 472.41 204.861 472.943 205.258L473.242 204.858C473.775 205.255 474.308 205.655 474.841 206.057L474.54 206.456C475.072 206.857 475.603 207.261 476.134 207.666L476.438 207.269C476.97 207.675 477.501 208.083 478.033 208.494L477.727 208.889C478.248 209.292 478.769 209.697 479.29 210.103L479.598 209.709C480.118 210.116 480.639 210.525 481.159 210.936L480.849 211.328C481.368 211.739 481.887 212.151 482.406 212.566L482.718 212.175C483.237 212.59 483.756 213.007 484.274 213.426L483.96 213.815C484.478 214.233 484.995 214.654 485.512 215.076L485.828 214.689C486.346 215.112 486.863 215.537 487.379 215.964L487.061 216.349C487.572 216.772 488.083 217.196 488.593 217.622L488.913 217.239C489.42 217.662 489.927 218.087 490.432 218.514L490.11 218.896C490.615 219.323 491.12 219.752 491.624 220.182L491.949 219.802C492.454 220.233 492.958 220.666 493.462 221.1L493.135 221.479C493.639 221.913 494.142 222.349 494.644 222.787L494.973 222.41C495.476 222.849 495.978 223.289 496.48 223.732L496.15 224.107C496.651 224.549 497.152 224.992 497.652 225.438L497.985 225.064C498.477 225.503 498.969 225.944 499.461 226.386L499.127 226.758C499.618 227.199 500.108 227.643 500.598 228.088L500.934 227.718C501.425 228.164 501.915 228.612 502.405 229.061L502.067 229.429C502.556 229.878 503.044 230.329 503.532 230.781L503.872 230.415C504.36 230.868 504.848 231.323 505.336 231.779L504.994 232.144C505.481 232.6 505.967 233.058 506.453 233.518L506.796 233.155C507.28 233.612 507.763 234.072 508.245 234.533L507.9 234.894C508.377 235.35 508.853 235.808 509.328 236.267L509.676 235.907C510.152 236.367 510.628 236.828 511.103 237.292L510.754 237.65C511.228 238.112 511.702 238.576 512.176 239.043L512.526 238.686C513 239.153 513.474 239.621 513.947 240.091L513.594 240.446C514.066 240.915 514.538 241.386 515.009 241.859L515.363 241.506C515.835 241.98 516.306 242.455 516.776 242.931L516.42 243.283C516.886 243.754 517.351 244.228 517.815 244.703L518.173 244.354C518.635 244.826 519.096 245.301 519.557 245.777L519.197 246.125C519.657 246.6 520.117 247.077 520.576 247.556L520.937 247.21C521.396 247.689 521.855 248.17 522.313 248.652L521.951 248.997C522.408 249.478 522.865 249.962 523.322 250.447L523.686 250.105C524.143 250.59 524.599 251.078 525.055 251.567L524.689 251.907C525.144 252.396 525.599 252.886 526.052 253.377L526.42 253.038C526.869 253.525 527.318 254.013 527.766 254.503L527.397 254.841C527.843 255.328 528.288 255.817 528.732 256.308L529.103 255.972C529.548 256.463 529.992 256.956 530.436 257.45L530.064 257.784C530.507 258.277 530.949 258.773 531.391 259.269L531.765 258.937C532.207 259.434 532.648 259.933 533.089 260.433L532.714 260.764C533.155 261.264 533.594 261.765 534.033 262.268L534.41 261.939C534.849 262.443 535.288 262.947 535.726 263.454L535.348 263.781C535.781 264.281 536.213 264.783 536.645 265.287L537.024 264.961C537.455 265.463 537.884 265.967 538.314 266.472L537.932 266.796C538.361 267.301 538.789 267.807 539.216 268.314L539.599 267.992C540.026 268.5 540.453 269.01 540.879 269.521L540.495 269.841C540.921 270.352 541.346 270.864 541.77 271.377L542.156 271.059C542.581 271.573 543.005 272.088 543.428 272.605L543.041 272.922C543.464 273.438 543.886 273.956 544.307 274.475L544.695 274.16C545.113 274.675 545.53 275.191 545.946 275.709L545.557 276.022C545.971 276.537 546.384 277.053 546.797 277.571L547.188 277.259C547.601 277.778 548.013 278.297 548.425 278.819L548.032 279.128C548.443 279.649 548.854 280.171 549.263 280.694L549.657 280.386C550.067 280.91 550.476 281.435 550.885 281.962L550.49 282.269C550.898 282.795 551.305 283.322 551.711 283.851L552.108 283.547C552.515 284.076 552.921 284.607 553.326 285.139L552.928 285.442C553.33 285.97 553.732 286.499 554.132 287.03L554.531 286.729C554.93 287.257 555.327 287.786 555.724 288.317L555.324 288.616C555.72 289.146 556.116 289.678 556.511 290.21L556.912 289.913C557.308 290.446 557.702 290.981 558.096 291.517L557.693 291.813C558.086 292.348 558.479 292.885 558.87 293.423L559.275 293.128C559.667 293.667 560.058 294.207 560.448 294.748L560.043 295.041C560.433 295.582 560.822 296.124 561.211 296.667L561.617 296.376C562.005 296.918 562.391 297.461 562.777 298.006L562.369 298.295C562.751 298.834 563.132 299.374 563.512 299.916L563.921 299.629C564.302 300.171 564.682 300.714 565.061 301.259L564.65 301.545C565.029 302.089 565.406 302.634 565.783 303.181L566.195 302.897C566.572 303.444 566.949 303.993 567.324 304.543L566.911 304.825C567.286 305.374 567.661 305.924 568.034 306.476L568.448 306.196C568.822 306.748 569.195 307.302 569.567 307.857L569.152 308.135C569.524 308.689 569.895 309.245 570.265 309.802L570.681 309.525C571.047 310.076 571.413 310.628 571.777 311.181L571.359 311.456C571.723 312.009 572.086 312.562 572.448 313.117L572.867 312.844C573.229 313.399 573.591 313.956 573.952 314.514L573.532 314.785C573.892 315.343 574.252 315.901 574.61 316.461L575.031 316.191C575.39 316.751 575.748 317.313 576.105 317.875L575.683 318.143C576.04 318.705 576.396 319.269 576.751 319.833L577.174 319.567Z" stroke="white" stroke-dasharray="2 2"/>
<path d="M558.637 289.681C558.996 290.25 559.354 290.821 559.71 291.393L559.286 291.657C559.464 291.943 559.642 292.229 559.82 292.515C559.997 292.802 560.174 293.088 560.351 293.375L560.777 293.112C561.131 293.686 561.483 294.26 561.833 294.834L561.406 295.095C561.756 295.668 562.105 296.242 562.451 296.816L562.879 296.558C563.226 297.133 563.572 297.708 563.915 298.284L563.486 298.54C563.829 299.115 564.171 299.69 564.511 300.265L564.941 300.011C565.282 300.587 565.62 301.163 565.957 301.74L565.525 301.992C565.862 302.568 566.197 303.145 566.53 303.721L566.963 303.471C567.3 304.055 567.636 304.64 567.97 305.225L567.536 305.473C567.869 306.057 568.201 306.641 568.531 307.226L568.967 306.98C569.297 307.565 569.626 308.151 569.953 308.736L569.517 308.98C569.843 309.565 570.168 310.15 570.491 310.736L570.929 310.494C571.253 311.08 571.575 311.667 571.895 312.253L571.456 312.493C571.775 313.079 572.093 313.665 572.409 314.251L572.85 314.014C573.169 314.606 573.486 315.197 573.802 315.789L573.36 316.025C573.677 316.619 573.992 317.213 574.305 317.808L574.747 317.575C575.061 318.17 575.372 318.765 575.682 319.361L575.239 319.592C575.548 320.186 575.856 320.781 576.162 321.377L576.607 321.148C576.913 321.744 577.218 322.34 577.52 322.936L577.074 323.162C577.377 323.758 577.677 324.353 577.976 324.949L578.423 324.725C578.723 325.324 579.022 325.923 579.319 326.522L578.871 326.744C579.17 327.347 579.467 327.951 579.762 328.555L580.212 328.336C580.507 328.94 580.801 329.545 581.093 330.15L580.643 330.368C580.935 330.972 581.225 331.576 581.513 332.181L581.964 331.966C582.253 332.571 582.539 333.176 582.824 333.781L582.372 333.994C582.656 334.599 582.938 335.203 583.219 335.808L583.673 335.597C583.954 336.203 584.233 336.809 584.511 337.415L584.057 337.623C584.337 338.236 584.616 338.85 584.893 339.463L585.349 339.257C585.627 339.871 585.902 340.485 586.176 341.099L585.719 341.302C585.992 341.915 586.264 342.528 586.533 343.142L586.991 342.94C587.261 343.554 587.529 344.168 587.795 344.782L587.336 344.981C587.602 345.594 587.866 346.207 588.128 346.821L588.588 346.624C588.85 347.238 589.11 347.852 589.369 348.466L588.908 348.66C589.17 349.281 589.429 349.902 589.687 350.523L590.149 350.331C590.407 350.954 590.664 351.576 590.918 352.199L590.455 352.388C590.709 353.009 590.962 353.631 591.212 354.252L591.676 354.066C591.926 354.688 592.175 355.31 592.422 355.932L591.957 356.116C592.073 356.41 592.189 356.703 592.304 356.996C592.433 357.324 592.562 357.652 592.69 357.98L593.156 357.798C593.399 358.42 593.64 359.042 593.878 359.663L593.412 359.843C593.653 360.471 593.893 361.1 594.131 361.728L594.598 361.552C594.837 362.182 595.073 362.813 595.308 363.443L594.839 363.618C595.073 364.247 595.305 364.876 595.536 365.506L596.005 365.334C596.236 365.964 596.464 366.594 596.691 367.224L596.22 367.393C596.446 368.022 596.67 368.65 596.893 369.279L597.364 369.112C597.586 369.741 597.807 370.37 598.025 370.999L597.553 371.163C597.774 371.8 597.993 372.436 598.21 373.072L598.683 372.911C598.901 373.549 599.117 374.187 599.33 374.825L598.856 374.984C599.07 375.621 599.281 376.257 599.49 376.893L599.965 376.737C600.174 377.375 600.382 378.012 600.587 378.648L600.111 378.802C600.316 379.437 600.519 380.073 600.72 380.708L601.197 380.557C601.398 381.193 601.597 381.829 601.794 382.465L601.317 382.613C601.516 383.258 601.714 383.902 601.91 384.546L602.388 384.401C602.584 385.046 602.778 385.691 602.97 386.335L602.491 386.478C602.682 387.121 602.871 387.765 603.059 388.407L603.539 388.268C603.726 388.911 603.911 389.555 604.095 390.198L603.614 390.335C603.797 390.977 603.977 391.618 604.156 392.26L604.638 392.125C604.817 392.77 604.994 393.414 605.17 394.057L604.687 394.188C604.864 394.84 605.04 395.49 605.212 396.141L605.696 396.012C605.869 396.664 606.04 397.315 606.208 397.965L605.725 398.091C605.893 398.74 606.059 399.389 606.223 400.038L606.708 399.915C606.872 400.564 607.034 401.213 607.194 401.862L606.709 401.982C606.78 402.271 606.851 402.56 606.921 402.849C607.009 403.207 607.095 403.565 607.181 403.923L607.667 403.806C607.824 404.459 607.979 405.112 608.131 405.764L607.644 405.878C607.798 406.534 607.949 407.191 608.098 407.846L608.585 407.736C608.734 408.392 608.881 409.049 609.026 409.704L608.537 409.812C608.682 410.466 608.824 411.12 608.963 411.773L609.452 411.669C609.592 412.323 609.73 412.977 609.865 413.63L609.376 413.731C609.511 414.384 609.644 415.035 609.774 415.686L610.264 415.587C610.397 416.25 610.528 416.912 610.656 417.574L610.165 417.669C610.294 418.33 610.42 418.991 610.543 419.651L611.034 419.559C611.158 420.22 611.279 420.88 611.398 421.54L610.906 421.629C611.025 422.287 611.141 422.945 611.255 423.602L611.748 423.517C611.862 424.175 611.974 424.832 612.083 425.489L611.59 425.571C611.7 426.232 611.808 426.892 611.913 427.551L612.407 427.472C612.514 428.14 612.618 428.807 612.72 429.473L612.225 429.548C612.327 430.213 612.426 430.877 612.523 431.54L613.017 431.468C613.114 432.132 613.208 432.796 613.3 433.458L612.805 433.527C612.897 434.189 612.986 434.849 613.073 435.509L613.568 435.444C613.655 436.105 613.74 436.765 613.822 437.424L613.326 437.486C613.409 438.157 613.49 438.827 613.568 439.496L614.065 439.438C614.143 440.108 614.219 440.777 614.292 441.445L613.795 441.5C613.869 442.167 613.939 442.833 614.007 443.498L614.505 443.447C614.573 444.113 614.638 444.778 614.701 445.442L614.204 445.49C614.267 446.152 614.327 446.814 614.385 447.475L614.883 447.432C614.942 448.104 614.998 448.775 615.051 449.445L614.553 449.485C614.606 450.157 614.657 450.828 614.706 451.498L615.205 451.462C615.253 452.133 615.299 452.803 615.342 453.472L614.843 453.504C614.859 453.756 614.875 454.008 614.89 454.26C614.916 454.675 614.94 455.089 614.964 455.503L615.463 455.475C615.501 456.141 615.536 456.807 615.568 457.471L615.069 457.495C615.101 458.166 615.131 458.835 615.158 459.504L615.658 459.483C615.686 460.159 615.71 460.833 615.732 461.506L615.232 461.522C615.254 462.194 615.273 462.864 615.29 463.533L615.79 463.521C615.806 464.191 615.82 464.86 615.83 465.528L615.33 465.536C615.341 466.202 615.349 466.867 615.354 467.531L615.854 467.527C615.859 468.199 615.862 468.87 615.861 469.539L615.361 469.539C615.361 470.214 615.358 470.887 615.351 471.559L615.851 471.564C615.845 472.238 615.836 472.91 615.824 473.58L615.324 473.571C615.312 474.24 615.297 474.908 615.279 475.574L615.779 475.587C615.761 476.254 615.74 476.92 615.716 477.584L615.216 477.567C615.192 478.237 615.165 478.906 615.135 479.574L615.635 479.596C615.605 480.272 615.571 480.946 615.535 481.619L615.036 481.592C614.999 482.262 614.96 482.931 614.917 483.599L615.416 483.631C615.374 484.3 615.328 484.967 615.28 485.632L614.781 485.596C614.733 486.26 614.681 486.922 614.627 487.582L615.125 487.623C615.069 488.296 615.011 488.966 614.949 489.634L614.451 489.588C614.389 490.26 614.324 490.929 614.255 491.597L614.753 491.648C614.684 492.317 614.612 492.985 614.537 493.65L614.04 493.594C613.966 494.258 613.888 494.92 613.806 495.58L614.303 495.641C614.221 496.302 614.137 496.962 614.049 497.619L613.553 497.553C613.464 498.223 613.371 498.891 613.276 499.556L613.77 499.628C613.674 500.296 613.574 500.962 613.471 501.626L612.977 501.549C612.875 502.212 612.768 502.872 612.659 503.529L613.152 503.611C613.043 504.271 612.93 504.928 612.813 505.584L612.321 505.496C612.204 506.154 612.084 506.809 611.96 507.463L612.452 507.556C612.326 508.221 612.197 508.884 612.064 509.545L611.574 509.446C611.441 510.105 611.305 510.761 611.166 511.415L611.655 511.519C611.515 512.175 611.372 512.829 611.225 513.48L610.738 513.37C610.591 514.019 610.441 514.665 610.288 515.309L610.775 515.425C610.618 516.082 610.458 516.736 610.295 517.388L609.81 517.266C609.646 517.92 609.479 518.57 609.307 519.218L609.791 519.346C609.619 519.996 609.444 520.643 609.265 521.287L608.783 521.154C608.605 521.796 608.423 522.436 608.237 523.073L608.717 523.213C608.53 523.856 608.339 524.497 608.144 525.135L607.666 524.989C607.468 525.634 607.268 526.276 607.063 526.915L607.539 527.068C607.334 527.709 607.125 528.347 606.912 528.983L606.438 528.824C606.225 529.457 606.009 530.088 605.79 530.715L606.261 530.88C606.041 531.51 605.817 532.136 605.588 532.759L605.119 532.588C604.887 533.221 604.651 533.852 604.411 534.479L604.878 534.658C604.637 535.288 604.393 535.914 604.144 536.538L603.68 536.352C603.432 536.973 603.18 537.591 602.924 538.206L603.386 538.398C603.129 539.015 602.869 539.628 602.604 540.238L602.146 540.039C601.878 540.655 601.607 541.268 601.332 541.878L601.788 542.083C601.51 542.698 601.228 543.31 600.942 543.917L600.489 543.705C600.205 544.31 599.916 544.912 599.622 545.51L600.071 545.73C599.777 546.331 599.479 546.928 599.176 547.521L598.731 547.294C598.427 547.891 598.119 548.483 597.806 549.072L598.248 549.307C597.932 549.903 597.611 550.495 597.287 551.083L596.849 550.842C596.526 551.428 596.198 552.01 595.867 552.588L596.3 552.837C595.967 553.418 595.63 553.994 595.288 554.567L594.859 554.311C594.516 554.885 594.17 555.455 593.819 556.021L594.244 556.284C593.888 556.857 593.529 557.426 593.164 557.991L592.744 557.72C592.382 558.282 592.015 558.84 591.644 559.394L592.059 559.673C591.686 560.229 591.309 560.781 590.927 561.329L590.517 561.043C590.135 561.591 589.749 562.135 589.359 562.674L589.764 562.967C589.369 563.513 588.97 564.054 588.566 564.591L588.166 564.29C587.764 564.824 587.358 565.354 586.947 565.879L587.341 566.187C586.928 566.715 586.51 567.238 586.089 567.757L585.701 567.441C585.28 567.959 584.854 568.472 584.424 568.981L584.806 569.304C584.372 569.817 583.933 570.326 583.49 570.83L583.114 570.5C582.673 571.002 582.228 571.499 581.777 571.991L582.146 572.328C581.694 572.823 581.237 573.313 580.776 573.798L580.413 573.453C579.953 573.936 579.489 574.415 579.02 574.888L579.375 575.24C578.903 575.717 578.426 576.189 577.945 576.656L577.597 576.298C577.118 576.762 576.634 577.222 576.146 577.677L576.487 578.043C575.996 578.5 575.501 578.952 575.002 579.399L574.668 579.027C574.171 579.471 573.67 579.911 573.164 580.346L573.489 580.725C572.981 581.161 572.468 581.593 571.951 582.019L571.633 581.633C571.118 582.057 570.599 582.476 570.075 582.89L570.385 583.282C569.859 583.698 569.327 584.109 568.792 584.514L568.49 584.115C567.959 584.517 567.423 584.914 566.883 585.306L567.176 585.711C566.635 586.103 566.089 586.491 565.539 586.872L565.254 586.462C564.706 586.842 564.154 587.216 563.598 587.586L563.874 588.002C563.315 588.374 562.751 588.74 562.183 589.101L561.915 588.678C561.632 588.858 561.348 589.036 561.063 589.213C560.778 589.39 560.492 589.565 560.206 589.738L560.465 590.166C559.889 590.515 559.311 590.857 558.729 591.193L558.479 590.76C557.901 591.095 557.32 591.423 556.736 591.744L556.977 592.182C556.391 592.505 555.801 592.822 555.209 593.133L554.977 592.69C554.386 593 553.792 593.303 553.196 593.601L553.419 594.048C552.817 594.348 552.214 594.641 551.607 594.928L551.393 594.476C550.79 594.761 550.184 595.04 549.575 595.313L549.78 595.769C549.168 596.043 548.554 596.311 547.937 596.572L547.742 596.112C547.127 596.372 546.511 596.626 545.892 596.874L546.077 597.338C545.455 597.587 544.83 597.829 544.202 598.066L544.026 597.598C543.401 597.833 542.775 598.062 542.145 598.284L542.312 598.756C541.68 598.979 541.045 599.197 540.408 599.408L540.25 598.933C539.618 599.143 538.983 599.346 538.345 599.543L538.493 600.021C537.854 600.219 537.212 600.41 536.568 600.596L536.429 600.115C535.788 600.3 535.145 600.478 534.5 600.65L534.629 601.133C533.98 601.306 533.329 601.473 532.676 601.634L532.557 601.149C531.91 601.308 531.261 601.461 530.61 601.608L530.72 602.096C530.068 602.243 529.414 602.384 528.758 602.52L528.657 602.03C528.004 602.165 527.349 602.293 526.691 602.416L526.783 602.908C526.123 603.031 525.461 603.148 524.796 603.26L524.714 602.766C524.057 602.876 523.399 602.981 522.738 603.079L522.812 603.574C522.152 603.672 521.489 603.764 520.825 603.851L520.76 603.355C520.099 603.442 519.436 603.522 518.771 603.597L518.827 604.094C518.16 604.169 517.49 604.239 516.819 604.302L516.772 603.805C516.109 603.867 515.444 603.925 514.778 603.976L514.816 604.475C514.152 604.526 513.485 604.572 512.817 604.613L512.787 604.114C512.121 604.154 511.454 604.188 510.786 604.218L510.807 604.717C510.136 604.747 509.463 604.77 508.789 604.789L508.775 604.289C508.109 604.307 507.441 604.32 506.771 604.327L506.777 604.827C506.111 604.834 505.443 604.836 504.774 604.833L504.777 604.333C504.111 604.329 503.443 604.321 502.774 604.307L502.764 604.807C502.092 604.793 501.419 604.774 500.745 604.749L500.763 604.25C500.095 604.225 499.425 604.196 498.755 604.161L498.729 604.661C498.065 604.627 497.399 604.587 496.733 604.543L496.766 604.044C496.102 604 495.437 603.951 494.77 603.897L494.73 604.395C494.061 604.341 493.391 604.282 492.719 604.218L492.767 603.72C492.098 603.656 491.429 603.587 490.758 603.513L490.703 604.01C490.044 603.938 489.383 603.86 488.721 603.778L488.782 603.282C488.123 603.2 487.462 603.113 486.8 603.022L486.732 603.517C486.068 603.426 485.403 603.329 484.738 603.228L484.813 602.734C484.149 602.633 483.484 602.528 482.819 602.418L482.737 602.911C482.079 602.802 481.42 602.688 480.761 602.57L480.849 602.078C480.195 601.961 479.541 601.84 478.887 601.714L478.792 602.206C478.136 602.079 477.478 601.949 476.819 601.814L476.92 601.324C476.263 601.189 475.606 601.05 474.948 600.907L474.842 601.395C474.185 601.252 473.528 601.104 472.87 600.952L472.982 600.465C472.337 600.316 471.692 600.163 471.045 600.006L470.927 600.492C470.279 600.334 469.63 600.172 468.98 600.005L469.104 599.521C468.456 599.355 467.808 599.185 467.159 599.011L467.029 599.494C466.378 599.319 465.727 599.141 465.075 598.958L465.21 598.476C464.57 598.296 463.929 598.113 463.288 597.925L463.148 598.405C462.509 598.218 461.87 598.027 461.23 597.832L461.376 597.354C460.738 597.16 460.1 596.961 459.461 596.759L459.31 597.236C458.67 597.033 458.029 596.826 457.387 596.615L457.543 596.14C456.904 595.931 456.265 595.717 455.625 595.499L455.464 595.973C454.836 595.759 454.208 595.542 453.579 595.32L453.745 594.849C453.118 594.628 452.49 594.404 451.862 594.176L451.692 594.646C451.062 594.417 450.432 594.185 449.802 593.949L449.978 593.481C449.349 593.245 448.72 593.006 448.091 592.763L447.911 593.23C447.285 592.988 446.658 592.743 446.031 592.494L446.216 592.029C445.6 591.785 444.984 591.536 444.368 591.285L444.179 591.748C443.561 591.495 442.943 591.24 442.325 590.981L442.518 590.519C441.902 590.261 441.285 589.999 440.668 589.733L440.47 590.192C439.851 589.926 439.233 589.657 438.614 589.383L438.816 588.926C438.205 588.656 437.593 588.383 436.982 588.106L436.776 588.562C436.17 588.288 435.564 588.011 434.958 587.73L435.168 587.276C434.564 586.997 433.959 586.713 433.355 586.427L433.141 586.879C432.535 586.592 431.928 586.301 431.322 586.008L431.54 585.558C430.936 585.265 430.331 584.968 429.726 584.669L429.504 585.117C428.904 584.82 428.304 584.519 427.704 584.216L427.93 583.77C427.338 583.47 426.746 583.168 426.154 582.862L425.925 583.306C425.331 583 424.738 582.69 424.145 582.378L424.378 581.935C423.786 581.624 423.194 581.308 422.602 580.99L422.365 581.431C421.772 581.112 421.179 580.79 420.586 580.465L420.826 580.027C420.24 579.705 419.653 579.381 419.067 579.054L418.823 579.49C418.243 579.166 417.662 578.839 417.082 578.509L417.329 578.074C416.75 577.745 416.171 577.413 415.592 577.078L415.341 577.51C414.761 577.175 414.181 576.836 413.602 576.494L413.856 576.063C413.277 575.722 412.699 575.379 412.12 575.032L411.863 575.461C411.287 575.115 410.71 574.766 410.134 574.415L410.395 573.988C409.828 573.643 409.262 573.294 408.697 572.943L408.433 573.368C407.866 573.017 407.299 572.662 406.733 572.305L407 571.882C406.434 571.526 405.869 571.167 405.304 570.805L405.034 571.226C404.468 570.863 403.902 570.498 403.337 570.13L403.61 569.711C403.045 569.343 402.481 568.973 401.917 568.6L401.641 569.017C401.087 568.651 400.533 568.281 399.979 567.91L400.258 567.495C399.706 567.124 399.154 566.75 398.602 566.374L398.32 566.787C397.768 566.411 397.215 566.031 396.663 565.649L396.948 565.238C396.396 564.857 395.846 564.473 395.295 564.087L395.008 564.496C394.456 564.109 393.905 563.719 393.355 563.327L393.645 562.92C393.101 562.532 392.558 562.142 392.015 561.75L391.722 562.155C391.182 561.766 390.643 561.373 390.104 560.978L390.4 560.575C389.862 560.181 389.324 559.784 388.787 559.385L388.489 559.787C387.951 559.387 387.413 558.985 386.876 558.58L387.177 558.181C386.64 557.777 386.104 557.371 385.569 556.962L385.265 557.359C384.73 556.95 384.195 556.539 383.66 556.126L383.966 555.73C383.441 555.324 382.917 554.915 382.393 554.505L382.084 554.898C381.559 554.487 381.035 554.073 380.511 553.657L380.822 553.265C380.299 552.85 379.776 552.432 379.254 552.012L378.94 552.401C378.417 551.98 377.895 551.557 377.373 551.132L377.689 550.744C377.168 550.319 376.647 549.892 376.127 549.463L375.808 549.849C375.292 549.422 374.776 548.994 374.26 548.563L374.581 548.179C374.071 547.753 373.561 547.324 373.052 546.894L372.729 547.275C372.219 546.844 371.71 546.41 371.201 545.974L371.526 545.595C371.018 545.16 370.511 544.722 370.004 544.283L369.677 544.66C369.169 544.22 368.662 543.778 368.155 543.333L368.485 542.957C367.979 542.513 367.474 542.067 366.969 541.619L366.637 541.993C366.139 541.55 365.641 541.105 365.143 540.658L365.478 540.286C364.982 539.841 364.488 539.394 363.994 538.945L363.658 539.315C363.163 538.865 362.669 538.413 362.176 537.959L362.514 537.591C362.022 537.138 361.53 536.682 361.038 536.225L360.698 536.591C360.205 536.132 359.714 535.672 359.223 535.21L359.566 534.846C359.076 534.384 358.586 533.921 358.098 533.455L357.753 533.817C357.271 533.358 356.79 532.897 356.31 532.434L356.657 532.074C356.177 531.612 355.698 531.148 355.219 530.682L354.87 531.04C354.391 530.573 353.913 530.104 353.435 529.633L353.786 529.277C353.309 528.807 352.833 528.335 352.357 527.861L352.004 528.215C351.527 527.74 351.052 527.263 350.577 526.785L350.932 526.432C350.458 525.955 349.986 525.476 349.514 524.995L349.157 525.346C348.691 524.87 348.225 524.393 347.76 523.914L348.119 523.566C347.655 523.088 347.191 522.608 346.728 522.126L346.368 522.472C345.904 521.989 345.441 521.505 344.979 521.018L345.342 520.674C344.881 520.188 344.42 519.7 343.96 519.211L343.596 519.553C343.135 519.063 342.675 518.571 342.216 518.077L342.583 517.736C342.125 517.244 341.669 516.75 341.213 516.254L340.845 516.593C340.394 516.103 339.944 515.61 339.495 515.117L339.865 514.78C339.416 514.287 338.969 513.792 338.521 513.295L338.15 513.63C337.702 513.132 337.255 512.633 336.809 512.132L337.183 511.799C336.737 511.299 336.292 510.797 335.849 510.293L335.473 510.623C335.029 510.119 334.585 509.612 334.142 509.104L334.519 508.776C334.077 508.269 333.637 507.76 333.196 507.25L332.818 507.577C332.383 507.072 331.949 506.566 331.515 506.058L331.896 505.734C331.463 505.227 331.031 504.718 330.6 504.207L330.218 504.53C329.786 504.018 329.355 503.506 328.925 502.991L329.309 502.67C328.879 502.156 328.45 501.641 328.023 501.123L327.637 501.442C327.209 500.924 326.781 500.404 326.355 499.883L326.742 499.566C326.316 499.046 325.89 498.523 325.466 497.999L325.077 498.314C324.658 497.796 324.239 497.276 323.822 496.755L324.212 496.442C323.795 495.922 323.379 495.4 322.964 494.877L322.572 495.187C322.156 494.663 321.741 494.138 321.328 493.61L321.721 493.301C321.307 492.775 320.895 492.247 320.483 491.717L320.088 492.023C319.676 491.493 319.265 490.961 318.855 490.427L319.251 490.122C318.841 489.589 318.432 489.054 318.024 488.518L317.626 488.821C317.222 488.289 316.818 487.755 316.415 487.22L316.814 486.919C316.414 486.387 316.014 485.853 315.615 485.318L315.214 485.616C314.814 485.08 314.416 484.542 314.018 484.003L314.42 483.706C314.023 483.168 313.627 482.628 313.232 482.086L312.828 482.381C312.432 481.839 312.037 481.295 311.643 480.749L312.048 480.457C311.655 479.912 311.262 479.366 310.871 478.818L310.464 479.109C310.074 478.563 309.685 478.016 309.297 477.467L309.705 477.178C309.32 476.634 308.936 476.089 308.554 475.542L308.144 475.829C307.761 475.282 307.379 474.733 306.997 474.182L307.408 473.898C307.027 473.348 306.647 472.797 306.269 472.244L305.856 472.527C305.477 471.974 305.098 471.419 304.721 470.863L305.135 470.582C304.758 470.026 304.382 469.469 304.007 468.911L303.592 469.19C303.216 468.63 302.842 468.07 302.469 467.508L302.885 467.231C302.517 466.676 302.149 466.12 301.783 465.563L301.365 465.838C300.998 465.28 300.632 464.72 300.267 464.159L300.686 463.887C300.322 463.327 299.958 462.765 299.596 462.202L299.176 462.473C298.813 461.909 298.451 461.344 298.09 460.778L298.512 460.509C298.152 459.943 297.792 459.376 297.434 458.808L297.011 459.074C296.652 458.505 296.295 457.934 295.938 457.363L296.362 457.098C296.184 456.812 296.006 456.526 295.829 456.24C295.651 455.954 295.474 455.667 295.297 455.381L294.872 455.643C294.518 455.069 294.166 454.495 293.815 453.921L294.242 453.661C293.892 453.087 293.543 452.513 293.197 451.939L292.769 452.197C292.422 451.622 292.076 451.047 291.733 450.472L292.162 450.215C291.819 449.64 291.477 449.065 291.137 448.49L290.707 448.744C290.367 448.168 290.028 447.592 289.691 447.015L290.123 446.763C289.787 446.187 289.452 445.611 289.119 445.034L288.686 445.284C288.348 444.7 288.012 444.115 287.678 443.53L288.112 443.282C287.779 442.698 287.447 442.114 287.117 441.529L286.681 441.775C286.351 441.19 286.022 440.605 285.695 440.019L286.132 439.775C285.805 439.19 285.48 438.605 285.157 438.019L284.719 438.261C284.395 437.675 284.074 437.088 283.754 436.502L284.193 436.262C283.873 435.676 283.555 435.09 283.239 434.504L282.799 434.741C282.48 434.15 282.162 433.558 281.847 432.966L282.288 432.731C281.971 432.137 281.656 431.542 281.343 430.948L280.901 431.181C280.587 430.585 280.276 429.99 279.966 429.394L280.409 429.164C280.1 428.569 279.792 427.974 279.486 427.379L279.042 427.607C278.735 427.011 278.431 426.415 278.128 425.819L278.574 425.593C278.271 424.997 277.971 424.402 277.672 423.806L277.225 424.03C276.925 423.431 276.626 422.833 276.33 422.234L276.778 422.012C276.479 421.408 276.181 420.804 275.886 420.2L275.437 420.419C275.141 419.815 274.847 419.21 274.555 418.605L275.005 418.387C274.713 417.783 274.423 417.179 274.135 416.574L273.684 416.79C273.396 416.184 273.109 415.579 272.824 414.974L273.277 414.761C272.992 414.157 272.71 413.552 272.429 412.947L271.976 413.158C271.694 412.552 271.415 411.946 271.137 411.34L271.592 411.132C271.311 410.519 271.032 409.906 270.755 409.292L270.299 409.498C270.022 408.884 269.746 408.271 269.472 407.657L269.929 407.453C269.656 406.84 269.384 406.227 269.115 405.614L268.657 405.815C268.387 405.201 268.119 404.587 267.853 403.973L268.312 403.774C268.046 403.161 267.782 402.548 267.52 401.935L267.061 402.131C266.798 401.517 266.538 400.903 266.279 400.29L266.74 400.095C266.478 399.474 266.219 398.853 265.961 398.232L265.499 398.424C265.241 397.802 264.985 397.179 264.73 396.557L265.193 396.367C264.939 395.746 264.687 395.124 264.436 394.503L263.972 394.69C263.722 394.067 263.473 393.445 263.227 392.823L263.691 392.639C263.445 392.017 263.201 391.396 262.958 390.775L262.492 390.957C262.25 390.335 262.009 389.713 261.77 389.092L262.236 388.912C261.995 388.284 261.755 387.655 261.518 387.027L261.05 387.204C260.811 386.573 260.575 385.942 260.34 385.312L260.809 385.138C260.575 384.508 260.343 383.879 260.113 383.25L259.643 383.421C259.413 382.791 259.184 382.161 258.958 381.532L259.428 381.363C259.202 380.734 258.978 380.105 258.756 379.477L258.284 379.643C258.062 379.014 257.841 378.385 257.623 377.756L258.095 377.592C257.874 376.955 257.655 376.319 257.438 375.683L256.965 375.844C256.747 375.206 256.532 374.568 256.318 373.93L256.792 373.772C256.579 373.135 256.367 372.498 256.158 371.862L255.683 372.018C255.474 371.381 255.266 370.744 255.061 370.107L255.537 369.954C255.332 369.318 255.129 368.682 254.928 368.047L254.451 368.198C254.25 367.562 254.051 366.926 253.854 366.29L254.332 366.142C254.132 365.498 253.934 364.853 253.738 364.209L253.26 364.354C253.064 363.709 252.87 363.064 252.678 362.42L253.158 362.277C252.966 361.634 252.777 360.991 252.59 360.348L252.11 360.488C251.922 359.844 251.737 359.201 251.554 358.558L252.035 358.421C251.852 357.779 251.671 357.137 251.492 356.496L251.011 356.63C250.831 355.986 250.654 355.342 250.479 354.698L250.961 354.567C250.784 353.916 250.609 353.265 250.436 352.614L249.953 352.743C249.779 352.091 249.608 351.441 249.44 350.79L249.924 350.665C249.755 350.015 249.589 349.366 249.425 348.718L248.94 348.84C248.776 348.191 248.614 347.542 248.454 346.893L248.939 346.774C248.78 346.126 248.622 345.479 248.467 344.833L247.981 344.949C247.824 344.296 247.669 343.643 247.517 342.991L248.004 342.878C247.851 342.221 247.699 341.564 247.551 340.909L247.063 341.019C246.914 340.363 246.767 339.707 246.623 339.051L247.111 338.943C246.967 338.289 246.825 337.635 246.685 336.982L246.196 337.086C246.056 336.432 245.918 335.778 245.783 335.125L246.273 335.024C246.137 334.372 246.005 333.72 245.874 333.069L245.384 333.168C245.251 332.505 245.12 331.843 244.992 331.182L245.483 331.086C245.355 330.425 245.229 329.764 245.105 329.104L244.614 329.196C244.49 328.535 244.369 327.875 244.25 327.215L244.742 327.126C244.623 326.468 244.507 325.81 244.393 325.153L243.9 325.239C243.786 324.58 243.674 323.923 243.565 323.266L244.058 323.184C243.948 322.523 243.84 321.863 243.735 321.204L243.241 321.283C243.134 320.615 243.03 319.948 242.929 319.282L243.423 319.207C243.321 318.542 243.222 317.878 243.126 317.215L242.631 317.287C242.534 316.623 242.44 315.959 242.348 315.297L242.843 315.228C242.752 314.567 242.662 313.906 242.576 313.246L242.08 313.312C241.993 312.65 241.908 311.99 241.826 311.331L242.323 311.269C242.239 310.598 242.158 309.928 242.08 309.259L241.583 309.317C241.505 308.647 241.429 307.978 241.356 307.31L241.853 307.255C241.78 306.588 241.709 305.922 241.641 305.257L241.144 305.308C241.075 304.642 241.01 303.977 240.947 303.313L241.445 303.266C241.382 302.603 241.321 301.941 241.263 301.28L240.765 301.324C240.707 300.651 240.65 299.98 240.597 299.31L241.095 299.27C241.042 298.598 240.991 297.927 240.942 297.257L240.444 297.293C240.395 296.622 240.35 295.952 240.307 295.283L240.805 295.251C240.762 294.584 240.722 293.917 240.685 293.252L240.185 293.28C240.148 292.614 240.113 291.949 240.08 291.285L240.58 291.26C240.547 290.589 240.517 289.92 240.49 289.252L239.99 289.272C239.963 288.596 239.938 287.922 239.916 287.249L240.416 287.233C240.394 286.561 240.375 285.891 240.358 285.222L239.859 285.234C239.842 284.564 239.829 283.895 239.818 283.227L240.318 283.219C240.307 282.553 240.299 281.888 240.294 281.224L239.794 281.228C239.789 280.556 239.786 279.885 239.787 279.216L240.287 279.216C240.287 278.541 240.291 277.868 240.297 277.196L239.797 277.191C239.803 276.518 239.812 275.846 239.825 275.175L240.324 275.184C240.337 274.515 240.352 273.848 240.369 273.182L239.87 273.168C239.888 272.501 239.908 271.835 239.932 271.171L240.432 271.189C240.456 270.518 240.483 269.849 240.513 269.181L240.013 269.159C240.044 268.483 240.077 267.809 240.113 267.137L240.613 267.164C240.649 266.493 240.688 265.824 240.731 265.156L240.232 265.125C240.274 264.456 240.32 263.788 240.368 263.123L240.867 263.159C240.916 262.495 240.967 261.833 241.022 261.173L240.523 261.132C240.579 260.46 240.638 259.789 240.699 259.121L241.197 259.167C241.259 258.495 241.325 257.826 241.393 257.158L240.896 257.107C240.964 256.438 241.036 255.77 241.111 255.105L241.608 255.161C241.683 254.497 241.761 253.835 241.842 253.175L241.346 253.114C241.427 252.453 241.511 251.793 241.599 251.136L242.095 251.202C242.184 250.532 242.277 249.864 242.373 249.199L241.878 249.127C241.974 248.459 242.074 247.793 242.177 247.129L242.671 247.206C242.774 246.544 242.88 245.884 242.989 245.226L242.496 245.144C242.606 244.484 242.719 243.827 242.835 243.172L243.327 243.259C243.444 242.601 243.564 241.946 243.688 241.293L243.196 241.2C243.322 240.534 243.452 239.871 243.584 239.211L244.075 239.309C244.207 238.65 244.343 237.994 244.482 237.34L243.993 237.236C244.133 236.58 244.276 235.927 244.423 235.276L244.911 235.386C245.057 234.737 245.207 234.09 245.36 233.446L244.874 233.33C245.03 232.673 245.19 232.019 245.353 231.367L245.838 231.489C246.002 230.836 246.17 230.185 246.341 229.537L245.857 229.409C246.029 228.76 246.204 228.112 246.383 227.468L246.865 227.602C247.043 226.959 247.225 226.319 247.411 225.682L246.931 225.543C247.118 224.899 247.31 224.258 247.505 223.62L247.983 223.767C248.18 223.121 248.381 222.479 248.585 221.84L248.109 221.688C248.314 221.046 248.524 220.408 248.737 219.772L249.211 219.931C249.423 219.298 249.639 218.668 249.859 218.04L249.387 217.875C249.607 217.246 249.832 216.619 250.06 215.996L250.529 216.168C250.761 215.534 250.997 214.903 251.237 214.276L250.77 214.098C251.011 213.468 251.256 212.841 251.504 212.218L251.969 212.403C252.216 211.782 252.468 211.164 252.724 210.55L252.262 210.357C252.519 209.741 252.779 209.127 253.044 208.517L253.503 208.716C253.77 208.1 254.041 207.487 254.316 206.878L253.861 206.672C254.138 206.057 254.42 205.446 254.706 204.838L255.159 205.051C255.444 204.445 255.733 203.843 256.026 203.245L255.577 203.025C255.871 202.424 256.169 201.827 256.472 201.234L256.917 201.461C257.221 200.865 257.53 200.272 257.842 199.683L257.4 199.448C257.716 198.852 258.037 198.26 258.361 197.672L258.799 197.913C259.122 197.327 259.45 196.745 259.782 196.167L259.348 195.918C259.681 195.338 260.019 194.761 260.36 194.188L260.79 194.444C261.132 193.87 261.479 193.3 261.83 192.735L261.405 192.471C261.76 191.898 262.12 191.329 262.484 190.764L262.904 191.035C263.267 190.473 263.633 189.915 264.005 189.361L263.589 189.083C263.962 188.526 264.339 187.974 264.721 187.426L265.131 187.712C265.513 187.164 265.899 186.62 266.289 186.081L265.884 185.788C266.279 185.242 266.679 184.701 267.082 184.165L267.482 184.465C267.884 183.931 268.29 183.401 268.701 182.876L268.308 182.568C268.72 182.04 269.138 181.517 269.56 180.998L269.948 181.314C270.369 180.796 270.794 180.283 271.224 179.774L270.842 179.451C271.277 178.938 271.715 178.429 272.158 177.925L272.534 178.255C272.975 177.754 273.421 177.257 273.871 176.765L273.502 176.427C273.954 175.932 274.411 175.443 274.873 174.958L275.235 175.302C275.695 174.819 276.159 174.34 276.628 173.867L276.273 173.515C276.745 173.038 277.222 172.566 277.703 172.099L278.051 172.458C278.53 171.993 279.014 171.533 279.502 171.078L279.161 170.712C279.652 170.255 280.147 169.803 280.647 169.356L280.98 169.728C281.477 169.284 281.978 168.844 282.484 168.41L282.159 168.03C282.667 167.594 283.18 167.163 283.697 166.736L284.015 167.122C284.53 166.698 285.049 166.279 285.573 165.866L285.263 165.473C285.79 165.057 286.321 164.647 286.856 164.241L287.158 164.64C287.689 164.238 288.225 163.841 288.766 163.449L288.472 163.044C289.013 162.652 289.559 162.265 290.109 161.883L290.395 162.293C290.942 161.913 291.494 161.539 292.051 161.169L291.774 160.753C292.333 160.381 292.897 160.015 293.466 159.655L293.734 160.077C294.016 159.897 294.3 159.719 294.585 159.542C294.87 159.366 295.156 159.19 295.443 159.017L295.183 158.589C295.759 158.24 296.338 157.898 296.919 157.562L297.169 157.995C297.747 157.66 298.328 157.333 298.912 157.011L298.671 156.573C299.258 156.25 299.847 155.933 300.439 155.622L300.671 156.065C301.262 155.755 301.856 155.452 302.452 155.155L302.229 154.707C302.831 154.407 303.435 154.114 304.041 153.827L304.255 154.279C304.858 153.994 305.465 153.715 306.073 153.442L305.869 152.986C306.48 152.712 307.095 152.444 307.712 152.183L307.907 152.643C308.521 152.383 309.137 152.129 309.757 151.882L309.571 151.417C310.194 151.168 310.819 150.926 311.446 150.689L311.622 151.157C312.247 150.922 312.874 150.693 313.503 150.471L313.336 150C313.969 149.776 314.603 149.559 315.241 149.348L315.398 149.822C316.03 149.613 316.666 149.409 317.303 149.212L317.155 148.734C317.795 148.537 318.437 148.345 319.081 148.16L319.219 148.64C319.86 148.456 320.503 148.277 321.149 148.105L321.02 147.622C321.668 147.449 322.319 147.282 322.972 147.121L323.091 147.607C323.738 147.447 324.387 147.294 325.038 147.147L324.928 146.66C325.58 146.512 326.234 146.371 326.89 146.236L326.991 146.725C327.644 146.591 328.3 146.462 328.957 146.339L328.865 145.848C329.525 145.724 330.188 145.607 330.852 145.496L330.934 145.989C331.591 145.879 332.249 145.775 332.91 145.676L332.836 145.182C333.497 145.083 334.159 144.991 334.823 144.904L334.888 145.4C335.549 145.313 336.212 145.233 336.877 145.158L336.821 144.661C337.489 144.586 338.158 144.517 338.829 144.453L338.877 144.951C339.539 144.888 340.204 144.831 340.87 144.779L340.832 144.28C341.497 144.229 342.163 144.183 342.831 144.143L342.862 144.642C343.527 144.601 344.194 144.567 344.863 144.538L344.841 144.038C345.512 144.009 346.185 143.985 346.859 143.967L346.873 144.466C347.54 144.448 348.208 144.436 348.877 144.428L348.872 143.928C349.538 143.921 350.205 143.919 350.874 143.923L350.871 144.423C351.538 144.426 352.205 144.435 352.874 144.448L352.884 143.949C353.556 143.962 354.229 143.982 354.903 144.006L354.885 144.506C355.553 144.53 356.223 144.559 356.894 144.594L356.919 144.094C357.583 144.129 358.249 144.168 358.915 144.212L358.882 144.711C359.546 144.755 360.212 144.804 360.878 144.858L360.919 144.36C361.588 144.414 362.258 144.473 362.929 144.537L362.881 145.035C363.55 145.099 364.219 145.168 364.89 145.242L364.945 144.745C365.605 144.818 366.266 144.895 366.927 144.977L366.866 145.473C367.525 145.555 368.186 145.642 368.848 145.733L368.916 145.238C369.58 145.33 370.245 145.426 370.911 145.527L370.836 146.021C371.499 146.122 372.164 146.228 372.829 146.338L372.911 145.844C373.569 145.953 374.228 146.067 374.888 146.185L374.8 146.677C375.453 146.794 376.107 146.915 376.762 147.041L376.856 146.55C377.513 146.676 378.17 146.806 378.829 146.942L378.728 147.431C379.385 147.566 380.042 147.705 380.7 147.849L380.807 147.36C381.463 147.503 382.12 147.651 382.778 147.803L382.666 148.29C383.311 148.439 383.957 148.592 384.603 148.749L384.721 148.264C385.37 148.421 386.019 148.584 386.668 148.75L386.544 149.234C387.192 149.4 387.84 149.57 388.489 149.744L388.619 149.261C389.27 149.436 389.921 149.615 390.573 149.798L390.438 150.279C391.078 150.459 391.719 150.642 392.36 150.83L392.501 150.35C393.139 150.537 393.778 150.728 394.418 150.923L394.272 151.401C394.91 151.596 395.548 151.794 396.187 151.996L396.338 151.52C396.979 151.722 397.62 151.929 398.261 152.14L398.105 152.615C398.744 152.825 399.383 153.038 400.023 153.256L400.184 152.783C400.812 152.996 401.441 153.214 402.069 153.435L401.903 153.906C402.531 154.127 403.158 154.351 403.786 154.579L403.957 154.109C404.586 154.338 405.216 154.57 405.846 154.806L405.671 155.274C406.299 155.51 406.928 155.749 407.557 155.992L407.737 155.525C408.363 155.767 408.99 156.012 409.617 156.261L409.432 156.726C410.048 156.971 410.664 157.219 411.28 157.47L411.469 157.008C412.087 157.26 412.705 157.515 413.323 157.775L413.13 158.236C413.747 158.494 414.363 158.756 414.981 159.022L415.178 158.563C415.797 158.829 416.415 159.099 417.034 159.372L416.832 159.829C417.444 160.099 418.055 160.372 418.667 160.649L418.873 160.193C419.478 160.467 420.084 160.744 420.69 161.025L420.48 161.479C421.084 161.759 421.689 162.042 422.294 162.328L422.508 161.876C423.114 162.164 423.72 162.454 424.326 162.748L424.108 163.198C424.713 163.491 425.318 163.787 425.922 164.087L426.144 163.639C426.744 163.936 427.344 164.236 427.944 164.539L427.718 164.985C428.31 165.285 428.902 165.588 429.494 165.893L429.724 165.449C430.317 165.755 430.91 166.065 431.504 166.377L431.27 166.82C431.863 167.132 432.455 167.447 433.046 167.765L433.283 167.324C433.876 167.643 434.469 167.965 435.062 168.29L434.822 168.728C435.409 169.05 435.995 169.374 436.581 169.701L436.825 169.265C437.406 169.589 437.986 169.916 438.566 170.246L438.319 170.681C438.898 171.01 439.477 171.342 440.056 171.677L440.307 171.245C440.887 171.581 441.467 171.919 442.046 172.261L441.793 172.692C442.371 173.033 442.95 173.377 443.528 173.723L443.785 173.295C444.362 173.64 444.938 173.989 445.514 174.34L445.253 174.767C445.82 175.113 446.386 175.461 446.952 175.812L447.215 175.387C447.782 175.738 448.349 176.093 448.915 176.45L448.649 176.873C449.214 177.229 449.779 177.589 450.344 177.951L450.614 177.53C451.18 177.892 451.746 178.258 452.311 178.626L452.038 179.045C452.603 179.412 453.167 179.782 453.731 180.155L454.007 179.738C454.561 180.105 455.115 180.474 455.669 180.846L455.39 181.261C455.942 181.631 456.494 182.005 457.046 182.381L457.328 181.968C457.881 182.345 458.433 182.724 458.985 183.106L458.701 183.517C459.252 183.898 459.803 184.282 460.353 184.669L460.64 184.259C461.192 184.646 461.743 185.036 462.293 185.428L462.003 185.836C462.547 186.223 463.091 186.613 463.634 187.005L463.926 186.6C464.466 186.99 465.005 187.382 465.544 187.777L465.249 188.18C465.787 188.574 466.324 188.971 466.861 189.37L467.159 188.968C467.697 189.368 468.235 189.77 468.772 190.175L468.472 190.574C469.008 190.978 469.544 191.385 470.079 191.793L470.383 191.396C470.918 191.805 471.453 192.216 471.988 192.63L471.682 193.025C472.207 193.431 472.731 193.84 473.256 194.251L473.564 193.857C474.089 194.269 474.613 194.682 475.137 195.099L474.826 195.49C475.349 195.906 475.872 196.323 476.394 196.744L476.708 196.354C477.231 196.775 477.753 197.198 478.275 197.623L477.959 198.011C478.481 198.436 479.001 198.863 479.522 199.292L479.84 198.907C480.356 199.333 480.872 199.761 481.388 200.192L481.067 200.576C481.577 201.002 482.087 201.431 482.596 201.862L482.919 201.48C483.429 201.911 483.938 202.345 484.447 202.781L484.122 203.16C484.63 203.596 485.137 204.033 485.644 204.473L485.972 204.095C486.479 204.535 486.987 204.977 487.493 205.422L487.163 205.798C487.669 206.242 488.174 206.688 488.679 207.136L489.011 206.762C489.51 207.205 490.008 207.65 490.505 208.097L490.171 208.469C490.666 208.914 491.16 209.361 491.654 209.81L491.991 209.441C492.485 209.89 492.979 210.342 493.472 210.796L493.134 211.164C493.627 211.618 494.119 212.073 494.61 212.531L494.951 212.165C495.443 212.623 495.934 213.083 496.425 213.545L496.082 213.909C496.572 214.371 497.062 214.834 497.551 215.3L497.895 214.938C498.377 215.397 498.858 215.858 499.339 216.321L498.992 216.681C499.471 217.143 499.95 217.607 500.429 218.074L500.778 217.715C501.257 218.182 501.735 218.651 502.213 219.122L501.862 219.478C502.339 219.948 502.816 220.42 503.291 220.895L503.644 220.54C504.121 221.015 504.596 221.492 505.071 221.971L504.717 222.323C505.19 222.8 505.663 223.279 506.135 223.76L506.491 223.41C506.958 223.885 507.423 224.362 507.888 224.841L507.529 225.189C507.994 225.667 508.457 226.148 508.92 226.63L509.281 226.283C509.744 226.766 510.207 227.251 510.669 227.737L510.306 228.081C510.768 228.567 511.228 229.055 511.688 229.545L512.053 229.202C512.513 229.692 512.973 230.184 513.432 230.678L513.066 231.019C513.523 231.511 513.979 232.005 514.435 232.501L514.803 232.162C515.254 232.653 515.704 233.145 516.153 233.639L515.783 233.975C516.232 234.468 516.68 234.963 517.127 235.46L517.498 235.126C517.946 235.623 518.393 236.122 518.839 236.623L518.466 236.956C518.911 237.456 519.356 237.958 519.8 238.462L520.175 238.132C520.619 238.636 521.063 239.143 521.506 239.651L521.129 239.979C521.571 240.486 522.012 240.995 522.452 241.505L522.83 241.179C523.265 241.683 523.7 242.189 524.133 242.697L523.753 243.022C524.185 243.529 524.617 244.038 525.049 244.548L525.431 244.226C525.862 244.737 526.293 245.25 526.723 245.764L526.34 246.085C526.769 246.599 527.198 247.115 527.626 247.632L528.011 247.313C528.439 247.831 528.867 248.351 529.293 248.872L528.906 249.189C529.333 249.71 529.758 250.232 530.182 250.756L530.571 250.441C530.99 250.96 531.409 251.479 531.827 252L531.437 252.313C531.853 252.833 532.269 253.355 532.685 253.879L533.076 253.568C533.492 254.092 533.907 254.618 534.321 255.145L533.927 255.454C534.341 255.98 534.753 256.509 535.165 257.039L535.56 256.732C535.972 257.262 536.383 257.795 536.794 258.328L536.397 258.633C536.807 259.166 537.216 259.701 537.624 260.237L538.022 259.934C538.427 260.466 538.83 261 539.233 261.535L538.834 261.836C539.235 262.368 539.635 262.902 540.034 263.438L540.435 263.139C540.834 263.675 541.233 264.213 541.63 264.752L541.228 265.049C541.625 265.587 542.021 266.127 542.417 266.669L542.821 266.374C543.216 266.917 543.611 267.46 544.005 268.006L543.6 268.299C543.993 268.843 544.386 269.389 544.777 269.937L545.184 269.646C545.574 270.192 545.963 270.739 546.352 271.288L545.943 271.577C546.328 272.121 546.712 272.666 547.095 273.213L547.504 272.926C547.887 273.474 548.27 274.022 548.651 274.573L548.24 274.858C548.356 275.025 548.472 275.192 548.587 275.36C548.852 275.743 549.116 276.127 549.38 276.511L549.792 276.228C550.171 276.782 550.55 277.336 550.927 277.893L550.513 278.173C550.89 278.729 551.266 279.286 551.641 279.844L552.056 279.566C552.432 280.125 552.806 280.685 553.18 281.247L552.763 281.524C553.132 282.079 553.499 282.635 553.866 283.192L554.283 282.918C554.65 283.476 555.016 284.035 555.381 284.596L554.962 284.869C555.326 285.429 555.69 285.99 556.052 286.553L556.473 286.283C556.835 286.846 557.197 287.411 557.558 287.978L557.136 288.246C557.293 288.493 557.45 288.739 557.606 288.986C557.809 289.306 558.012 289.627 558.214 289.948L558.637 289.681Z" stroke="white" stroke-dasharray="2 2"/>
<path d="M530 542L533.487 546.602L535.729 541.281L530 542ZM532.552 543.618L534.382 544.389L534.77 543.467L532.94 542.696L532.552 543.618ZM536.213 545.16L538.043 545.931L538.431 545.01L536.601 544.239L536.213 545.16ZM539.874 546.702L541.704 547.474L542.092 546.552L540.262 545.781L539.874 546.702ZM543.535 548.245L545.365 549.016L545.753 548.094L543.923 547.323L543.535 548.245ZM547.196 549.787L549.026 550.558L549.414 549.637L547.584 548.866L547.196 549.787ZM550.857 551.33L552.687 552.101L553.075 551.179L551.245 550.408L550.857 551.33ZM554.518 552.872L556.348 553.643L556.736 552.722L554.906 551.95L554.518 552.872ZM558.179 554.414L560.009 555.186L560.398 554.264L558.567 553.493L558.179 554.414ZM561.84 555.957L563.67 556.728L564.059 555.806L562.228 555.035L561.84 555.957ZM565.501 557.499L567.331 558.27L567.72 557.349L565.889 556.578L565.501 557.499ZM569.162 559.041L570.992 559.813L571.381 558.891L569.55 558.12L569.162 559.041ZM572.823 560.584L574.653 561.355L575.042 560.433L573.211 559.662L572.823 560.584ZM576.484 562.126L578.314 562.897L578.703 561.976L576.872 561.205L576.484 562.126ZM580.145 563.669L581.975 564.44L582.364 563.518L580.533 562.747L580.145 563.669ZM583.806 565.211L585.636 565.982L586.025 565.061L584.194 564.289L583.806 565.211ZM587.467 566.753L589.297 567.525L589.686 566.603L587.855 565.832L587.467 566.753ZM591.128 568.296L592.958 569.067L593.347 568.145L591.516 567.374L591.128 568.296ZM594.789 569.838L596.619 570.609L597.008 569.688L595.177 568.917L594.789 569.838ZM598.45 571.38L600.28 572.152L600.669 571.23L598.838 570.459L598.45 571.38ZM602.111 572.923L603.941 573.694L604.33 572.772L602.499 572.001L602.111 572.923ZM605.772 574.465L607.602 575.236L607.991 574.315L606.16 573.544L605.772 574.465ZM609.433 576.008L611.264 576.779L611.652 575.857L609.821 575.086L609.433 576.008ZM613.094 577.55L614.925 578.321L615.313 577.4L613.482 576.628L613.094 577.55ZM616.755 579.092L618.586 579.864L618.974 578.942L617.143 578.171L616.755 579.092ZM620.416 580.635L622.247 581.406L622.635 580.484L620.804 579.713L620.416 580.635ZM624.077 582.177L625.908 582.948L626.296 582.027L624.465 581.256L624.077 582.177ZM627.738 583.719L629.569 584.491L629.957 583.569L628.126 582.798L627.738 583.719ZM631.399 585.262L633.23 586.033L633.618 585.111L631.787 584.34L631.399 585.262ZM635.06 586.804L636.891 587.575L637.279 586.654L635.448 585.883L635.06 586.804ZM638.721 588.347L640.552 589.118L640.94 588.196L639.109 587.425L638.721 588.347ZM642.382 589.889L644.213 590.66L644.601 589.739L642.77 588.967L642.382 589.889ZM646.043 591.431L647.874 592.203L648.262 591.281L646.431 590.51L646.043 591.431ZM649.704 592.974L651.535 593.745L651.923 592.823L650.092 592.052L649.704 592.974ZM653.365 594.516L655.196 595.287L655.584 594.366L653.753 593.595L653.365 594.516ZM657.026 596.058L658.857 596.83L659.245 595.908L657.415 595.137L657.026 596.058ZM660.687 597.601L662.518 598.372L662.906 597.45L661.076 596.679L660.687 597.601ZM664.348 599.143L666.179 599.914L666.567 598.993L664.737 598.222L664.348 599.143ZM668.009 600.686L669.84 601.457L670.228 600.535L668.398 599.764L668.009 600.686ZM671.67 602.228L673.501 602.999L673.889 602.078L672.059 601.306L671.67 602.228ZM675.331 603.77L677.162 604.542L677.55 603.62L675.72 602.849L675.331 603.77ZM678.992 605.313L680.823 606.084L681.211 605.162L679.381 604.391L678.992 605.313ZM682.653 606.855L684.484 607.626L684.872 606.705L683.042 605.934L682.653 606.855ZM686.314 608.397L688.145 609.169L688.533 608.247L686.703 607.476L686.314 608.397ZM689.975 609.94L691.806 610.711L692.194 609.789L690.364 609.018L689.975 609.94ZM693.636 611.482L695.467 612.253L695.855 611.332L694.025 610.561L693.636 611.482ZM697.298 613.025L699.128 613.796L699.516 612.874L697.686 612.103L697.298 613.025ZM700.959 614.567L702.789 615.338L703.177 614.417L701.347 613.645L700.959 614.567ZM704.62 616.109L706.45 616.881L706.838 615.959L705.008 615.188L704.62 616.109ZM708.281 617.652L710.111 618.423L710.499 617.501L708.669 616.73L708.281 617.652ZM711.942 619.194L713.772 619.965L714.16 619.044L712.33 618.273L711.942 619.194ZM715.603 620.736L717.433 621.508L717.821 620.586L715.991 619.815L715.603 620.736ZM719.264 622.279L721.094 623.05L721.482 622.128L719.652 621.357L719.264 622.279ZM722.925 623.821L724.755 624.592L725.143 623.671L723.313 622.9L722.925 623.821ZM726.586 625.364L728.416 626.135L728.804 625.213L726.974 624.442L726.586 625.364ZM730.247 626.906L732.077 627.677L732.465 626.756L730.635 625.984L730.247 626.906ZM733.908 628.448L735.738 629.22L736.126 628.298L734.296 627.527L733.908 628.448ZM737.569 629.991L739.399 630.762L739.788 629.84L737.957 629.069L737.569 629.991ZM741.23 631.533L743.06 632.304L743.449 631.383L741.618 630.612L741.23 631.533ZM744.891 633.075L745.806 633.461L746.194 632.539L745.279 632.154L744.891 633.075Z" fill="white"/>
<circle cx="586" cy="566" r="4" fill="#FF5029"/>
<circle cx="633" cy="586" r="4" fill="#B287FD"/>
</svg>
