<svg width="390" height="431" viewBox="0 0 390 431" fill="none" xmlns="http://www.w3.org/2000/svg">
<g clip-path="url(#clip0_225_8506)">
<rect width="390" height="431" fill="#F2F2F5"/>
<path d="M530.282 -51.1652C645.336 -32.6274 898.996 40.2074 882.235 125.028C865.475 209.849 700.91 213.251 486.409 170.866L442.536 392.896C322.501 369.178 59.7323 297.629 77.6194 207.106C95.5066 116.583 271.907 128.48 486.409 170.866L530.282 -51.1652Z" fill="black"/>
<path d="M530.282 -51.1652C645.336 -32.6274 898.996 40.2074 882.235 125.028C865.475 209.849 700.91 213.251 486.409 170.866C271.907 128.48 95.5066 116.583 77.6194 207.106C59.7322 297.629 322.501 369.178 442.536 392.896L530.282 -51.1652Z" stroke="black" stroke-width="2" stroke-dasharray="2 2"/>
<path d="M530.282 -97.1652C645.336 -78.6274 898.996 -5.79262 882.235 79.0281C865.475 163.849 700.91 167.251 486.409 124.866L442.536 346.896C322.501 323.178 59.7323 251.629 77.6194 161.106C95.5066 70.5828 271.907 82.4804 486.409 124.866L530.282 -97.1652Z" fill="#F2F2F5"/>
<path d="M530.282 -97.1652C645.336 -78.6274 898.996 -5.79262 882.235 79.0281C865.475 163.849 700.91 167.251 486.409 124.866C271.907 82.4804 95.5066 70.5828 77.6194 161.106C59.7322 251.629 322.501 323.178 442.536 346.896L530.282 -97.1652Z" stroke="black" stroke-width="2" stroke-dasharray="2 2"/>
<circle cx="152" cy="252" r="5" fill="#FF5029"/>
<path d="M-133.058 167.531L-132.075 167.347L-133.058 167.531ZM-117.214 87.4697L-116.397 88.0458L-117.214 87.4697ZM157.789 203.866L163.867 194.048L152.325 193.694L157.789 203.866ZM-86.0998 249.141C-86.3373 248.909 -86.574 248.677 -86.8099 248.444L-88.2146 249.868C-87.9761 250.103 -87.7368 250.338 -87.4968 250.572L-86.0998 249.141ZM-88.2163 247.041C-88.6837 246.57 -89.1479 246.097 -89.609 245.622L-91.044 247.015C-90.5779 247.495 -90.1087 247.974 -89.6362 248.45L-88.2163 247.041ZM-90.985 244.189C-91.4417 243.709 -91.8953 243.226 -92.3456 242.741L-93.8106 244.103C-93.3553 244.593 -92.8968 245.081 -92.435 245.567L-90.985 244.189ZM-93.6908 241.278C-94.1367 240.788 -94.5793 240.295 -95.0186 239.801L-96.5131 241.13C-96.0689 241.63 -95.6214 242.128 -95.1706 242.623L-93.6908 241.278ZM-96.3312 238.309C-96.7664 237.808 -97.1982 237.306 -97.6267 236.802L-99.1504 238.098C-98.7171 238.607 -98.2804 239.115 -97.8404 239.621L-96.3312 238.309ZM-98.9041 235.282C-99.3283 234.772 -99.749 234.26 -100.166 233.746L-101.719 235.007C-101.297 235.527 -100.871 236.045 -100.442 236.561L-98.9041 235.282ZM-101.41 232.197C-101.822 231.678 -102.23 231.157 -102.635 230.635L-104.216 231.86C-103.806 232.388 -103.393 232.915 -102.977 233.44L-101.41 232.197ZM-103.844 229.057C-104.244 228.528 -104.64 227.998 -105.033 227.466L-106.642 228.655C-106.244 229.193 -105.843 229.729 -105.439 230.264L-103.844 229.057ZM-106.204 225.862C-106.592 225.324 -106.976 224.785 -107.357 224.244L-108.993 225.394C-108.608 225.941 -108.219 226.487 -107.826 227.032L-106.204 225.862ZM-108.489 222.613C-108.864 222.066 -109.235 221.518 -109.603 220.968L-111.265 222.08C-110.894 222.636 -110.518 223.191 -110.139 223.744L-108.489 222.613ZM-110.697 219.31C-111.058 218.755 -111.416 218.198 -111.77 217.64L-113.459 218.711C-113.101 219.276 -112.739 219.839 -112.373 220.401L-110.697 219.31ZM-112.823 215.956C-113.171 215.392 -113.516 214.826 -113.856 214.26L-115.571 215.289C-115.226 215.863 -114.878 216.435 -114.525 217.007L-112.823 215.956ZM-114.867 212.552C-115.201 211.979 -115.531 211.405 -115.857 210.83L-117.597 211.817C-117.267 212.399 -116.932 212.98 -116.594 213.56L-114.867 212.552ZM-116.825 209.097C-117.145 208.516 -117.46 207.935 -117.771 207.352L-119.536 208.294C-119.22 208.884 -118.901 209.473 -118.578 210.061L-116.825 209.097ZM-118.695 205.595C-119 205.006 -119.3 204.416 -119.597 203.826L-121.385 204.722C-121.084 205.32 -120.78 205.918 -120.471 206.514L-118.695 205.595ZM-120.474 202.046C-120.763 201.45 -121.048 200.853 -121.329 200.255L-123.14 201.104C-122.855 201.71 -122.567 202.315 -122.274 202.919L-120.474 202.046ZM-122.16 198.451C-122.433 197.848 -122.702 197.244 -122.966 196.639L-124.799 197.439C-124.531 198.052 -124.259 198.665 -123.982 199.276L-122.16 198.451ZM-123.748 194.815C-124.005 194.204 -124.257 193.593 -124.505 192.98L-126.359 193.73C-126.108 194.351 -125.852 194.971 -125.591 195.591L-123.748 194.815ZM-125.236 191.136C-125.476 190.519 -125.711 189.901 -125.942 189.282L-127.816 189.981C-127.582 190.608 -127.344 191.235 -127.1 191.86L-125.236 191.136ZM-126.622 187.418C-126.844 186.794 -127.062 186.17 -127.275 185.545L-129.168 186.19C-128.952 186.824 -128.731 187.457 -128.505 188.089L-126.622 187.418ZM-127.9 183.664C-128.105 183.034 -128.304 182.403 -128.499 181.772L-130.41 182.361C-130.213 183.002 -130.01 183.642 -129.803 184.281L-127.9 183.664ZM-129.07 179.872C-129.256 179.237 -129.437 178.602 -129.613 177.966L-131.54 178.499C-131.362 179.144 -131.178 179.789 -130.99 180.434L-129.07 179.872ZM-130.127 176.05C-130.294 175.41 -130.455 174.769 -130.612 174.127L-132.555 174.602C-132.396 175.253 -132.232 175.904 -132.062 176.554L-130.127 176.05ZM-131.068 172.198C-131.215 171.553 -131.357 170.908 -131.493 170.262L-133.45 170.677C-133.311 171.332 -133.167 171.988 -133.018 172.643L-131.068 172.198ZM-131.889 168.319C-131.953 167.995 -132.015 167.671 -132.075 167.347L-134.041 167.715C-133.979 168.044 -133.916 168.374 -133.852 168.703L-131.889 168.319ZM-132.075 167.347C-132.136 167.021 -132.196 166.696 -132.254 166.37L-134.223 166.723C-134.164 167.053 -134.103 167.384 -134.041 167.715L-132.075 167.347ZM-132.587 164.419C-132.694 163.766 -132.795 163.113 -132.89 162.461L-134.869 162.75C-134.772 163.413 -134.67 164.076 -134.562 164.74L-132.587 164.419ZM-133.16 160.499C-133.245 159.843 -133.324 159.188 -133.398 158.533L-135.385 158.757C-135.31 159.422 -135.23 160.088 -135.144 160.755L-133.16 160.499ZM-133.603 156.565C-133.666 155.906 -133.724 155.248 -133.775 154.591L-135.769 154.748C-135.717 155.417 -135.658 156.086 -135.594 156.756L-133.603 156.565ZM-133.914 152.616C-133.955 151.957 -133.99 151.298 -134.019 150.641L-136.017 150.729C-135.987 151.398 -135.952 152.068 -135.91 152.739L-133.914 152.616ZM-134.089 148.663C-134.107 148.002 -134.119 147.342 -134.125 146.683L-136.125 146.702C-136.119 147.372 -136.107 148.044 -136.088 148.717L-134.089 148.663ZM-134.126 144.704C-134.12 144.043 -134.109 143.384 -134.091 142.726L-136.091 142.674C-136.108 143.343 -136.12 144.015 -136.126 144.687L-134.126 144.704ZM-134.021 140.749C-133.992 140.089 -133.957 139.43 -133.915 138.773L-135.911 138.647C-135.953 139.317 -135.989 139.988 -136.019 140.66L-134.021 140.749ZM-133.773 136.799C-133.719 136.141 -133.66 135.485 -133.594 134.83L-135.584 134.631C-135.651 135.298 -135.712 135.967 -135.766 136.637L-133.773 136.799ZM-133.379 132.864C-133.301 132.208 -133.216 131.554 -133.126 130.902L-135.107 130.628C-135.199 131.293 -135.285 131.959 -135.365 132.628L-133.379 132.864ZM-132.836 128.946C-132.733 128.294 -132.624 127.644 -132.509 126.996L-134.478 126.646C-134.596 127.306 -134.707 127.969 -134.812 128.634L-132.836 128.946ZM-132.144 125.053C-132.016 124.406 -131.882 123.76 -131.742 123.117L-133.696 122.69C-133.839 123.346 -133.976 124.005 -134.106 124.665L-132.144 125.053ZM-131.301 121.189C-131.148 120.547 -130.988 119.908 -130.823 119.271L-132.758 118.768C-132.927 119.418 -133.09 120.07 -133.246 120.724L-131.301 121.189ZM-130.307 117.363C-130.128 116.728 -129.943 116.096 -129.752 115.466L-131.666 114.886C-131.861 115.529 -132.05 116.174 -132.232 116.822L-130.307 117.363ZM-129.16 113.58C-128.956 112.953 -128.746 112.329 -128.529 111.707L-130.418 111.05C-130.639 111.684 -130.854 112.322 -131.062 112.961L-129.16 113.58ZM-127.861 109.847C-127.632 109.229 -127.397 108.614 -127.155 108.001L-129.016 107.268C-129.263 107.893 -129.503 108.521 -129.737 109.152L-127.861 109.847ZM-126.412 106.17C-126.158 105.562 -125.897 104.957 -125.631 104.355L-127.46 103.545C-127.732 104.16 -127.997 104.778 -128.257 105.398L-126.412 106.17ZM-124.812 102.556C-124.533 101.96 -124.248 101.366 -123.957 100.775L-125.751 99.8907C-126.048 100.494 -126.339 101.1 -126.624 101.709L-124.812 102.556ZM-123.065 99.0118C-122.762 98.4274 -122.452 97.846 -122.137 97.2677L-123.892 96.3097C-124.214 96.9001 -124.53 97.4938 -124.84 98.0904L-123.065 99.0118ZM-121.172 95.5433C-120.845 94.9721 -120.511 94.4041 -120.172 93.8392L-121.886 92.809C-122.233 93.3857 -122.573 93.9657 -122.907 94.549L-121.172 95.5433ZM-119.136 92.156C-118.786 91.5991 -118.429 91.0455 -118.066 90.4952L-119.736 89.3946C-120.107 89.9565 -120.471 90.5217 -120.829 91.0904L-119.136 92.156ZM-116.962 88.857C-116.775 88.5857 -116.587 88.3153 -116.397 88.0458L-118.032 86.8937C-118.225 87.1689 -118.418 87.445 -118.609 87.7219L-116.962 88.857ZM-116.397 88.0458C-116.203 87.7714 -116.009 87.4981 -115.812 87.2259L-117.435 86.0566C-117.635 86.3345 -117.834 86.6136 -118.032 86.8937L-116.397 88.0458ZM-114.618 85.6053C-114.215 85.0692 -113.805 84.5374 -113.391 84.0101L-114.963 82.7736C-115.386 83.3119 -115.804 83.8548 -116.216 84.4021L-114.618 85.6053ZM-112.129 82.4409C-111.704 81.9223 -111.272 81.4082 -110.836 80.8985L-112.355 79.5973C-112.8 80.1175 -113.24 80.6423 -113.675 81.1717L-112.129 82.4409ZM-109.51 79.3833C-109.063 78.883 -108.611 78.3872 -108.153 77.8959L-109.617 76.5327C-110.084 77.0341 -110.545 77.5401 -111.001 78.0508L-109.51 79.3833ZM-106.765 76.4367C-106.298 75.9554 -105.826 75.4786 -105.348 75.0065L-106.755 73.5843C-107.242 74.066 -107.724 74.5525 -108.201 75.0436L-106.765 76.4367ZM-103.902 73.6055C-103.416 73.1437 -102.924 72.6865 -102.428 72.234L-103.775 70.7558C-104.281 71.2174 -104.783 71.6838 -105.279 72.1549L-103.902 73.6055ZM-100.925 70.8922C-100.42 70.4505 -99.9108 70.0134 -99.3963 69.581L-100.683 68.0499C-101.208 68.4909 -101.728 68.9366 -102.242 69.3872L-100.925 70.8922ZM-97.8419 68.3007C-97.32 67.8795 -96.7934 67.4629 -96.2621 67.0511L-97.4873 65.4704C-98.029 65.8902 -98.5659 66.3149 -99.098 66.7444L-97.8419 68.3007ZM-94.6577 65.8325C-94.1194 65.4319 -93.5766 65.036 -93.0293 64.6449L-94.1921 63.0177C-94.7499 63.4163 -95.3031 63.8198 -95.8518 64.2281L-94.6577 65.8325ZM-91.3792 63.4897C-90.8262 63.1104 -90.2688 62.7358 -89.7071 62.366L-90.8067 60.6955C-91.3791 61.0722 -91.947 61.4539 -92.5105 61.8404L-91.3792 63.4897ZM-88.0134 61.2739C-87.4461 60.9156 -86.8745 60.5621 -86.2988 60.2134L-87.3349 58.5027C-87.9213 58.8579 -88.5034 59.2179 -89.0813 59.5829L-88.0134 61.2739ZM-84.5651 59.1852C-83.9852 58.8485 -83.4013 58.5166 -82.8133 58.1895L-83.7857 56.4418C-84.3843 56.7748 -84.9789 57.1128 -85.5694 57.4556L-84.5651 59.1852ZM-81.043 57.2255C-80.4508 56.91 -79.8546 56.5992 -79.2546 56.2933L-80.1632 54.5116C-80.7738 54.8229 -81.3806 55.1392 -81.9834 55.4604L-81.043 57.2255ZM-77.4498 55.3931C-76.8471 55.0992 -76.2407 54.8101 -75.6305 54.5257L-76.4754 52.7129C-77.0961 53.0022 -77.7132 53.2964 -78.3264 53.5955L-77.4498 55.3931ZM-73.7955 53.6899C-73.1824 53.417 -72.5656 53.1489 -71.9453 52.8856L-72.7268 51.0446C-73.3576 51.3124 -73.985 51.5851 -74.6087 51.8626L-73.7955 53.6899ZM-70.0812 52.113C-69.4596 51.8616 -68.8345 51.6149 -68.206 51.3729L-68.9245 49.5065C-69.5635 49.7525 -70.199 50.0033 -70.8311 50.259L-70.0812 52.113ZM-66.3175 50.664C-65.687 50.4333 -65.0533 50.2074 -64.4163 49.9862L-65.0724 48.0969C-65.7198 48.3217 -66.3639 48.5513 -67.0048 48.7858L-66.3175 50.664ZM-62.5045 49.3398C-61.8674 49.1301 -61.2271 48.9252 -60.5837 48.725L-61.1781 46.8153C-61.8317 47.0187 -62.4822 47.227 -63.1296 47.44L-62.5045 49.3398ZM-58.652 48.1407C-58.0076 47.9514 -57.3602 47.7668 -56.7098 47.5869L-57.243 45.6593C-57.9035 45.842 -58.5611 46.0295 -59.2157 46.2218L-58.652 48.1407ZM-54.761 47.0642C-54.1115 46.8955 -53.4593 46.7313 -52.8042 46.5719L-53.2772 44.6286C-53.9422 44.7905 -54.6045 44.9571 -55.264 45.1285L-54.761 47.0642ZM-50.8384 46.1094C-50.1833 45.9605 -49.5256 45.8163 -48.8651 45.6767L-49.2787 43.7199C-49.949 43.8616 -50.6166 44.008 -51.2815 44.1591L-50.8384 46.1094ZM-46.8882 45.2744C-46.5576 45.2097 -46.2264 45.1461 -45.8945 45.0837L-46.2641 43.1181C-46.6008 43.1815 -46.9369 43.246 -47.2724 43.3116L-46.8882 45.2744ZM-45.8945 45.0837C-45.5632 45.0214 -45.2314 44.9603 -44.8993 44.9004L-45.2543 42.9321C-45.5913 42.9929 -45.9279 43.0549 -46.2641 43.1181L-45.8945 45.0837ZM-42.902 44.5553C-42.2367 44.4454 -41.5697 44.3402 -40.9012 44.2397L-41.1984 42.2619C-41.8765 42.3638 -42.5531 42.4705 -43.228 42.5821L-42.902 44.5553ZM-38.8956 43.9531C-38.2269 43.8624 -37.5567 43.7764 -36.885 43.6951L-37.1254 41.7096C-37.8065 41.7921 -38.4861 41.8793 -39.1643 41.9712L-38.8956 43.9531ZM-34.8714 43.4658C-34.2006 43.3942 -33.5286 43.3272 -32.8552 43.2648L-33.0397 41.2733C-33.7223 41.3366 -34.4037 41.4045 -35.0837 41.4771L-34.8714 43.4658ZM-30.8354 43.0918C-30.1625 43.0388 -29.4883 42.9905 -28.8129 42.9466L-28.9424 40.9508C-29.6269 40.9952 -30.3102 41.0443 -30.9923 41.098L-30.8354 43.0918ZM-26.7901 42.8291C-26.116 42.7946 -25.4409 42.7645 -24.7647 42.739L-24.8403 40.7404C-25.5254 40.7663 -26.2095 40.7967 -26.8925 40.8318L-26.7901 42.8291ZM-22.7371 42.6758C-22.0627 42.6593 -21.3873 42.6473 -20.711 42.6397L-20.7335 40.6398C-21.4186 40.6475 -22.1028 40.6597 -22.7861 40.6764L-22.7371 42.6758ZM-18.6835 42.6301C-18.0081 42.6313 -17.3318 42.6369 -16.6548 42.6469L-16.6252 40.6471C-17.3109 40.637 -17.9958 40.6313 -18.6799 40.6301L-18.6835 42.6301ZM-14.6281 42.6899C-13.9533 42.7085 -13.2777 42.7315 -12.6015 42.7588L-12.5208 40.7604C-13.2055 40.7328 -13.8895 40.7095 -14.5728 40.6907L-14.6281 42.6899ZM-10.5747 42.8534C-9.90061 42.8892 -9.22585 42.9292 -8.55051 42.9735L-8.41964 40.9778C-9.10328 40.9329 -9.78637 40.8924 -10.4688 40.8562L-10.5747 42.8534ZM-6.52779 43.1188C-5.85429 43.1713 -5.18025 43.2281 -4.50573 43.2891L-4.32555 41.2973C-5.00822 41.2355 -5.69045 41.178 -6.37216 41.1248L-6.52779 43.1188ZM-2.48692 43.4842C-1.81525 43.5532 -1.14315 43.6265 -0.470679 43.7038L-0.242079 41.7169C-0.922561 41.6386 -1.60269 41.5646 -2.28242 41.4947L-2.48692 43.4842ZM1.54408 43.9479C2.21401 44.0332 2.88426 44.1226 3.5548 44.2161L3.83097 42.2352C3.15257 42.1406 2.47442 42.0502 1.79658 41.9639L1.54408 43.9479ZM5.5621 44.5081C6.23023 44.6093 6.8986 44.7147 7.56714 44.824L7.89006 42.8503C7.21379 42.7396 6.53766 42.6331 5.86174 42.5307L5.5621 44.5081ZM9.56725 45.1633C10.2325 45.2801 10.8979 45.401 11.5633 45.5259L11.9322 43.5602C11.2591 43.4339 10.5861 43.3116 9.91324 43.1935L9.56725 45.1633ZM13.5564 45.9118C14.2188 46.044 14.8812 46.1802 15.5435 46.3204L15.9576 44.3637C15.2877 44.222 14.6178 44.0842 13.9479 43.9505L13.5564 45.9118ZM17.5262 46.7517C18.1859 46.8992 18.8456 47.0506 19.5052 47.2059L19.9636 45.2592C19.2967 45.1021 18.6297 44.949 17.9625 44.7999L17.5262 46.7517ZM21.4772 47.6821C22.1331 47.8444 22.7889 48.0105 23.4444 48.1805L23.9465 46.2446C23.2837 46.0727 22.6207 45.9047 21.9575 45.7406L21.4772 47.6821ZM25.4073 48.7013C26.0591 48.8782 26.7107 49.0589 27.362 49.2433L27.9071 47.3191C27.2487 47.1326 26.59 46.9499 25.931 46.7711L25.4073 48.7013ZM29.3119 49.8073C29.9604 49.9988 30.6085 50.194 31.2562 50.393L31.8436 48.4812C31.1889 48.28 30.5337 48.0827 29.8782 47.8892L29.3119 49.8073ZM33.1923 50.9994C33.8362 51.205 34.4798 51.4143 35.1229 51.6274L35.7519 49.7289C35.1019 49.5135 34.4514 49.302 33.8005 49.0942L33.1923 50.9994ZM37.0466 52.2764C37.6857 52.4958 38.3242 52.719 38.9623 52.9458L39.6322 51.0613C38.9874 50.8321 38.3421 50.6066 37.6962 50.3848L37.0466 52.2764ZM40.8719 53.6363C41.5062 53.8696 42.14 54.1065 42.7732 54.3471L43.4835 52.4775C42.8437 52.2344 42.2032 51.995 41.5621 51.7592L40.8719 53.6363ZM44.6666 55.0781C45.2963 55.3251 45.9252 55.5757 46.5535 55.8298L47.3036 53.9758C46.6688 53.719 46.0332 53.4658 45.3969 53.2162L44.6666 55.0781ZM48.4306 56.6009C48.743 56.7312 49.0553 56.8624 49.3674 56.9945L50.147 55.1527C49.8316 55.0192 49.5161 54.8867 49.2003 54.755L48.4306 56.6009ZM49.3674 56.9945C49.6789 57.1264 49.9901 57.2591 50.3009 57.3925L51.0902 55.5549C50.7762 55.42 50.4618 55.2859 50.147 55.1527L49.3674 56.9945ZM52.1611 58.2032C52.78 58.4768 53.3972 58.7536 54.013 59.0336L54.8409 57.213C54.2188 56.9301 53.5951 56.6504 52.9698 56.374L52.1611 58.2032ZM55.8558 59.8833C56.4687 60.1699 57.08 60.4596 57.6896 60.7524L58.5556 58.9496C57.9397 58.6538 57.3221 58.361 56.7028 58.0715L55.8558 59.8833ZM59.5143 61.6408C60.1211 61.9401 60.7261 62.2426 61.3295 62.5481L62.2331 60.7639C61.6235 60.4552 61.0122 60.1496 60.3992 59.8472L59.5143 61.6408ZM63.1352 63.4745C63.7356 63.7865 64.3343 64.1016 64.9312 64.4197L65.8719 62.6548C65.2688 62.3334 64.664 62.0151 64.0574 61.6998L63.1352 63.4745ZM66.7169 65.3835C67.3107 65.708 67.9027 66.0356 68.4929 66.3661L69.4702 64.6212C68.874 64.2872 68.2759 63.9563 67.6759 63.6285L66.7169 65.3835ZM70.2583 67.367C70.8451 67.7038 71.4301 68.0436 72.0131 68.3863L73.0266 66.6621C72.4376 66.3158 71.8466 65.9726 71.2538 65.6324L70.2583 67.367ZM73.7575 69.4239C74.3372 69.7728 74.915 70.1247 75.4907 70.4794L76.5399 68.7767C75.9582 68.4183 75.3746 68.0628 74.7889 67.7103L73.7575 69.4239ZM77.2129 71.5531C77.7853 71.9141 78.3557 72.2779 78.924 72.6447L80.0084 70.9642C79.4343 70.5937 78.8581 70.2261 78.2798 69.8614L77.2129 71.5531ZM80.6232 73.7538C81.188 74.1267 81.7507 74.5024 82.3112 74.8809L83.4305 73.2234C82.8642 72.841 82.2957 72.4614 81.7251 72.0847L80.6232 73.7538ZM83.9871 76.0254C84.5439 76.4099 85.0984 76.7972 85.6507 77.1872L86.8044 75.5535C86.2464 75.1594 85.6861 74.7682 85.1237 74.3797L83.9871 76.0254ZM87.3026 78.3667C87.8512 78.7628 88.3976 79.1617 88.9416 79.5632L90.1293 77.9541C89.5796 77.5483 89.0276 77.1454 88.4733 76.7452L87.3026 78.3667ZM90.568 80.7768C91.1082 81.1844 91.6462 81.5947 92.1817 82.0077L93.403 80.4239C92.8619 80.0066 92.3184 79.5921 91.7725 79.1802L90.568 80.7768ZM93.7821 83.2552C94.3136 83.6741 94.8427 84.0956 95.3693 84.5197L96.6238 82.9621C96.0916 82.5335 95.557 82.1076 95.02 81.6844L93.7821 83.2552ZM96.9431 85.801C97.4655 86.231 97.9854 86.6635 98.5028 87.0986L99.7901 85.568C99.2673 85.1283 98.7419 84.6912 98.2141 84.2568L96.9431 85.801ZM100.049 88.4132C100.562 88.8542 101.073 89.2979 101.581 89.744L102.901 88.2412C102.387 87.7904 101.871 87.3421 101.353 86.8963L100.049 88.4132ZM103.098 91.0908C103.602 91.5428 104.103 91.9974 104.601 92.4544L105.953 90.9804C105.449 90.5185 104.943 90.0591 104.434 89.6022L103.098 91.0908ZM106.089 93.8339C106.583 94.2965 107.074 94.7616 107.562 95.2291L108.945 93.7847C108.452 93.3122 107.956 92.8421 107.457 92.3745L106.089 93.8339ZM109.02 96.6408C109.503 97.1141 109.984 97.5898 110.462 98.0679L111.876 96.6542C111.394 96.1709 110.908 95.69 110.419 95.2116L109.02 96.6408ZM111.888 99.5108C112.361 99.9947 112.831 100.481 113.298 100.97L114.744 99.5874C114.272 99.0934 113.796 98.6018 113.318 98.1127L111.888 99.5108ZM114.692 102.443C115.154 102.938 115.613 103.434 116.07 103.933L117.545 102.583C117.084 102.079 116.62 101.577 116.153 101.077L114.692 102.443ZM117.43 105.438C117.881 105.942 118.329 106.449 118.773 106.958L120.279 105.642C119.83 105.127 119.377 104.615 118.921 104.105L117.43 105.438ZM120.1 108.493C120.539 109.007 120.975 109.524 121.408 110.043L122.944 108.762C122.506 108.237 122.065 107.714 121.621 107.194L120.1 108.493ZM122.698 111.607C123.126 112.132 123.55 112.659 123.971 113.187L125.536 111.942C125.11 111.407 124.681 110.874 124.249 110.344L122.698 111.607ZM125.225 114.782C125.64 115.316 126.052 115.852 126.46 116.39L128.053 115.181C127.64 114.637 127.224 114.094 126.804 113.554L125.225 114.782ZM127.676 118.013C127.877 118.285 128.077 118.557 128.277 118.83L129.891 117.649C129.69 117.373 129.487 117.098 129.284 116.823L127.676 118.013ZM128.277 118.83C128.473 119.098 128.668 119.366 128.862 119.635L130.484 118.464C130.287 118.192 130.09 117.921 129.891 117.649L128.277 118.83ZM130.015 121.252C130.398 121.796 130.777 122.34 131.152 122.886L132.8 121.754C132.421 121.201 132.038 120.65 131.651 120.101L130.015 121.252ZM132.267 124.531C132.636 125.082 133.001 125.635 133.362 126.188L135.037 125.096C134.672 124.535 134.302 123.976 133.929 123.418L132.267 124.531ZM134.439 127.861C134.794 128.421 135.146 128.982 135.494 129.545L137.195 128.493C136.843 127.924 136.487 127.356 136.127 126.789L134.439 127.861ZM136.528 131.241C136.87 131.81 137.208 132.38 137.542 132.952L139.269 131.942C138.931 131.364 138.588 130.787 138.242 130.211L136.528 131.241ZM138.534 134.673C138.861 135.25 139.185 135.828 139.504 136.407L141.255 135.441C140.932 134.855 140.605 134.27 140.273 133.685L138.534 134.673ZM140.453 138.154C140.765 138.739 141.074 139.324 141.378 139.911L143.154 138.991C142.845 138.396 142.533 137.803 142.216 137.211L140.453 138.154ZM142.281 141.681C142.579 142.274 142.872 142.868 143.161 143.463L144.96 142.589C144.667 141.986 144.37 141.384 144.068 140.783L142.281 141.681ZM144.017 145.255C144.299 145.855 144.577 146.456 144.849 147.058L146.671 146.232C146.394 145.622 146.113 145.013 145.828 144.404L144.017 145.255ZM145.658 148.873C145.924 149.481 146.185 150.089 146.442 150.698L148.285 149.921C148.025 149.304 147.76 148.687 147.49 148.072L145.658 148.873ZM147.2 152.532C147.449 153.147 147.694 153.763 147.933 154.379L149.797 153.653C149.554 153.029 149.306 152.404 149.053 151.781L147.2 152.532ZM148.641 156.234C148.873 156.855 149.1 157.477 149.322 158.098L151.205 157.425C150.98 156.795 150.75 156.165 150.515 155.535L148.641 156.234ZM149.977 159.974C150.191 160.601 150.4 161.229 150.605 161.858L152.506 161.239C152.299 160.601 152.087 159.964 151.87 159.328L149.977 159.974ZM151.205 163.749C151.4 164.382 151.591 165.016 151.777 165.65L153.696 165.087C153.508 164.444 153.314 163.801 153.115 163.158L151.205 163.749ZM152.322 167.559C152.499 168.198 152.67 168.836 152.837 169.475L154.772 168.97C154.603 168.322 154.429 167.673 154.249 167.025L152.322 167.559ZM153.324 171.398C153.481 172.042 153.634 172.686 153.781 173.33L155.731 172.885C155.581 172.23 155.426 171.576 155.266 170.923L153.324 171.398ZM154.208 175.268C154.346 175.916 154.478 176.564 154.605 177.211L156.568 176.826C156.439 176.169 156.304 175.511 156.165 174.853L154.208 175.268ZM154.971 179.161C155.089 179.813 155.2 180.465 155.307 181.117L157.281 180.795C157.172 180.133 157.059 179.47 156.94 178.808L154.971 179.161ZM155.61 183.077C155.706 183.732 155.796 184.386 155.881 185.041L157.865 184.783C157.778 184.118 157.686 183.452 157.589 182.787L155.61 183.077ZM156.121 187.01C156.195 187.668 156.264 188.326 156.327 188.983L158.318 188.791C158.254 188.123 158.184 187.454 158.108 186.786L156.121 187.01ZM156.5 190.958C156.552 191.617 156.599 192.276 156.64 192.935L158.636 192.811C158.594 192.141 158.547 191.471 158.494 190.8L156.5 190.958ZM156.745 194.915C156.775 195.576 156.799 196.236 156.816 196.896L158.816 196.842C158.797 196.17 158.773 195.498 158.743 194.826L156.745 194.915ZM156.853 198.877C156.859 199.539 156.86 200.199 156.854 200.859L158.854 200.876C158.86 200.204 158.859 199.531 158.853 198.858L156.853 198.877Z" fill="black"/>
</g>
<defs>
<clipPath id="clip0_225_8506">
<rect width="390" height="431" fill="white"/>
</clipPath>
</defs>
</svg>
