<svg width="390" height="431" viewBox="0 0 390 431" fill="none" xmlns="http://www.w3.org/2000/svg">
<g clip-path="url(#clip0_225_8526)">
<rect width="390" height="431" fill="#F2F2F5"/>
<path d="M603.164 -20.0611C704.765 37.0201 917.741 192.87 872.756 266.706C827.77 340.542 672.129 286.979 485.407 173.215L367.65 366.492C263.161 302.83 41.1904 145.045 89.2004 66.2455C137.21 -12.5543 298.684 59.4518 485.407 173.215L603.164 -20.0611Z" fill="black"/>
<path d="M603.164 -20.0611C704.765 37.0201 917.741 192.87 872.756 266.706C827.77 340.542 672.129 286.979 485.407 173.215C298.684 59.4518 137.21 -12.5543 89.2004 66.2455C41.1904 145.045 263.161 302.83 367.65 366.492L603.164 -20.0611Z" stroke="black" stroke-width="2" stroke-dasharray="2 2"/>
<path d="M435.691 -98.7403C548.265 -128.877 809.529 -166.151 828.923 -81.8933C848.318 2.36424 699.536 72.7703 486.458 121.816L537.226 342.373C417.989 369.819 148.938 411.991 128.24 322.069C107.541 232.147 273.381 170.862 486.458 121.816L435.691 -98.7403Z" fill="#F2F2F5"/>
<path d="M435.691 -98.7403C548.265 -128.877 809.529 -166.151 828.923 -81.8933C848.318 2.36424 699.536 72.7703 486.458 121.816C273.381 170.862 107.541 232.147 128.24 322.069C148.938 411.991 417.989 369.819 537.226 342.373L435.691 -98.7403Z" stroke="black" stroke-width="2" stroke-dasharray="2 2"/>
<circle cx="152" cy="252" r="5" fill="#FF5029"/>
<path d="M-65.1164 47.0995L-64.4533 47.8481L-65.1164 47.0995ZM11.7039 19.5414L11.6299 20.5387L11.7039 19.5414ZM53.2031 315.266L64.7489 315.432L59.1203 305.35L53.2031 315.266ZM-110.987 129.326C-110.91 129.003 -110.832 128.681 -110.754 128.359L-112.697 127.886C-112.776 128.211 -112.855 128.537 -112.932 128.863L-110.987 129.326ZM-110.274 126.432C-110.11 125.788 -109.942 125.147 -109.772 124.507L-111.705 123.992C-111.877 124.639 -112.046 125.287 -112.212 125.937L-110.274 126.432ZM-109.25 122.591C-109.072 121.952 -108.891 121.315 -108.707 120.679L-110.628 120.122C-110.814 120.765 -110.997 121.409 -111.177 122.055L-109.25 122.591ZM-108.143 118.773C-107.952 118.139 -107.757 117.506 -107.559 116.875L-109.467 116.276C-109.668 116.914 -109.864 117.554 -110.058 118.195L-108.143 118.773ZM-106.953 114.982C-106.748 114.352 -106.539 113.723 -106.327 113.096L-108.221 112.455C-108.436 113.089 -108.647 113.724 -108.855 114.362L-106.953 114.982ZM-105.68 111.22C-105.46 110.593 -105.237 109.969 -105.011 109.347L-106.89 108.664C-107.119 109.293 -107.345 109.924 -107.567 110.557L-105.68 111.22ZM-104.321 107.484C-104.088 106.864 -103.851 106.246 -103.611 105.63L-105.474 104.904C-105.717 105.527 -105.957 106.152 -106.193 106.78L-104.321 107.484ZM-102.878 103.782C-102.631 103.168 -102.38 102.555 -102.125 101.945L-103.972 101.176C-104.229 101.793 -104.483 102.413 -104.733 103.035L-102.878 103.782ZM-101.351 100.116C-101.089 99.5068 -100.824 98.8999 -100.555 98.2954L-102.383 97.4834C-102.654 98.095 -102.923 98.7091 -103.188 99.3256L-101.351 100.116ZM-99.7382 96.4857C-99.4619 95.8831 -99.1824 95.2829 -98.8997 94.6853L-100.708 93.8302C-100.994 94.435 -101.277 95.0423 -101.556 95.6522L-99.7382 96.4857ZM-98.0396 92.8945C-97.7491 92.2989 -97.4554 91.706 -97.1586 91.1156L-98.9455 90.2172C-99.2459 90.8148 -99.5431 91.415 -99.8371 92.0178L-98.0396 92.8945ZM-96.2557 89.3468C-95.9506 88.758 -95.6424 88.172 -95.3311 87.5888L-97.0954 86.6469C-97.4106 87.2374 -97.7227 87.8307 -98.0315 88.4266L-96.2557 89.3468ZM-94.3856 85.8438C-94.0662 85.2629 -93.7437 84.6848 -93.418 84.1097L-95.1583 83.1242C-95.4881 83.7067 -95.8147 84.292 -96.1381 84.8801L-94.3856 85.8438ZM-92.4286 82.3877C-92.095 81.8155 -91.7582 81.2461 -91.4183 80.6798L-93.1332 79.6506C-93.4774 80.2242 -93.8185 80.8009 -94.1564 81.3804L-92.4286 82.3877ZM-90.3858 78.984C-90.0374 78.42 -89.6859 77.8592 -89.3314 77.3014L-91.0192 76.2285C-91.3784 76.7935 -91.7344 77.3617 -92.0873 77.9329L-90.3858 78.984ZM-88.256 75.634C-87.8932 75.0795 -87.5274 74.5282 -87.1584 73.9802L-88.8175 72.8633C-89.1914 73.4186 -89.5621 73.9772 -89.9296 74.539L-88.256 75.634ZM-86.0388 72.3407C-85.6617 71.7962 -85.2815 71.2551 -84.8982 70.7174L-86.5268 69.5566C-86.9153 70.1016 -87.3007 70.65 -87.6829 71.2018L-86.0388 72.3407ZM-83.7357 69.1095C-83.3437 68.5752 -82.9488 68.0443 -82.5507 67.5169L-84.1471 66.3121C-84.5507 66.8468 -84.9511 67.385 -85.3484 67.9267L-83.7357 69.1095ZM-81.3448 65.9417C-80.9387 65.4188 -80.5296 64.8996 -80.1174 64.3839L-81.6797 63.1352C-82.0977 63.6582 -82.5126 64.1848 -82.9244 64.715L-81.3448 65.9417ZM-78.8673 62.8422C-78.4466 62.3309 -78.0229 61.8232 -77.5962 61.3194L-79.1224 60.0268C-79.5553 60.538 -79.9851 61.0529 -80.4118 61.5716L-78.8673 62.8422ZM-76.3042 59.8158C-75.8688 59.3165 -75.4305 58.8211 -74.9892 58.3296L-76.4773 56.9934C-76.9252 57.4922 -77.3699 57.9949 -77.8116 58.5014L-76.3042 59.8158ZM-73.6533 56.8636C-73.204 56.3778 -72.7517 55.896 -72.2965 55.4182L-73.7445 54.0386C-74.2066 54.5236 -74.6656 55.0126 -75.1216 55.5056L-73.6533 56.8636ZM-70.9178 53.9927C-70.454 53.5203 -69.9873 53.0521 -69.5176 52.5881L-70.9233 51.1654C-71.4002 51.6366 -71.8741 52.1119 -72.3449 52.5915L-70.9178 53.9927ZM-68.0969 51.2058C-67.6193 50.7481 -67.1388 50.2948 -66.6553 49.8457L-68.0164 48.3803C-68.5075 48.8364 -68.9955 49.2969 -69.4806 49.7617L-68.0969 51.2058ZM-65.1918 48.5075C-64.9464 48.2866 -64.7002 48.0668 -64.4533 47.8481L-65.7795 46.351C-66.0304 46.5732 -66.2805 46.7966 -66.5298 47.021L-65.1918 48.5075ZM-64.4533 47.8481C-64.2053 47.6284 -63.9568 47.41 -63.7077 47.1928L-65.022 45.6853C-65.2751 45.9059 -65.5276 46.1278 -65.7795 46.351L-64.4533 47.8481ZM-62.2055 45.9041C-61.6996 45.4771 -61.1914 45.0551 -60.6811 44.6383L-61.9462 43.0893C-62.4649 43.5129 -62.9814 43.9418 -63.4956 44.3758L-62.2055 45.9041ZM-59.1365 43.3977C-58.6175 42.9878 -58.0963 42.5831 -57.573 42.1836L-58.7865 40.5939C-59.3186 41 -59.8485 41.4115 -60.3761 41.8282L-59.1365 43.3977ZM-55.9901 40.996C-55.4573 40.6032 -54.9224 40.2158 -54.3855 39.8338L-55.545 38.2042C-56.0911 38.5928 -56.6351 38.9868 -57.1769 39.3863L-55.9901 40.996ZM-52.7626 38.6998C-52.2176 38.3258 -51.6705 37.9574 -51.1215 37.5944L-52.2244 35.926C-52.7831 36.2953 -53.3396 36.6702 -53.8941 37.0506L-52.7626 38.6998ZM-49.4612 36.5175C-48.9032 36.1624 -48.3432 35.8129 -47.7814 35.4691L-48.8252 33.7632C-49.3971 34.1131 -49.9671 34.4688 -50.5349 34.8301L-49.4612 36.5175ZM-46.0842 34.4512C-45.5147 34.1165 -44.9433 33.7875 -44.3701 33.4643L-45.3524 31.7222C-45.9361 32.0513 -46.5178 32.3862 -47.0976 32.727L-46.0842 34.4512ZM-42.638 32.5082C-42.0564 32.194 -41.4731 31.8857 -40.8881 31.5833L-41.8064 29.8066C-42.4023 30.1146 -42.9964 30.4286 -43.5886 30.7485L-42.638 32.5082ZM-39.1224 30.6912C-38.5303 30.3989 -37.9365 30.1126 -37.3411 29.8324L-38.193 28.0228C-38.7996 28.3084 -39.4045 28.6001 -40.0077 28.8979L-39.1224 30.6912ZM-35.544 29.0069C-34.9412 28.7368 -34.3368 28.4729 -33.7309 28.2151L-34.5139 26.3747C-35.1315 26.6375 -35.7474 26.9065 -36.3618 27.1817L-35.544 29.0069ZM-31.9037 27.4582C-31.2916 27.2115 -30.678 26.971 -30.0629 26.7367L-30.7748 24.8677C-31.4019 25.1065 -32.0274 25.3517 -32.6514 25.6032L-31.9037 27.4582ZM-28.209 26.0511C-27.5877 25.8281 -26.965 25.6115 -26.341 25.4012L-26.9796 23.5059C-27.616 23.7204 -28.251 23.9413 -28.8846 24.1686L-28.209 26.0511ZM-24.4611 24.7884C-23.832 24.5901 -23.2016 24.3982 -22.57 24.2128L-23.1332 22.2938C-23.7776 22.4829 -24.4206 22.6786 -25.0623 22.8808L-24.4611 24.7884ZM-20.6681 23.6751C-20.0318 23.502 -19.3942 23.3355 -18.7556 23.1754L-19.2417 21.2354C-19.8934 21.3987 -20.5438 21.5686 -21.1931 21.7452L-20.6681 23.6751ZM-16.8333 22.7143C-16.1908 22.567 -15.5471 22.4263 -14.9025 22.2922L-15.3098 20.3341C-15.9677 20.4709 -16.6245 20.6145 -17.2802 20.7649L-16.8333 22.7143ZM-12.9637 21.9094C-12.316 21.7884 -11.6673 21.674 -11.0177 21.5663L-11.3448 19.5932C-12.0078 19.7032 -12.6699 19.8199 -13.3311 19.9434L-12.9637 21.9094ZM-9.06472 21.2631C-8.41266 21.1687 -7.75979 21.0811 -7.10618 21.0002L-7.35186 19.0153C-8.01912 19.0979 -8.6856 19.1874 -9.35123 19.2837L-9.06472 21.2631ZM-5.14276 20.7777C-4.48755 20.7103 -3.83166 20.6497 -3.17515 20.5959L-3.33854 18.6026C-4.00883 18.6575 -4.67846 18.7194 -5.34739 18.7882L-5.14276 20.7777ZM-1.20417 20.4549C-0.546951 20.4147 0.110825 20.3813 0.769098 20.3548L0.688593 18.3565C0.0164686 18.3835 -0.655141 18.4176 -1.32617 18.4586L-1.20417 20.4549ZM2.74401 20.2958C3.40221 20.283 4.06085 20.277 4.71986 20.2779L4.72253 18.2779C4.04964 18.277 3.37714 18.2831 2.70508 18.2962L2.74401 20.2958ZM6.69594 20.3011C7.35388 20.3157 8.01213 20.3371 8.67063 20.3654L8.75644 18.3672C8.0841 18.3383 7.412 18.3165 6.74021 18.3016L6.69594 20.3011ZM10.6434 20.4706C10.9722 20.4916 11.301 20.5143 11.6299 20.5387L11.7778 18.5441C11.4421 18.5192 11.1064 18.4961 10.7707 18.4747L10.6434 20.4706ZM11.6299 20.5387C11.9646 20.5635 12.2992 20.5901 12.6335 20.6184L12.8025 18.6256C12.4612 18.5966 12.1196 18.5695 11.7778 18.5441L11.6299 20.5387ZM14.6373 20.8097C15.3047 20.8805 15.9712 20.9583 16.6368 21.043L16.8895 19.0591C16.2101 18.9725 15.5296 18.8931 14.8483 18.8208L14.6373 20.8097ZM18.631 21.3184C19.2947 21.4171 19.9574 21.5228 20.619 21.6354L20.9546 19.6637C20.2793 19.5488 19.6028 19.4409 18.9253 19.3401L18.631 21.3184ZM22.6001 21.9938C23.2591 22.1201 23.9169 22.2533 24.5735 22.3933L24.9906 20.4373C24.3205 20.2944 23.6492 20.1585 22.9766 20.0295L22.6001 21.9938ZM26.5384 22.8336C27.1914 22.987 27.8431 23.1472 28.4936 23.3141L28.9908 21.3769C28.3272 21.2066 27.6621 21.0431 26.9958 20.8866L26.5384 22.8336ZM30.4387 23.8346C31.0849 24.0146 31.7297 24.2013 32.3731 24.3946L32.9487 22.4792C32.2924 22.282 31.6346 22.0915 30.9753 21.9079L30.4387 23.8346ZM34.2962 24.9937C34.9346 25.1996 35.5715 25.4122 36.2068 25.6312L36.8588 23.7405C36.2109 23.5171 35.5613 23.3003 34.9103 23.0903L34.2962 24.9937ZM38.104 26.3066C38.7336 26.5378 39.3615 26.7754 39.9878 27.0195L40.7141 25.156C40.0756 24.9072 39.4353 24.6649 38.7934 24.4292L38.104 26.3066ZM41.8578 27.7695C42.4781 28.0253 43.0967 28.2874 43.7135 28.5559L44.5117 26.7221C43.8831 26.4485 43.2526 26.1813 42.6204 25.9205L41.8578 27.7695ZM45.5526 29.3776C46.1622 29.657 46.77 29.9426 47.3759 30.2344L48.2437 28.4325C47.6263 28.1352 47.0071 27.8442 46.3859 27.5595L45.5526 29.3776ZM49.1832 31.126C49.7821 31.4285 50.3791 31.7371 50.9742 32.0517L51.9091 30.2837C51.303 29.9632 50.6949 29.6489 50.0849 29.3408L49.1832 31.126ZM52.7472 33.0104C53.3341 33.3348 53.9189 33.6651 54.5017 34.0013L55.5012 32.2689C54.9078 31.9266 54.3123 31.5903 53.7147 31.26L52.7472 33.0104ZM56.2386 35.0245C56.8136 35.3703 57.3865 35.7219 57.9574 36.0794L59.0188 34.3842C58.4378 34.0205 57.8546 33.6626 57.2693 33.3106L56.2386 35.0245ZM59.6572 37.1649C60.2191 37.5309 60.7788 37.9024 61.3363 38.2797L62.4571 36.6232C61.8899 36.2394 61.3204 35.8613 60.7486 35.489L59.6572 37.1649ZM62.9964 39.4242C63.5457 39.8099 64.0926 40.2011 64.6373 40.5979L65.8149 38.9813C65.2609 38.5778 64.7046 38.1798 64.1459 37.7875L62.9964 39.4242ZM66.2581 41.7999C66.7933 42.2039 67.3262 42.6133 67.8568 43.028L69.0886 41.4524C68.5492 41.0307 68.0073 40.6144 67.4631 40.2036L66.2581 41.7999ZM69.4355 44.2836C69.9574 44.7059 70.477 45.1334 70.9942 45.5661L72.2776 44.0322C71.752 43.5925 71.224 43.158 70.6934 42.7288L69.4355 44.2836ZM72.5313 46.8738C73.0386 47.3126 73.5434 47.7565 74.0459 48.2055L75.3785 46.7141C74.8681 46.258 74.3551 45.807 73.8396 45.3612L72.5313 46.8738ZM75.5399 49.5622C76.0335 50.0177 76.5246 50.4782 77.0132 50.9436L78.3927 49.4955C77.8964 49.0228 77.3976 48.5551 76.8962 48.0924L75.5399 49.5622ZM78.4632 52.3467C78.9418 52.817 79.4178 53.2922 79.8913 53.7722L81.3151 52.3677C80.8344 51.8804 80.3511 51.3979 79.8651 50.9203L78.4632 52.3467ZM81.2984 55.2207C81.7628 55.7062 82.2246 56.1963 82.6837 56.691L84.1497 55.3306C83.6837 54.8284 83.215 54.3309 82.7436 53.8382L81.2984 55.2207ZM84.045 58.1801C84.2704 58.4304 84.4952 58.6819 84.7193 58.9345L86.2154 57.6072C85.988 57.3509 85.7599 57.0957 85.5311 56.8417L84.045 58.1801ZM84.7193 58.9345C84.943 59.1867 85.1659 59.4398 85.388 59.6939L86.8939 58.3778C86.6686 58.1199 86.4424 57.8631 86.2154 57.6072L84.7193 58.9345ZM86.7106 61.2298C87.1468 61.7441 87.5799 62.2621 88.0096 62.784L89.5534 61.5125C89.1175 60.9832 88.6782 60.4577 88.2357 59.936L86.7106 61.2298ZM89.2864 64.3571C89.7078 64.8841 90.1261 65.4148 90.541 65.9491L92.1206 64.7224C91.6999 64.1806 91.2758 63.6424 90.8483 63.1079L89.2864 64.3571ZM91.7727 67.5586C92.1789 68.0971 92.5818 68.6392 92.9814 69.1847L94.5948 68.0029C94.1898 67.4499 93.7813 66.9004 93.3695 66.3543L91.7727 67.5586ZM94.1679 70.8284C94.5592 71.3785 94.9472 71.932 95.332 72.4888L96.9774 71.3519C96.5875 70.7876 96.1942 70.2266 95.7976 69.6691L94.1679 70.8284ZM96.4724 74.1636C96.8485 74.724 97.2213 75.2877 97.5908 75.8546L99.2663 74.7626C98.892 74.1882 98.5142 73.617 98.1331 73.0491L96.4724 74.1636ZM98.687 77.5614C99.0478 78.1315 99.4053 78.7046 99.7594 79.2809L101.463 78.2336C101.105 77.6499 100.742 77.0693 100.377 76.4918L98.687 77.5614ZM100.81 81.0151C101.156 81.5951 101.499 82.1781 101.838 82.764L103.569 81.7615C103.225 81.1682 102.878 80.5777 102.527 79.9903L100.81 81.0151ZM102.843 84.5247C103.174 85.1131 103.501 85.7044 103.825 86.2985L105.581 85.3405C105.253 84.739 104.921 84.1403 104.586 83.5445L102.843 84.5247ZM104.786 88.0857C105.102 88.6823 105.414 89.2817 105.723 89.8838L107.502 88.9703C107.19 88.3608 106.873 87.754 106.553 87.15L104.786 88.0857ZM106.638 91.6935C106.939 92.2983 107.237 92.9057 107.531 93.5156L109.333 92.6464C109.035 92.0291 108.733 91.4143 108.429 90.8022L106.638 91.6935ZM108.402 95.3476C108.688 95.9593 108.97 96.5734 109.25 97.1901L111.071 96.365C110.789 95.741 110.503 95.1195 110.213 94.5005L108.402 95.3476ZM110.076 99.0438C110.347 99.6623 110.615 100.283 110.879 100.906L112.72 100.125C112.453 99.4947 112.182 98.8665 111.907 98.2407L110.076 99.0438ZM111.66 102.778C111.917 103.404 112.17 104.031 112.42 104.661L114.279 103.923C114.026 103.286 113.77 102.652 113.511 102.019L111.66 102.778ZM113.157 106.551C113.399 107.182 113.637 107.814 113.872 108.449L115.748 107.755C115.51 107.113 115.269 106.473 115.024 105.835L113.157 106.551ZM114.565 110.357C114.792 110.994 115.016 111.632 115.236 112.272L117.127 111.621C116.904 110.974 116.678 110.329 116.449 109.685L114.565 110.357ZM115.885 114.194C116.098 114.836 116.307 115.48 116.513 116.125L118.418 115.518C118.21 114.865 117.998 114.214 117.784 113.566L115.885 114.194ZM117.118 118.062C117.316 118.708 117.51 119.356 117.701 120.005L119.62 119.441C119.427 118.784 119.23 118.129 119.03 117.476L117.118 118.062ZM118.263 121.957C118.447 122.607 118.627 123.259 118.803 123.912L120.734 123.391C120.555 122.73 120.374 122.071 120.188 121.414L118.263 121.957ZM119.321 125.875C119.49 126.529 119.656 127.186 119.818 127.844L121.76 127.365C121.596 126.7 121.429 126.036 121.258 125.375L119.321 125.875ZM120.293 129.816C120.448 130.474 120.599 131.134 120.747 131.795L122.699 131.359C122.549 130.69 122.396 130.024 122.24 129.359L120.293 129.816ZM121.179 133.779C121.319 134.44 121.456 135.102 121.589 135.766L123.55 135.372C123.415 134.701 123.277 134.032 123.135 133.364L121.179 133.779ZM121.978 137.759C122.104 138.423 122.227 139.088 122.346 139.755L124.315 139.404C124.194 138.73 124.071 138.057 123.943 137.386L121.978 137.759ZM122.692 141.755C122.804 142.422 122.912 143.091 123.017 143.76L124.993 143.451C124.887 142.774 124.777 142.099 124.665 141.425L122.692 141.755ZM123.32 145.767C123.369 146.102 123.417 146.437 123.464 146.773L125.445 146.495C125.397 146.155 125.349 145.817 125.299 145.478L123.32 145.767ZM123.464 146.773C123.511 147.108 123.557 147.443 123.603 147.778L125.585 147.51C125.539 147.172 125.492 146.833 125.445 146.495L123.464 146.773ZM123.863 149.79C123.947 150.462 124.027 151.133 124.103 151.806L126.09 151.58C126.013 150.901 125.932 150.222 125.848 149.544L123.863 149.79ZM124.321 153.823C124.39 154.496 124.456 155.169 124.518 155.843L126.51 155.659C126.447 154.979 126.38 154.298 126.311 153.618L124.321 153.823ZM124.694 157.865C124.749 158.539 124.8 159.213 124.848 159.888L126.843 159.746C126.795 159.065 126.743 158.383 126.687 157.702L124.694 157.865ZM124.982 161.913C125.023 162.589 125.06 163.264 125.094 163.94L127.092 163.839C127.057 163.157 127.02 162.474 126.978 161.792L124.982 161.913ZM125.185 165.967C125.212 166.643 125.235 167.319 125.255 167.995L127.254 167.937C127.234 167.254 127.211 166.571 127.184 165.887L125.185 165.967ZM125.304 170.024C125.317 170.701 125.326 171.377 125.332 172.053L127.332 172.036C127.326 171.353 127.316 170.67 127.304 169.986L125.304 170.024ZM125.338 174.083C125.337 174.759 125.332 175.436 125.323 176.112L127.323 176.137C127.332 175.454 127.337 174.77 127.338 174.087L125.338 174.083ZM125.288 178.141C125.272 178.818 125.253 179.494 125.231 180.17L127.23 180.237C127.252 179.554 127.272 178.87 127.287 178.187L125.288 178.141ZM125.153 182.198C125.123 182.874 125.09 183.55 125.053 184.225L127.05 184.333C127.087 183.651 127.121 182.968 127.151 182.285L125.153 182.198ZM124.933 186.251C124.889 186.926 124.842 187.601 124.791 188.275L126.786 188.425C126.837 187.744 126.885 187.062 126.929 186.38L124.933 186.251ZM124.629 190.298C124.571 190.973 124.51 191.646 124.445 192.319L126.436 192.511C126.501 191.831 126.563 191.15 126.621 190.469L124.629 190.298ZM124.24 194.338C124.168 195.011 124.092 195.683 124.013 196.355L126 196.589C126.079 195.91 126.156 195.231 126.228 194.551L124.24 194.338ZM123.766 198.369C123.679 199.04 123.59 199.711 123.497 200.38L125.478 200.656C125.572 199.979 125.662 199.302 125.749 198.624L123.766 198.369ZM123.206 202.389C123.106 203.058 123.002 203.726 122.895 204.394L124.87 204.711C124.978 204.037 125.083 203.362 125.184 202.686L123.206 202.389ZM122.562 206.396C122.448 207.063 122.329 207.729 122.208 208.394L124.175 208.754C124.298 208.082 124.417 207.408 124.533 206.734L122.562 206.396ZM121.832 210.388C121.704 211.052 121.571 211.716 121.435 212.378L123.394 212.78C123.532 212.11 123.666 211.44 123.796 210.768L121.832 210.388ZM121.017 214.363C120.874 215.025 120.727 215.685 120.577 216.344L122.527 216.788C122.679 216.122 122.827 215.455 122.971 214.786L121.017 214.363ZM120.115 218.32C119.958 218.978 119.797 219.635 119.632 220.29L121.572 220.777C121.738 220.115 121.901 219.451 122.06 218.786L120.115 218.32ZM119.127 222.255C118.955 222.91 118.78 223.563 118.601 224.215L120.53 224.745C120.711 224.086 120.888 223.425 121.062 222.763L119.127 222.255ZM118.053 226.168C117.867 226.818 117.677 227.468 117.483 228.115L119.4 228.688C119.595 228.033 119.787 227.377 119.976 226.719L118.053 226.168ZM116.892 230.056C116.691 230.702 116.486 231.346 116.278 231.989L118.181 232.605C118.392 231.955 118.598 231.303 118.801 230.65L116.892 230.056ZM115.643 233.916C115.428 234.557 115.209 235.197 114.986 235.835L116.874 236.494C117.1 235.848 117.321 235.201 117.539 234.553L115.643 233.916ZM114.307 237.746C114.077 238.382 113.843 239.017 113.606 239.65L115.479 240.352C115.719 239.712 115.955 239.07 116.188 238.426L114.307 237.746ZM112.883 241.545C112.638 242.175 112.39 242.804 112.138 243.43L113.994 244.176C114.249 243.542 114.5 242.906 114.747 242.269L112.883 241.545ZM111.371 245.308C111.241 245.62 111.111 245.932 110.979 246.243L112.821 247.021C112.954 246.707 113.086 246.392 113.218 246.076L111.371 245.308ZM110.979 246.243C110.85 246.549 110.72 246.854 110.589 247.159L112.427 247.948C112.559 247.64 112.691 247.331 112.821 247.021L110.979 246.243ZM109.794 248.98C109.525 249.587 109.253 250.192 108.977 250.794L110.796 251.626C111.075 251.017 111.35 250.405 111.623 249.791L109.794 248.98ZM108.139 252.596C107.856 253.196 107.57 253.793 107.28 254.388L109.079 255.263C109.372 254.662 109.661 254.057 109.948 253.45L108.139 252.596ZM106.399 256.171C106.101 256.764 105.801 257.354 105.497 257.941L107.273 258.86C107.581 258.265 107.885 257.668 108.187 257.068L106.399 256.171ZM104.573 259.7C104.261 260.286 103.946 260.869 103.627 261.449L105.38 262.412C105.703 261.824 106.022 261.234 106.338 260.641L104.573 259.7ZM102.66 263.185C102.334 263.762 102.004 264.337 101.672 264.908L103.4 265.914C103.737 265.335 104.071 264.754 104.401 264.169L102.66 263.185ZM100.661 266.62C100.32 267.189 99.9758 267.754 99.6288 268.317L101.331 269.367C101.682 268.797 102.031 268.224 102.376 267.648L100.661 266.62ZM98.5751 270.001C98.2193 270.561 97.8606 271.118 97.4988 271.672L99.1731 272.766C99.5397 272.205 99.9032 271.64 100.264 271.072L98.5751 270.001ZM96.4016 273.327C96.0317 273.877 95.6587 274.424 95.2828 274.968L96.9276 276.105C97.3085 275.555 97.6865 275.001 98.0614 274.443L96.4016 273.327ZM94.1411 276.594C93.7565 277.135 93.369 277.671 92.9785 278.204L94.592 279.386C94.9878 278.846 95.3806 278.302 95.7704 277.754L94.1411 276.594ZM91.7947 279.798C91.3953 280.327 90.9929 280.854 90.5876 281.376L92.1679 282.602C92.5788 282.072 92.9868 281.539 93.3918 281.001L91.7947 279.798ZM89.3596 282.937C88.9462 283.454 88.5299 283.968 88.1107 284.479L89.6559 285.748C90.0811 285.231 90.5033 284.71 90.9226 284.184L89.3596 282.937ZM86.8386 286.004C86.4104 286.511 85.9793 287.013 85.5453 287.511L87.0535 288.825C87.4938 288.319 87.9312 287.81 88.3656 287.296L86.8386 286.004ZM84.2313 288.998C83.7887 289.492 83.3433 289.981 82.8951 290.466L84.3642 291.823C84.8191 291.331 85.2711 290.834 85.7202 290.333L84.2313 288.998ZM81.537 291.915C81.0802 292.395 80.6206 292.87 80.1583 293.342L81.5862 294.742C82.0556 294.264 82.5221 293.781 82.9858 293.293L81.537 291.915ZM78.7587 294.747C78.2874 295.214 77.8133 295.675 77.3365 296.133L78.7209 297.576C79.2052 297.112 79.6867 296.643 80.1652 296.169L78.7587 294.747ZM75.8939 297.495C75.409 297.946 74.9213 298.393 74.431 298.834L75.7698 300.32C76.2679 299.871 76.7633 299.418 77.2558 298.96L75.8939 297.495ZM72.9465 300.151C72.4474 300.586 71.9456 301.017 71.4411 301.444L72.7319 302.971C73.2445 302.538 73.7545 302.1 74.2616 301.658L72.9465 300.151ZM69.9159 302.711C69.4036 303.13 68.8886 303.544 68.371 303.953L69.6113 305.522C70.1375 305.106 70.661 304.685 71.1817 304.26L69.9159 302.711ZM66.8043 305.171C66.2783 305.573 65.7496 305.97 65.2184 306.362L66.4058 307.971C66.946 307.572 67.4836 307.169 68.0185 306.76L66.8043 305.171ZM63.6134 307.525C63.0744 307.909 62.5329 308.288 61.9889 308.661L63.121 310.31C63.6744 309.93 64.2253 309.545 64.7734 309.154L63.6134 307.525ZM60.3445 309.769C59.7927 310.134 59.2384 310.494 58.6817 310.849L59.7559 312.536C60.3225 312.175 60.8865 311.809 61.4479 311.438L60.3445 309.769ZM57.0009 311.898C56.4369 312.244 55.8704 312.584 55.3016 312.918L56.3155 314.642C56.8946 314.302 57.4712 313.956 58.0453 313.604L57.0009 311.898Z" fill="black"/>
</g>
<defs>
<clipPath id="clip0_225_8526">
<rect width="390" height="431" fill="white"/>
</clipPath>
</defs>
</svg>
